<?xml version="1.0" encoding="utf-8"?>
<!-- Generator: Adobe Illustrator 15.0.0, SVG Export Plug-In . SVG Version: 6.00 Build 0)  -->
<!DOCTYPE svg PUBLIC "-//W3C//DTD SVG 1.1//EN" "http://www.w3.org/Graphics/SVG/1.1/DTD/svg11.dtd">
<svg version="1.1" id="Calque_1" xmlns="http://www.w3.org/2000/svg" xmlns:xlink="http://www.w3.org/1999/xlink" x="0px" y="0px"
	 width="320px" height="36px" viewBox="0 0 320 36" enable-background="new 0 0 320 36" xml:space="preserve">
<g>
	<path fill="#FFFFFE" d="M236.965,0C238.643,0,240,1.357,240,3.034v29.931c0,1.678-1.357,3.035-3.035,3.035h-73.93
		c-1.68,0-3.035-1.357-3.035-3.035V3.034C160,1.357,161.359,0,163.035,0H236.965 M236.965,1h-73.93C161.914,1,161,1.912,161,3.034
		v29.931c0,1.122,0.914,2.035,2.035,2.035h73.93c1.123,0,2.035-0.913,2.035-2.035V3.034C239,1.912,238.088,1,236.965,1L236.965,1z"
		/>
</g>
<path fill="#E65E84" d="M236.965,1h-73.929c-1.122,0-2.035,0.912-2.035,2.034v29.931c0,1.122,0.913,2.035,2.035,2.035h73.929
	c1.123,0,2.035-0.913,2.035-2.035V3.034C239,1.912,238.088,1,236.965,1L236.965,1z"/>
<path opacity="0.2" fill="#FFFFFE" d="M157.965,0h-75.93C80.913,0,80,0.912,80,2.034v31.931C80,35.087,80.913,36,82.035,36h75.93
	c1.123,0,2.035-0.913,2.035-2.035V2.034C160,0.912,159.088,0,157.965,0L157.965,0z"/>
<linearGradient id="SVGID_1_" gradientUnits="userSpaceOnUse" x1="200" y1="34" x2="200" y2="4.882813e-004">
	<stop  offset="0" style="stop-color:#FFFFFE;stop-opacity:0"/>
	<stop  offset="1" style="stop-color:#FFFFFE"/>
</linearGradient>
<path fill="url(#SVGID_1_)" d="M236.965,0h-73.929c-1.122,0-2.035,0.912-2.035,2.034v29.931c0,1.122,0.913,2.035,2.035,2.035h73.929
	c1.123,0,2.035-0.913,2.035-2.035V2.034C239,0.912,238.088,0,236.965,0L236.965,0z"/>
</svg>
