<?xml version="1.0" encoding="utf-8"?>
<!-- Generator: Adobe Illustrator 15.0.0, SVG Export Plug-In . SVG Version: 6.00 Build 0)  -->
<!DOCTYPE svg PUBLIC "-//W3C//DTD SVG 1.1//EN" "http://www.w3.org/Graphics/SVG/1.1/DTD/svg11.dtd">
<svg version="1.1" id="Calque_1" xmlns="http://www.w3.org/2000/svg" xmlns:xlink="http://www.w3.org/1999/xlink" x="0px" y="0px"
	 width="80px" height="24px" viewBox="0 0 80 24" enable-background="new 0 0 80 24" xml:space="preserve">
<g>
	<path fill="#2D2D2D" d="M16.334,5.361c-0.181-0.181-0.354-0.336-0.506-0.463c-0.009,0.112-0.015,0.238-0.015,0.377v1.091
		c0,0.402,0.328,0.73,0.73,0.73h1.091c0.139,0,0.265-0.005,0.376-0.014c-0.126-0.152-0.281-0.326-0.462-0.507L16.334,5.361z"/>
	<g>
		<path fill="#2D2D2D" d="M9.638,19.455h8.723c0.403,0,0.73-0.328,0.73-0.73v-0.363v-1.09c-0.298,0-0.687,0-1.094,0h-7.995
			c-0.407,0-0.795,0-1.094,0v1.09v0.363C8.908,19.127,9.235,19.455,9.638,19.455z"/>
		<path fill="#2D2D2D" d="M18.361,11.451H9.638c-0.403,0-0.73,0.328-0.73,0.73v3.271v1.09c0.299,0,0.688,0,1.094,0h7.996
			c0.407,0,0.796,0,1.094,0v-1.09v-3.271C19.092,11.779,18.765,11.451,18.361,11.451z"/>
	</g>
	<g>
		<path fill="#2D2D2D" d="M8.185,17.089c0-0.192,0-0.325,0-0.362c0-0.312,0-0.779,0-1.271v-3.271c0-0.268,0.078-0.515,0.205-0.73
			H8.185c-0.705,0-1.459,0.305-1.669,0.516C6.305,12.177,6,12.932,6,13.637v3.635c0,0.401,0.328,0.729,0.73,0.729h1.454
			C8.185,17.646,8.185,17.322,8.185,17.089z"/>
		<path fill="#2D2D2D" d="M21.485,11.967c-0.211-0.211-0.965-0.516-1.67-0.516H19.61c0.127,0.216,0.205,0.463,0.205,0.73v3.271
			c0,0.493,0,0.962,0,1.272c0,0.037,0,0.17,0,0.36c0,0.231,0,0.56,0,0.912h1.454c0.402,0,0.73-0.328,0.73-0.729v-3.637
			C22,12.932,21.695,12.177,21.485,11.967z"/>
	</g>
	<g>
		<path fill="#2D2D2D" d="M18.365,10.728V9.092V7.769c-0.216,0.032-0.463,0.052-0.73,0.052h-1.091c-0.8,0-1.453-0.654-1.453-1.454
			V5.275c0-0.268,0.02-0.515,0.051-0.73h-1.323h-3.454c-0.403,0-0.73,0.328-0.73,0.73v5.452L18.365,10.728L18.365,10.728z"/>
	</g>
</g>
</svg>
