<?xml version="1.0" encoding="utf-8"?>
<!-- Generator: Adobe Illustrator 15.0.2, SVG Export Plug-In . SVG Version: 6.00 Build 0)  -->
<!DOCTYPE svg PUBLIC "-//W3C//DTD SVG 1.1//EN" "http://www.w3.org/Graphics/SVG/1.1/DTD/svg11.dtd">
<svg version="1.1" id="Calque_1" xmlns="http://www.w3.org/2000/svg" xmlns:xlink="http://www.w3.org/1999/xlink" x="0px" y="0px"
	 width="34px" height="34px" viewBox="0 0 34 34" enable-background="new 0 0 34 34" xml:space="preserve">
<rect opacity="0.3" fill="#D31147" enable-background="new    " width="34" height="34"/>
<g>
	<path fill="#2E2E2D" d="M17.288,9.014C17.201,9.005,17.115,9,17.027,9c-0.004,0-0.008,0.001-0.013,0.001C17.01,9.001,17.004,9,17,9
		c-2.238,0-4.051,2.255-4.051,4.676c0,1.037,0.332,1.745,0.887,2.218c0.583,1.566,1.793,2.645,3.191,2.645
		c1.418,0,2.644-1.111,3.217-2.716c0.508-0.473,0.809-1.163,0.809-2.147C21.053,11.361,19.391,9.197,17.288,9.014z M19.744,15.285
		l-0.129,0.121l-0.061,0.168c-0.484,1.353-1.477,2.229-2.524,2.229c-1.045,0-2.004-0.83-2.503-2.166l-0.065-0.18l-0.146-0.124
		c-0.424-0.36-0.63-0.902-0.63-1.657c0-0.309,0.034-0.61,0.098-0.904c0.043-0.135,0.111-0.306,0.601,0.51
		c0.432,0.718,0.111-1.25,0.735-1.25c0.625,0,1.065,0.707,1.883,0.707c0.817,0,1.258-0.707,1.882-0.707
		c0.625,0,0.332,1.985,0.736,1.25c0.596-1.083,0.57-0.504,0.602-0.509c0.064,0.294,0.098,0.597,0.098,0.903
		C20.318,14.4,20.131,14.926,19.744,15.285z"/>
	<path fill="#2E2E2D" d="M23.613,24.082c-0.955-4.834-3.291-6.23-3.564-6.23c-0.275,0-0.074-0.09-0.953,0.719
		C18.211,19.377,17,19.32,17,19.32s-1.209,0.057-2.092-0.751c-0.882-0.811-0.68-0.718-0.957-0.718c-0.275,0-2.609,1.396-3.565,6.23
		c0,0-0.203,0.915,0.351,0.915C11.288,25,17,25,17,25s5.711,0,6.263,0C23.816,25,23.613,24.082,23.613,24.082z"/>
</g>
</svg>
