<?xml version="1.0" encoding="utf-8"?>
<!-- Generator: Adobe Illustrator 15.0.2, SVG Export Plug-In . SVG Version: 6.00 Build 0)  -->
<!DOCTYPE svg PUBLIC "-//W3C//DTD SVG 1.1//EN" "http://www.w3.org/Graphics/SVG/1.1/DTD/svg11.dtd">
<svg version="1.1" id="Calque_1" xmlns="http://www.w3.org/2000/svg" xmlns:xlink="http://www.w3.org/1999/xlink" x="0px" y="0px"
	 width="80px" height="24px" viewBox="0 0 80 24" enable-background="new 0 0 80 24" xml:space="preserve">
<g>
	<path fill="#2D2D2D" d="M16.462,4.978c-0.227,0-0.446,1.376-0.662,1.421l-2.707,4.409l2.65,1.497l-0.916,5.124
		c0.55-0.516,1.159-1.071,1.61-1.438c2.204-1.808,4.482-3.671,4.482-6.56C20.922,6.809,19.089,4.978,16.462,4.978z"/>
	<path fill="#2D2D2D" d="M9.592,11.925l2.686-4.368C11.54,6.937,10.523,4.979,9.38,4.979c-2.625,0-4.46,1.831-4.46,4.452
		c0,2.889,2.276,4.752,4.48,6.559c0.744,0.61,1.919,1.727,2.534,2.317l0.819-4.592L9.592,11.925z"/>
</g>
</svg>
