<?xml version="1.0" encoding="utf-8"?>
<!-- Generator: Adobe Illustrator 15.0.2, SVG Export Plug-In . SVG Version: 6.00 Build 0)  -->
<!DOCTYPE svg PUBLIC "-//W3C//DTD SVG 1.1//EN" "http://www.w3.org/Graphics/SVG/1.1/DTD/svg11.dtd">
<svg version="1.1" id="Calque_1" xmlns="http://www.w3.org/2000/svg" xmlns:xlink="http://www.w3.org/1999/xlink" x="0px" y="0px"
	 width="80px" height="24px" viewBox="0 0 80 24" enable-background="new 0 0 80 24" xml:space="preserve">
<rect x="1" fill="#FFFFFE" width="78" height="22"/>
<linearGradient id="SVGID_1_" gradientUnits="userSpaceOnUse" x1="217.1006" y1="-121.96" x2="217.1006" y2="-101.96" gradientTransform="matrix(1 0 0 -1 -177.0996 -100.96)">
	<stop  offset="0" style="stop-color:#F76642"/>
	<stop  offset="1" style="stop-color:#F98D05"/>
</linearGradient>
<rect x="2" y="1" fill="url(#SVGID_1_)" width="76" height="20"/>
<g opacity="0.5">
	<path fill="#FFFFFE" d="M77,2v18H3V2H77 M78,1H2v20h76V1L78,1z"/>
</g>
<linearGradient id="SVGID_2_" gradientUnits="userSpaceOnUse" x1="79" y1="12" x2="80" y2="12">
	<stop  offset="0" style="stop-color:#000000;stop-opacity:0.2"/>
	<stop  offset="1" style="stop-color:#000000;stop-opacity:0"/>
</linearGradient>
<polygon fill="url(#SVGID_2_)" points="80,24 79,22 79,0 80,0 "/>
<linearGradient id="SVGID_3_" gradientUnits="userSpaceOnUse" x1="0" y1="12" x2="1" y2="12" gradientTransform="matrix(-1 0 0 1 1 0)">
	<stop  offset="0" style="stop-color:#000000;stop-opacity:0.2"/>
	<stop  offset="1" style="stop-color:#000000;stop-opacity:0"/>
</linearGradient>
<polygon fill="url(#SVGID_3_)" points="0,24 1,22 1,0 0,0 "/>
<linearGradient id="SVGID_4_" gradientUnits="userSpaceOnUse" x1="40.0005" y1="24" x2="40.0005" y2="22">
	<stop  offset="0" style="stop-color:#000000;stop-opacity:0"/>
	<stop  offset="1" style="stop-color:#000000;stop-opacity:0.2"/>
</linearGradient>
<polygon fill="url(#SVGID_4_)" points="0,24 1,22 79,22 80,24 "/>
</svg>
