<?xml version="1.0" encoding="utf-8"?>
<!-- Generator: Adobe Illustrator 15.0.2, SVG Export Plug-In . SVG Version: 6.00 Build 0)  -->
<!DOCTYPE svg PUBLIC "-//W3C//DTD SVG 1.1//EN" "http://www.w3.org/Graphics/SVG/1.1/DTD/svg11.dtd">
<svg version="1.1" id="Calque_1" xmlns="http://www.w3.org/2000/svg" xmlns:xlink="http://www.w3.org/1999/xlink" x="0px" y="0px"
	 width="34px" height="34px" viewBox="0 0 34 34" enable-background="new 0 0 34 34" xml:space="preserve">
<rect x="0.5" opacity="0.3" fill="#D31147" enable-background="new    " width="33" height="34"/>
<g>
	<g>
		<path fill="#2E2E2D" d="M9.637,11l6.754,6.756c0.162,0.162,0.377,0.25,0.609,0.25s0.447-0.088,0.609-0.25L24.365,11H9.637z"/>
		<g>
			<path fill="#2E2E2D" d="M19.584,17.015l-1.344,1.344c-0.332,0.335-0.77,0.499-1.209,0.499c-0.44,0-0.877-0.164-1.212-0.499
				l-1.371-1.373l-5.656,5.656c-0.037,0.038-0.074,0.069-0.111,0.1C8.834,22.9,9.052,23,9.292,23h15.417
				c0.242,0,0.459-0.1,0.614-0.259c-0.039-0.03-0.075-0.062-0.112-0.1L19.584,17.015z"/>
		</g>
		<g>
			<path fill="#2E2E2D" d="M8.817,11.36c-0.043-0.044-0.073-0.088-0.108-0.129c-0.171,0.158-0.278,0.381-0.278,0.63v9.933
				l5.412-5.411L8.817,11.36z"/>
			<path fill="#2E2E2D" d="M25.238,11.36l-5.055,5.051l5.385,5.383v-9.933c0-0.234-0.094-0.447-0.247-0.601
				C25.292,11.292,25.271,11.325,25.238,11.36z"/>
		</g>
	</g>
</g>
</svg>
