<?xml version="1.0" encoding="utf-8"?>
<!-- Generator: Adobe Illustrator 15.0.2, SVG Export Plug-In . SVG Version: 6.00 Build 0)  -->
<!DOCTYPE svg PUBLIC "-//W3C//DTD SVG 1.1//EN" "http://www.w3.org/Graphics/SVG/1.1/DTD/svg11.dtd">
<svg version="1.1" id="Calque_1" xmlns="http://www.w3.org/2000/svg" xmlns:xlink="http://www.w3.org/1999/xlink" x="0px" y="0px"
	 width="80px" height="24px" viewBox="0 0 80 24" enable-background="new 0 0 80 24" xml:space="preserve">
<path fill="#2D2D2D" d="M14.023,4c-0.655,0-1.192,0.455-1.313,1.076h-0.035L8.362,9.932h2.156l2.983-3.354
	c0.161,0.068,0.337,0.119,0.521,0.119c0.187,0,0.361-0.051,0.524-0.119l2.98,3.354h2.159L15.37,5.077h-0.034
	C15.219,4.455,14.681,4,14.023,4L14.023,4z M6.206,10.293c-0.598,0-1.079,0.481-1.079,1.079v0.539c0,0.569,0.437,1.017,0.995,1.063
	l1.701,5.946C8.362,20,8.902,20,9.439,20h9.708c0.54,0,1.077,0,1.617-1.079l1.703-5.946c0.556-0.047,0.993-0.494,0.993-1.063v-0.539
	c0-0.598-0.479-1.079-1.077-1.079H6.206L6.206,10.293z M9.239,12.988h0.269c0.598,0,1.188,0.451,1.314,1.012l0.758,3.354
	c0.126,0.563-0.261,1.026-0.858,1.026H10.45c-0.598,0-1.188-0.463-1.314-1.026L8.378,14C8.251,13.439,8.641,12.988,9.239,12.988
	L9.239,12.988z M14.294,12.988c0.598,0,1.077,0.482,1.077,1.08v3.234c0,0.6-0.479,1.077-1.077,1.077s-1.08-0.479-1.08-1.077v-3.234
	C13.215,13.471,13.697,12.988,14.294,12.988L14.294,12.988z M19.078,12.988h0.271c0.598,0,0.984,0.451,0.858,1.012l-0.759,3.354
	c-0.126,0.563-0.716,1.026-1.313,1.026h-0.271c-0.598,0-0.984-0.463-0.858-1.026L17.765,14
	C17.891,13.439,18.48,12.988,19.078,12.988L19.078,12.988z"/>
</svg>
