<?xml version="1.0" encoding="utf-8"?>
<!-- Generator: Adobe Illustrator 15.0.2, SVG Export Plug-In . SVG Version: 6.00 Build 0)  -->
<!DOCTYPE svg PUBLIC "-//W3C//DTD SVG 1.1//EN" "http://www.w3.org/Graphics/SVG/1.1/DTD/svg11.dtd">
<svg version="1.1" id="Calque_1" xmlns="http://www.w3.org/2000/svg" xmlns:xlink="http://www.w3.org/1999/xlink" x="0px" y="0px"
	 width="80px" height="24px" viewBox="0 0 80 24" enable-background="new 0 0 80 24" xml:space="preserve">
<path fill="#2D2D2D" d="M11.222,13.999c-0.693,0-1.345-0.27-1.833-0.758l-2.603-2.604c-1.011-1.01-1.011-2.653,0-3.666l2.198-2.196
	c0.487-0.489,1.139-0.758,1.832-0.758c0.694,0,1.346,0.27,1.834,0.758l2.603,2.603c1.011,1.012,1.011,2.656,0,3.667l-2.197,2.198
	C12.568,13.729,11.917,13.999,11.222,13.999z M10.816,6.077c-0.083,0-0.241,0.022-0.375,0.155L8.244,8.427
	c-0.205,0.204-0.205,0.549,0,0.754l2.602,2.601c0.134,0.135,0.295,0.154,0.376,0.154c0.082,0,0.243-0.02,0.377-0.154l2.197-2.196
	c0.204-0.205,0.204-0.55,0-0.752l-2.603-2.603C11.06,6.099,10.9,6.077,10.816,6.077z"/>
<path fill="#2D2D2D" d="M17.239,19.983c-0.695,0-1.346-0.269-1.834-0.759l-2.603-2.603c-1.011-1.012-1.011-2.654,0-3.666L15,10.758
	c0.488-0.487,1.139-0.757,1.833-0.757c0.694,0,1.345,0.27,1.833,0.757l2.603,2.604c1.01,1.011,1.01,2.654,0,3.666l-2.198,2.196
	C18.583,19.715,17.932,19.983,17.239,19.983z M16.832,12.062c-0.082,0-0.242,0.019-0.375,0.155l-2.198,2.196
	c-0.205,0.204-0.205,0.55,0,0.754l2.603,2.601c0.134,0.136,0.292,0.155,0.378,0.155c0.082,0,0.241-0.02,0.375-0.155l2.197-2.193
	c0.205-0.208,0.205-0.553,0-0.757l-2.603-2.602C17.075,12.081,16.913,12.062,16.832,12.062z"/>
<g>
	<path fill="#2D2D2D" d="M16.42,14.663c-0.338,0.34-0.891,0.34-1.228,0L11.5,10.968c-0.338-0.337-0.338-0.891,0-1.228l0.262-0.263
		c0.337-0.337,0.891-0.337,1.228,0l3.693,3.692c0.338,0.339,0.338,0.891,0,1.229L16.42,14.663z"/>
</g>
</svg>
