<?xml version="1.0" encoding="utf-8"?>
<!-- Generator: Adobe Illustrator 15.0.2, SVG Export Plug-In . SVG Version: 6.00 Build 0)  -->
<!DOCTYPE svg PUBLIC "-//W3C//DTD SVG 1.1//EN" "http://www.w3.org/Graphics/SVG/1.1/DTD/svg11.dtd">
<svg version="1.1" id="Calque_1" xmlns="http://www.w3.org/2000/svg" xmlns:xlink="http://www.w3.org/1999/xlink" x="0px" y="0px"
	 width="80px" height="24px" viewBox="0 0 80 24" enable-background="new 0 0 80 24" xml:space="preserve">
<path fill="#2D2D2D" d="M17.569,13.324c-0.963,0-1.829,0.405-2.441,1.053l-3.611-1.813c0.032-0.186,0.05-0.377,0.05-0.573
	c0-0.293-0.038-0.576-0.109-0.847l3.805-2.331c0.458,0.354,1.032,0.566,1.657,0.566c1.493,0,2.705-1.21,2.705-2.704
	c0-1.493-1.21-2.705-2.705-2.705c-1.496,0-2.704,1.21-2.704,2.705c0,0.172,0.018,0.339,0.047,0.504l-3.807,2.332
	C9.869,8.986,9.093,8.667,8.243,8.667c-1.836,0-3.324,1.488-3.324,3.324s1.488,3.324,3.324,3.324c0.951,0,1.807-0.399,2.413-1.04
	l3.611,1.817c-0.034,0.189-0.053,0.386-0.053,0.586c0,1.852,1.502,3.353,3.354,3.353c1.851,0,3.351-1.501,3.351-3.353
	C20.918,14.827,19.42,13.324,17.569,13.324z"/>
</svg>
