<?xml version="1.0" encoding="utf-8"?>
<!-- Generator: Adobe Illustrator 15.0.2, SVG Export Plug-In . SVG Version: 6.00 Build 0)  -->
<!DOCTYPE svg PUBLIC "-//W3C//DTD SVG 1.1//EN" "http://www.w3.org/Graphics/SVG/1.1/DTD/svg11.dtd">
<svg version="1.1" id="Calque_1" xmlns="http://www.w3.org/2000/svg" xmlns:xlink="http://www.w3.org/1999/xlink" x="0px" y="0px"
	 width="22px" height="18px" viewBox="0 0 22 18" enable-background="new 0 0 22 18" xml:space="preserve">
<rect x="2" y="2" fill="#EEEBE8" width="16" height="4.452"/>
<rect x="2" y="6.401" fill="#FFF5F5" width="16" height="11.599"/>
<g>
	<path fill="#006E12" d="M8.889,11.244c0.18-0.115,0.342-0.273,0.484-0.477c0.219-0.313,0.33-0.66,0.33-1.063
		c0-0.521-0.199-0.96-0.594-1.295c-0.386-0.323-0.888-0.49-1.496-0.49c-0.696,0-1.204,0.203-1.508,0.603l-0.061,0.08l0.555,0.854
		L6.72,9.317c0.205-0.233,0.475-0.352,0.825-0.352c0.638,0,0.935,0.291,0.935,0.916c0,0.6-0.318,0.872-1.002,0.872h-0.18v1.019H7.51
		c0.368,0,0.652,0.104,0.869,0.313C8.596,12.292,8.7,12.559,8.7,12.898c0,0.742-0.353,1.088-1.109,1.088
		c-0.411,0-0.741-0.146-1.01-0.438l-0.125-0.142l-0.591,0.951l0.085,0.08c0.178,0.166,0.411,0.308,0.714,0.422
		c0.297,0.117,0.605,0.181,0.913,0.181c0.729,0,1.308-0.187,1.718-0.537c0.417-0.368,0.628-0.883,0.628-1.537
		c0-0.452-0.122-0.846-0.362-1.163C9.383,11.564,9.158,11.378,8.889,11.244z"/>
	<path fill="#006E12" d="M13.178,8.01l-0.041,0.055C12.93,8.33,12.641,8.61,12.273,8.899c-0.373,0.293-0.729,0.526-1.054,0.697
		l-0.078,0.037v1.186l1.335-0.838v4.961h1.185V8.01H13.178z"/>
</g>
<path fill="#24CFDE" d="M2,2v4.402v0.05V18h16V6.452v-0.05V2H2z M2.5,2.502h15v3.446h-15V2.502z M17.5,17.497h-15V6.452h15V17.497z"
	/>
</svg>
