<?xml version="1.0" encoding="utf-8"?>
<!-- Generator: Adobe Illustrator 15.0.2, SVG Export Plug-In . SVG Version: 6.00 Build 0)  -->
<!DOCTYPE svg PUBLIC "-//W3C//DTD SVG 1.1//EN" "http://www.w3.org/Graphics/SVG/1.1/DTD/svg11.dtd">
<svg version="1.1" id="Calque_1" xmlns="http://www.w3.org/2000/svg" xmlns:xlink="http://www.w3.org/1999/xlink" x="0px" y="0px"
	 width="92px" height="56px" viewBox="0 0 92 56" enable-background="new 0 0 92 56" xml:space="preserve">
<g>
	<g>
		<path fill="#FFFBFF" d="M57.867,12.794c-1.184,0.001-2.369,0.087-3.532,0.294c-1.162,0.208-2.3,0.539-3.376,0.995
			c-2.154,0.917-4.005,2.398-5.316,4.242c-1.326,1.841-2.15,4.006-2.628,6.254c-0.117,0.563-0.21,1.133-0.291,1.707
			c-0.079,0.573-0.13,1.15-0.169,1.732c-0.038,0.58-0.053,1.164-0.048,1.746c0.005,0.582,0.032,1.172,0.092,1.734l-0.351-0.296
			c2.602,0.103,5.206,0.159,7.809,0.138c2.603-0.01,5.207-0.076,7.81-0.17l3.905-0.137c1.299-0.038,2.603-0.077,3.899-0.098
			c2.604-0.045,5.206-0.082,7.812-0.11l-0.723,0.614c0.018-0.119,0.034-0.271,0.053-0.408c0.014-0.141,0.026-0.279,0.037-0.424
			c0.024-0.285,0.041-0.569,0.053-0.857c0.021-0.574,0.031-1.148,0.015-1.723c-0.028-1.149-0.144-2.294-0.341-3.418
			c-0.402-2.247-1.211-4.41-2.51-6.26c-0.651-0.919-1.428-1.76-2.324-2.476c-0.891-0.72-1.896-1.313-2.967-1.777
			c-1.075-0.458-2.213-0.789-3.373-0.997C60.234,12.889,59.05,12.8,57.867,12.794z M57.867,12.653
			c1.189-0.005,2.383,0.054,3.566,0.2c1.187,0.146,2.371,0.374,3.521,0.743c1.152,0.364,2.277,0.869,3.314,1.535
			c1.037,0.669,1.983,1.498,2.773,2.463c0.8,0.957,1.436,2.047,1.934,3.186c0.487,1.144,0.846,2.336,1.08,3.546
			c0.238,1.209,0.358,2.436,0.385,3.66c0.013,0.612,0.002,1.227-0.035,1.834c-0.02,0.308-0.045,0.613-0.077,0.921
			c-0.017,0.151-0.033,0.306-0.054,0.459c-0.019,0.157-0.039,0.301-0.068,0.476l-0.002,0.01c-0.061,0.356-0.372,0.607-0.721,0.604
			c-2.604-0.028-5.207-0.066-7.812-0.113c-1.302-0.02-2.604-0.057-3.903-0.094l-3.903-0.141c-2.603-0.094-5.205-0.162-7.81-0.168
			c-2.601-0.021-5.205,0.033-7.809,0.136c-0.169,0.006-0.315-0.113-0.347-0.273l-0.004-0.021c-0.117-0.613-0.19-1.205-0.247-1.811
			c-0.054-0.601-0.088-1.207-0.097-1.812c-0.012-0.607,0.011-1.214,0.051-1.822c0.04-0.607,0.113-1.215,0.216-1.817
			c0.199-1.209,0.526-2.404,1.003-3.546c0.478-1.141,1.104-2.229,1.891-3.193c0.782-0.967,1.726-1.798,2.757-2.471
			c1.035-0.666,2.156-1.173,3.307-1.537c1.154-0.37,2.334-0.599,3.519-0.747C55.486,12.716,56.678,12.653,57.867,12.653z"/>
	</g>
	<g>
		<path fill="#FFFBFF" d="M43.412,34.759l3.627-0.034l3.627-0.014l7.254-0.021l7.255,0.021l3.628,0.014l3.627,0.034
			c0.039,0.001,0.07,0.032,0.07,0.07c0,0.035-0.023,0.063-0.057,0.067l-0.012,0.006c-2.42,0.505-4.839,0.754-7.254,0.949
			c-2.419,0.176-4.838,0.26-7.255,0.262c-2.418,0.001-4.838-0.081-7.254-0.258c-2.419-0.192-4.837-0.445-7.255-0.953L43.401,34.9
			c-0.038-0.01-0.063-0.045-0.054-0.084C43.351,34.781,43.379,34.76,43.412,34.759z"/>
	</g>
	<g>
		<path fill="#FFFBFF" d="M45.943,38.564l3.036-0.033l3.033-0.012l6.067-0.021l6.067,0.021l3.031,0.012l3.035,0.033
			c0.034,0,0.063,0.026,0.063,0.063c0,0.032-0.021,0.057-0.051,0.063l-0.015,0.002c-2.021,0.459-4.044,0.699-6.063,0.863
			c-2.023,0.176-4.047,0.241-6.068,0.244c-2.021-0.001-4.045-0.068-6.066-0.242c-2.023-0.162-4.046-0.404-6.068-0.863l-0.013-0.004
			c-0.034-0.008-0.055-0.043-0.048-0.076C45.888,38.584,45.914,38.564,45.943,38.564z"/>
	</g>
	<g>
		<path fill="#FFFBFF" d="M48.205,40.896c0.21,0.082,0.417,0.17,0.628,0.246c0.206,0.082,0.412,0.162,0.618,0.233
			c0.416,0.146,0.822,0.293,1.23,0.424c0.817,0.267,1.627,0.502,2.437,0.692c1.616,0.384,3.226,0.593,4.831,0.601
			c1.607,0.009,3.208-0.194,4.816-0.592c1.614-0.384,3.215-0.979,4.926-1.606l0.018-0.006c0.036-0.016,0.075,0.004,0.087,0.039
			c0.013,0.03,0.002,0.063-0.021,0.081c-0.707,0.529-1.443,1.021-2.213,1.455c-0.773,0.429-1.578,0.8-2.41,1.106
			c-1.661,0.613-3.434,0.943-5.207,0.943c-1.777-0.011-3.545-0.348-5.209-0.949c-1.666-0.601-3.248-1.441-4.625-2.563
			c-0.028-0.021-0.032-0.066-0.01-0.098c0.02-0.023,0.051-0.03,0.08-0.02L48.205,40.896z"/>
	</g>
	<g>
		<path fill="#FFFBFF" d="M48.172,31.559h-2.058c0-12.316,6.754-14.789,7.042-14.888l0.669,1.946l-0.335-0.972l0.344,0.97
			C53.604,18.698,48.172,20.809,48.172,31.559z"/>
	</g>
	<g>
		<path fill="#FFFBFF" d="M56.008,19.345c0,0,1.78,1.068,1.859,1.267c0.078,0.197,0.21-0.99,0.21-0.99l0.185,1.011
			c0,0,1.227,1.441,1.227,1.719c0,0.276,0.275-1.029,0.275-1.029s0.237,2.888,1.107,3.64c0,0,1.861-3.799-1.584-7.519
			c0,0,0.755-0.196,2.415,0.515l0.235-0.54l0.197,0.699c0,0,1.583,1.068,1.859,1.503c0,0-2.288-5.487-4.287-5.842
			c0,0,0.529-0.792,4.855,1.53c0,0-5.026-6.015-10.342-2.955c0,0-4.906-1.598-8.476,4.927c0,0,1.392-2.328,4.677-1.734
			c0,0-1.543,0.04-3.285,2.454c-0.726,1.004-0.75,4.392-0.75,4.392s1.002-1.741,1.768-2.018v-0.712l0.369,0.436
			C48.529,20.097,51.497,17.169,56.008,19.345z"/>
	</g>
	<g>
		<circle fill="#FFFBFF" cx="54.757" cy="18.911" r="1.266"/>
	</g>
</g>
</svg>
