<?xml version="1.0" encoding="utf-8"?>
<!-- Generator: Adobe Illustrator 15.0.2, SVG Export Plug-In . SVG Version: 6.00 Build 0)  -->
<!DOCTYPE svg PUBLIC "-//W3C//DTD SVG 1.1//EN" "http://www.w3.org/Graphics/SVG/1.1/DTD/svg11.dtd">
<svg version="1.1" id="Calque_1" xmlns="http://www.w3.org/2000/svg" xmlns:xlink="http://www.w3.org/1999/xlink" x="0px" y="0px"
	 width="338.893px" height="324.752px" viewBox="0 0 338.893 324.752" enable-background="new 0 0 338.893 324.752"
	 xml:space="preserve">
<g>
	<g>
		<linearGradient id="SVGID_1_" gradientUnits="userSpaceOnUse" x1="169.4463" y1="347.2639" x2="169.4463" y2="-22.5105">
			<stop  offset="0" style="stop-color:#614161"/>
			<stop  offset="1" style="stop-color:#542954"/>
		</linearGradient>
		<rect x="-23.491" y="-22.511" fill="url(#SVGID_1_)" width="385.875" height="369.775"/>
	</g>
</g>
<g>
	<g opacity="0.1">
		<g>
			<polygon fill="#542954" points="-23.714,-224.214 -27.25,-227.749 -400.75,145.751 -774.25,519.246 -770.714,522.783 
				-397.214,149.286 			"/>
			<polygon fill="#542954" points="-30.786,-231.284 -34.32,-234.82 -407.82,138.68 -781.32,512.18 -777.786,515.715 
				-404.286,142.216 			"/>
			<polygon fill="#542954" points="-16.644,-217.144 -20.179,-220.679 -393.679,152.821 -767.179,526.321 -763.644,529.856 
				-390.144,156.356 			"/>
			<polygon fill="#542954" points="-2.504,-203.003 -6.04,-206.538 -379.54,166.961 -753.04,540.461 -749.504,543.992 
				-376.004,170.496 			"/>
			<polygon fill="#542954" points="-9.574,-210.073 -13.109,-213.609 -386.609,159.891 -760.109,533.391 -756.574,536.926 
				-383.074,163.426 			"/>
			<polygon fill="#542954" points="1.032,-199.468 -372.468,174.031 -745.968,547.531 -742.433,551.067 -368.933,177.567 
				4.567,-195.933 			"/>
		</g>
		<g>
			<polygon fill="#542954" points="-108.714,-224.214 -112.25,-227.749 -485.75,145.751 -859.25,519.246 -855.714,522.783 
				-482.214,149.286 			"/>
			<polygon fill="#542954" points="-115.785,-231.284 -119.32,-234.82 -492.82,138.68 -866.32,512.18 -862.786,515.715 
				-489.286,142.216 			"/>
			<polygon fill="#542954" points="-101.644,-217.144 -105.179,-220.679 -478.679,152.821 -852.179,526.321 -848.644,529.856 
				-475.144,156.356 			"/>
			<polygon fill="#542954" points="-87.504,-203.003 -91.04,-206.538 -464.54,166.961 -838.04,540.461 -834.504,543.992 
				-461.004,170.496 			"/>
			<polygon fill="#542954" points="-94.574,-210.073 -98.109,-213.609 -471.609,159.891 -845.109,533.391 -841.574,536.926 
				-468.074,163.426 			"/>
			<polygon fill="#542954" points="-83.968,-199.468 -457.468,174.031 -830.968,547.531 -827.433,551.067 -453.933,177.567 
				-80.433,-195.933 			"/>
		</g>
	</g>
	<g opacity="0.1">
		<g>
			<polygon fill="#542954" points="141.286,-219.214 137.75,-222.749 -235.75,150.751 -609.25,524.246 -605.714,527.783 
				-232.214,154.286 			"/>
			<polygon fill="#542954" points="134.215,-226.284 130.68,-229.82 -242.82,143.68 -616.32,517.18 -612.786,520.715 
				-239.286,147.216 			"/>
			<polygon fill="#542954" points="148.356,-212.144 144.821,-215.679 -228.679,157.821 -602.179,531.321 -598.644,534.856 
				-225.144,161.356 			"/>
			<polygon fill="#542954" points="162.496,-198.003 158.961,-201.538 -214.54,171.961 -588.04,545.461 -584.504,548.992 
				-211.004,175.496 			"/>
			<polygon fill="#542954" points="155.426,-205.073 151.892,-208.609 -221.609,164.891 -595.109,538.391 -591.574,541.926 
				-218.074,168.426 			"/>
			<polygon fill="#542954" points="166.031,-194.468 -207.468,179.031 -580.968,552.531 -577.433,556.067 -203.933,182.567 
				169.566,-190.933 			"/>
		</g>
		<g>
			<polygon fill="#542954" points="56.286,-219.214 52.75,-222.749 -320.75,150.751 -694.25,524.246 -690.714,527.783 
				-317.214,154.286 			"/>
			<polygon fill="#542954" points="49.214,-226.284 45.68,-229.82 -327.82,143.68 -701.32,517.18 -697.786,520.715 
				-324.286,147.216 			"/>
			<polygon fill="#542954" points="63.356,-212.144 59.821,-215.679 -313.679,157.821 -687.179,531.321 -683.644,534.856 
				-310.144,161.356 			"/>
			<polygon fill="#542954" points="77.496,-198.003 73.96,-201.538 -299.54,171.961 -673.04,545.461 -669.504,548.992 
				-296.004,175.496 			"/>
			<polygon fill="#542954" points="70.426,-205.073 66.891,-208.609 -306.609,164.891 -680.109,538.391 -676.574,541.926 
				-303.074,168.426 			"/>
			<polygon fill="#542954" points="81.032,-194.468 -292.468,179.031 -665.968,552.531 -662.433,556.067 -288.933,182.567 
				84.567,-190.933 			"/>
		</g>
	</g>
	<g opacity="0.1">
		<g>
			<polygon fill="#542954" points="316.285,-224.214 312.75,-227.749 -60.75,145.751 -434.25,519.246 -430.714,522.783 
				-57.214,149.286 			"/>
			<polygon fill="#542954" points="309.215,-231.284 305.68,-234.82 -67.82,138.68 -441.32,512.18 -437.786,515.715 
				-64.285,142.216 			"/>
			<polygon fill="#542954" points="323.355,-217.144 319.82,-220.679 -53.679,152.821 -427.179,526.321 -423.644,529.856 
				-50.144,156.356 			"/>
			<polygon fill="#542954" points="337.496,-203.003 333.961,-206.538 -39.54,166.961 -413.04,540.461 -409.504,543.992 
				-36.004,170.496 			"/>
			<polygon fill="#542954" points="330.426,-210.073 326.893,-213.609 -46.609,159.891 -420.109,533.391 -416.574,536.926 
				-43.074,163.426 			"/>
			<polygon fill="#542954" points="341.031,-199.468 -32.468,174.031 -405.968,547.531 -402.433,551.067 -28.933,177.567 
				344.566,-195.933 			"/>
		</g>
		<g>
			<polygon fill="#542954" points="231.285,-224.214 227.75,-227.749 -145.75,145.751 -519.25,519.246 -515.714,522.783 
				-142.214,149.286 			"/>
			<polygon fill="#542954" points="224.215,-231.284 220.68,-234.82 -152.82,138.68 -526.32,512.18 -522.786,515.715 
				-149.285,142.216 			"/>
			<polygon fill="#542954" points="238.355,-217.144 234.82,-220.679 -138.679,152.821 -512.179,526.321 -508.644,529.856 
				-135.144,156.356 			"/>
			<polygon fill="#542954" points="252.496,-203.003 248.961,-206.538 -124.54,166.961 -498.04,540.461 -494.504,543.992 
				-121.004,170.496 			"/>
			<polygon fill="#542954" points="245.426,-210.073 241.893,-213.609 -131.609,159.891 -505.109,533.391 -501.574,536.926 
				-128.074,163.426 			"/>
			<polygon fill="#542954" points="256.031,-199.468 -117.468,174.031 -490.968,547.531 -487.433,551.067 -113.933,177.567 
				259.566,-195.933 			"/>
		</g>
	</g>
	<g opacity="0.1">
		<g>
			<polygon fill="#542954" points="481.285,-219.214 477.75,-222.749 104.25,150.751 -269.25,524.246 -265.714,527.783 
				107.786,154.286 			"/>
			<polygon fill="#542954" points="474.215,-226.284 470.68,-229.82 97.18,143.68 -276.32,517.18 -272.786,520.715 100.714,147.216 
							"/>
			<polygon fill="#542954" points="488.355,-212.144 484.82,-215.679 111.321,157.821 -262.179,531.321 -258.644,534.856 
				114.856,161.356 			"/>
			<polygon fill="#542954" points="502.496,-198.003 498.961,-201.538 125.461,171.961 -248.04,545.461 -244.504,548.992 
				128.997,175.496 			"/>
			<polygon fill="#542954" points="495.426,-205.073 491.893,-208.609 118.391,164.891 -255.109,538.391 -251.574,541.926 
				121.926,168.426 			"/>
			<polygon fill="#542954" points="506.031,-194.468 132.532,179.031 -240.968,552.531 -237.433,556.067 136.067,182.567 
				509.566,-190.933 			"/>
		</g>
		<g>
			<polygon fill="#542954" points="396.285,-219.214 392.75,-222.749 19.25,150.751 -354.25,524.246 -350.714,527.783 
				22.786,154.286 			"/>
			<polygon fill="#542954" points="389.215,-226.284 385.68,-229.82 12.18,143.68 -361.32,517.18 -357.786,520.715 15.714,147.216 
							"/>
			<polygon fill="#542954" points="403.355,-212.144 399.82,-215.679 26.321,157.821 -347.179,531.321 -343.644,534.856 
				29.856,161.356 			"/>
			<polygon fill="#542954" points="417.496,-198.003 413.961,-201.538 40.46,171.961 -333.04,545.461 -329.504,548.992 
				43.996,175.496 			"/>
			<polygon fill="#542954" points="410.426,-205.073 406.893,-208.609 33.391,164.891 -340.109,538.391 -336.574,541.926 
				36.926,168.426 			"/>
			<polygon fill="#542954" points="421.031,-194.468 47.532,179.031 -325.968,552.531 -322.433,556.067 51.067,182.567 
				424.566,-190.933 			"/>
		</g>
	</g>
	<g opacity="0.1">
		<g>
			<polygon fill="#542954" points="655.285,-224.214 651.75,-227.749 278.25,145.751 -95.25,519.246 -91.714,522.783 
				281.785,149.286 			"/>
			<polygon fill="#542954" points="648.215,-231.284 644.68,-234.82 271.18,138.68 -102.32,512.18 -98.785,515.715 274.715,142.216 
							"/>
			<polygon fill="#542954" points="662.355,-217.144 658.82,-220.679 285.32,152.821 -88.179,526.321 -84.644,529.856 
				288.855,156.356 			"/>
			<polygon fill="#542954" points="676.496,-203.003 672.961,-206.538 299.461,166.961 -74.04,540.461 -70.504,543.992 
				302.996,170.496 			"/>
			<polygon fill="#542954" points="669.426,-210.073 665.893,-213.609 292.393,159.891 -81.109,533.391 -77.574,536.926 
				295.926,163.426 			"/>
			<polygon fill="#542954" points="680.031,-199.468 306.531,174.031 -66.968,547.531 -63.433,551.067 310.066,177.567 
				683.566,-195.933 			"/>
		</g>
		<g>
			<polygon fill="#542954" points="570.285,-224.214 566.75,-227.749 193.25,145.751 -180.25,519.246 -176.714,522.783 
				196.785,149.286 			"/>
			<polygon fill="#542954" points="563.215,-231.284 559.68,-234.82 186.18,138.68 -187.32,512.18 -183.785,515.715 
				189.715,142.216 			"/>
			<polygon fill="#542954" points="577.355,-217.144 573.82,-220.679 200.32,152.821 -173.179,526.321 -169.644,529.856 
				203.855,156.356 			"/>
			<polygon fill="#542954" points="591.496,-203.003 587.961,-206.538 214.461,166.961 -159.04,540.461 -155.504,543.992 
				217.996,170.496 			"/>
			<polygon fill="#542954" points="584.426,-210.073 580.893,-213.609 207.393,159.891 -166.109,533.391 -162.574,536.926 
				210.926,163.426 			"/>
			<polygon fill="#542954" points="595.031,-199.468 221.531,174.031 -151.968,547.531 -148.433,551.067 225.066,177.567 
				598.566,-195.933 			"/>
		</g>
	</g>
	<g opacity="0.1">
		<g>
			<polygon fill="#542954" points="820.285,-219.214 816.75,-222.749 443.25,150.751 69.75,524.246 73.286,527.783 446.785,154.286 
							"/>
			<polygon fill="#542954" points="813.215,-226.284 809.682,-229.82 436.18,143.68 62.68,517.18 66.214,520.715 439.715,147.216 
							"/>
			<polygon fill="#542954" points="827.355,-212.144 823.82,-215.679 450.32,157.821 76.821,531.321 80.356,534.856 
				453.855,161.356 			"/>
			<polygon fill="#542954" points="841.496,-198.003 837.961,-201.538 464.461,171.961 90.96,545.461 94.496,548.992 
				467.996,175.496 			"/>
			<polygon fill="#542954" points="834.426,-205.073 830.893,-208.609 457.393,164.891 83.891,538.391 87.426,541.926 
				460.926,168.426 			"/>
			<polygon fill="#542954" points="845.031,-194.468 471.531,179.031 98.032,552.531 101.567,556.067 475.066,182.567 
				848.566,-190.933 			"/>
		</g>
		<g>
			<polygon fill="#542954" points="735.285,-219.214 731.75,-222.749 358.25,150.751 -15.25,524.246 -11.714,527.783 
				361.785,154.286 			"/>
			<polygon fill="#542954" points="728.215,-226.284 724.68,-229.82 351.18,143.68 -22.32,517.18 -18.786,520.715 354.715,147.216 
							"/>
			<polygon fill="#542954" points="742.355,-212.144 738.82,-215.679 365.32,157.821 -8.179,531.321 -4.644,534.856 
				368.855,161.356 			"/>
			<polygon fill="#542954" points="756.496,-198.003 752.961,-201.538 379.461,171.961 5.96,545.461 9.496,548.992 382.996,175.496 
							"/>
			<polygon fill="#542954" points="749.426,-205.073 745.893,-208.609 372.393,164.891 -1.109,538.391 2.426,541.926 
				375.926,168.426 			"/>
			<polygon fill="#542954" points="760.031,-194.468 386.531,179.031 13.032,552.531 16.567,556.067 390.066,182.567 
				763.566,-190.933 			"/>
		</g>
	</g>
	<g opacity="0.1">
		<g>
			<polygon fill="#542954" points="995.285,-224.214 991.75,-227.749 618.25,145.751 244.75,519.246 248.285,522.783 
				621.785,149.286 			"/>
			<polygon fill="#542954" points="988.215,-231.284 984.682,-234.82 611.18,138.68 237.68,512.18 241.215,515.715 614.715,142.216 
							"/>
			<polygon fill="#542954" points="1002.355,-217.144 998.82,-220.679 625.32,152.821 251.82,526.321 255.355,529.856 
				628.855,156.356 			"/>
			<polygon fill="#542954" points="1016.496,-203.003 1012.961,-206.538 639.461,166.961 265.961,540.461 269.496,543.992 
				642.996,170.496 			"/>
			<polygon fill="#542954" points="1009.426,-210.073 1005.893,-213.609 632.393,159.891 258.893,533.391 262.426,536.926 
				635.926,163.426 			"/>
			<polygon fill="#542954" points="1020.031,-199.468 646.531,174.031 273.031,547.531 276.566,551.067 650.066,177.567 
				1023.566,-195.933 			"/>
		</g>
		<g>
			<polygon fill="#542954" points="910.285,-224.214 906.75,-227.749 533.25,145.751 159.75,519.246 163.285,522.783 
				536.785,149.286 			"/>
			<polygon fill="#542954" points="903.215,-231.284 899.682,-234.82 526.18,138.68 152.68,512.18 156.215,515.715 529.715,142.216 
							"/>
			<polygon fill="#542954" points="917.355,-217.144 913.82,-220.679 540.32,152.821 166.82,526.321 170.355,529.856 
				543.855,156.356 			"/>
			<polygon fill="#542954" points="931.496,-203.003 927.961,-206.538 554.461,166.961 180.961,540.461 184.496,543.992 
				557.996,170.496 			"/>
			<polygon fill="#542954" points="924.426,-210.073 920.893,-213.609 547.393,159.891 173.893,533.391 177.426,536.926 
				550.926,163.426 			"/>
			<polygon fill="#542954" points="935.031,-199.468 561.531,174.031 188.031,547.531 191.566,551.067 565.066,177.567 
				938.566,-195.933 			"/>
		</g>
	</g>
	<g opacity="0.1">
		<g>
			<polygon fill="#542954" points="1160.285,-219.214 1156.75,-222.749 783.25,150.751 409.75,524.246 413.285,527.783 
				786.785,154.286 			"/>
			<polygon fill="#542954" points="1153.215,-226.284 1149.682,-229.82 776.182,143.68 402.68,517.18 406.215,520.715 
				779.715,147.216 			"/>
			<polygon fill="#542954" points="1167.355,-212.144 1163.82,-215.679 790.32,157.821 416.82,531.321 420.355,534.856 
				793.855,161.356 			"/>
			<polygon fill="#542954" points="1181.496,-198.003 1177.961,-201.538 804.461,171.961 430.961,545.461 434.496,548.992 
				807.996,175.496 			"/>
			<polygon fill="#542954" points="1174.426,-205.073 1170.893,-208.609 797.393,164.891 423.893,538.391 427.426,541.926 
				800.926,168.426 			"/>
			<polygon fill="#542954" points="1185.031,-194.468 811.531,179.031 438.031,552.531 441.566,556.067 815.066,182.567 
				1188.566,-190.933 			"/>
		</g>
		<g>
			<polygon fill="#542954" points="1075.285,-219.214 1071.75,-222.749 698.25,150.751 324.75,524.246 328.285,527.783 
				701.785,154.286 			"/>
			<polygon fill="#542954" points="1068.215,-226.284 1064.682,-229.82 691.18,143.68 317.68,517.18 321.215,520.715 
				694.715,147.216 			"/>
			<polygon fill="#542954" points="1082.355,-212.144 1078.82,-215.679 705.32,157.821 331.82,531.321 335.355,534.856 
				708.855,161.356 			"/>
			<polygon fill="#542954" points="1096.496,-198.003 1092.961,-201.538 719.461,171.961 345.961,545.461 349.496,548.992 
				722.996,175.496 			"/>
			<polygon fill="#542954" points="1089.426,-205.073 1085.893,-208.609 712.393,164.891 338.893,538.391 342.426,541.926 
				715.926,168.426 			"/>
			<polygon fill="#542954" points="1100.031,-194.468 726.531,179.031 353.031,552.531 356.566,556.067 730.066,182.567 
				1103.566,-190.933 			"/>
		</g>
	</g>
</g>
</svg>
