<?xml version="1.0" encoding="utf-8"?>
<!-- Generator: Adobe Illustrator 15.0.2, SVG Export Plug-In . SVG Version: 6.00 Build 0)  -->
<!DOCTYPE svg PUBLIC "-//W3C//DTD SVG 1.1//EN" "http://www.w3.org/Graphics/SVG/1.1/DTD/svg11.dtd">
<svg version="1.1" id="Calque_1" xmlns="http://www.w3.org/2000/svg" xmlns:xlink="http://www.w3.org/1999/xlink" x="0px" y="0px"
	 width="176px" height="591px" viewBox="0 0 176 591" enable-background="new 0 0 176 591" xml:space="preserve">
<g opacity="0.3">
	<polygon fill="#EB4BA5" points="0,0 171,0 171,254.5 0,342.16 	"/>
</g>
<polygon fill="#B4B4B3" points="171,244.5 171,254.5 0,342.16 0,332.16 "/>
<polygon opacity="0.3" fill="#EB4BA5" enable-background="new    " points="171,591 0,591 0,360.5 171,272.833 "/>
<polygon fill="#B4B4B3" points="0,370.5 0,360.5 171,272.833 171,282.833 "/>
<linearGradient id="SVGID_1_" gradientUnits="userSpaceOnUse" x1="2010.2188" y1="420.886" x2="2009.1382" y2="418.7653" gradientTransform="matrix(1 0 0 1 -1920.7598 -120.0977)">
	<stop  offset="0" style="stop-color:#000000;stop-opacity:0"/>
	<stop  offset="1" style="stop-color:#000000;stop-opacity:0.2"/>
</linearGradient>
<polygon fill="url(#SVGID_1_)" points="4.125,340.143 171,254.466 176,258.466 4.125,345.478 "/>
<linearGradient id="SVGID_2_" gradientUnits="userSpaceOnUse" x1="2091.7598" y1="249.3479" x2="2096.7598" y2="249.3479" gradientTransform="matrix(1 0 0 1 -1920.7598 -120.0977)">
	<stop  offset="0" style="stop-color:#000000;stop-opacity:0.2"/>
	<stop  offset="1" style="stop-color:#000000;stop-opacity:0"/>
</linearGradient>
<polygon fill="url(#SVGID_2_)" points="171,254.5 171,0 176,0 176,258.5 "/>
<linearGradient id="SVGID_3_" gradientUnits="userSpaceOnUse" x1="2091.7598" y1="557.3889" x2="2096.7598" y2="557.3889" gradientTransform="matrix(1 0 0 1 -1920.7598 -120.0977)">
	<stop  offset="0" style="stop-color:#000000;stop-opacity:0.2"/>
	<stop  offset="1" style="stop-color:#000000;stop-opacity:0"/>
</linearGradient>
<polygon fill="url(#SVGID_3_)" points="171,590 171,288.014 176,284.581 176,590 "/>
</svg>
