<?xml version="1.0" encoding="utf-8"?>
<!-- Generator: Adobe Illustrator 15.0.2, SVG Export Plug-In . SVG Version: 6.00 Build 0)  -->
<!DOCTYPE svg PUBLIC "-//W3C//DTD SVG 1.1//EN" "http://www.w3.org/Graphics/SVG/1.1/DTD/svg11.dtd">
<svg version="1.1" id="Calque_1" xmlns="http://www.w3.org/2000/svg" xmlns:xlink="http://www.w3.org/1999/xlink" x="0px" y="0px"
	 width="800px" height="205px" viewBox="0 0 800 205" enable-background="new 0 0 800 205" xml:space="preserve">
<g>
	<g>
		
			<linearGradient id="SVGID_1_" gradientUnits="userSpaceOnUse" x1="785.1995" y1="840.9199" x2="785.1995" y2="635.9199" gradientTransform="matrix(1 0 0 1 -385.1992 -635.9199)">
			<stop  offset="0" style="stop-color:#614161"/>
			<stop  offset="1" style="stop-color:#542954"/>
		</linearGradient>
		<rect x="10" fill="url(#SVGID_1_)" width="780" height="205"/>
	</g>
</g>
<g opacity="0.1">
	<polygon fill="#542954" points="674.536,0 667.311,0 548.618,118.691 462.311,205 469.536,205 589.734,84.805 	"/>
	<polygon fill="#542954" points="716.962,0 709.889,0 607.407,102.48 504.889,205 511.961,205 610.947,106.016 	"/>
	<polygon fill="#542954" points="688.679,0 681.609,0 593.269,88.34 476.608,205 483.678,205 596.804,91.875 	"/>
	<polygon fill="#542954" points="702.819,0 695.747,0 600.338,95.41 490.747,205 497.819,205 603.872,98.945 	"/>
	<polygon fill="#542954" points="646.1,0 639.03,0 534.48,104.55 434.03,205 441.1,205 538.015,108.085 	"/>
	<polygon fill="#542954" points="660.24,0 653.169,0 541.549,111.62 448.168,205 455.24,205 545.084,115.154 	"/>
	<polygon fill="#542954" points="73.312,0 10,63.312 10,70.537 80.538,0 	"/>
	<polygon fill="#542954" points="589.536,0 582.311,0 463.618,118.691 377.311,205 384.537,205 509.734,79.805 	"/>
	<polygon fill="#542954" points="575.24,0 568.17,0 456.55,111.62 363.169,205 370.24,205 460.084,115.154 	"/>
	<polygon fill="#542954" points="87.608,0 10,77.607 10,84.679 94.679,0 	"/>
	<polygon fill="#542954" points="59.171,0 10,49.17 10,56.241 66.242,0 	"/>
	<polygon fill="#542954" points="16.75,0 10,6.75 10,13.818 23.819,0 	"/>
	<polygon fill="#542954" points="617.819,0 610.748,0 520.339,90.41 405.747,205 412.819,205 523.872,93.945 	"/>
	<polygon fill="#542954" points="631.961,0 624.889,0 527.407,97.48 419.889,205 426.961,205 530.947,101.016 	"/>
	<polygon fill="#542954" points="603.679,0 596.609,0 513.269,83.34 391.608,205 398.677,205 516.804,86.875 	"/>
	<polygon fill="#542954" points="30.889,0 10,20.889 10,27.96 37.96,0 	"/>
	<polygon fill="#542954" points="45.03,0 10,35.029 10,42.099 52.099,0 	"/>
	<polygon fill="#542954" points="790,205 790,203.168 788.168,205 	"/>
	<polygon fill="#542954" points="790,118.169 703.168,205 710.24,205 790,125.239 	"/>
	<polygon fill="#542954" points="790,132.311 717.311,205 724.536,205 790,139.537 	"/>
	<polygon fill="#542954" points="790,82.818 790,75.748 775.338,90.41 660.746,205 667.819,205 778.872,93.945 	"/>
	<polygon fill="#542954" points="790,96.961 790,89.889 782.407,97.48 674.889,205 681.961,205 785.947,101.016 	"/>
	<polygon fill="#542954" points="790,146.607 731.609,205 738.677,205 790,153.678 	"/>
	<polygon fill="#542954" points="790,104.029 789.48,104.55 689.03,205 696.1,205 790,111.1 	"/>
	<polygon fill="#542954" points="790,189.029 774.03,205 781.1,205 790,196.1 	"/>
	<polygon fill="#542954" points="101.75,0 10,91.75 10,98.818 108.819,0 	"/>
	<polygon fill="#542954" points="790,160.748 745.746,205 752.819,205 790,167.818 	"/>
	<polygon fill="#542954" points="790,174.889 759.889,205 766.961,205 790,181.961 	"/>
	<polygon fill="#542954" points="790,54.537 790,47.311 713.618,123.691 632.311,205 639.536,205 764.734,79.805 	"/>
	<polygon fill="#542954" points="787.819,0 780.747,0 685.338,95.41 575.747,205 582.819,205 688.872,98.945 	"/>
	<polygon fill="#542954" points="759.537,0 752.311,0 628.618,123.691 547.311,205 554.536,205 674.734,84.805 	"/>
	<polygon fill="#542954" points="773.679,0 766.609,0 678.269,88.34 561.608,205 568.678,205 681.804,91.875 	"/>
	<polygon fill="#542954" points="745.24,0 738.169,0 621.549,116.62 533.168,205 540.24,205 625.084,120.154 	"/>
	<polygon fill="#542954" points="731.1,0 724.03,0 614.48,109.55 519.03,205 526.1,205 618.015,113.085 	"/>
	<polygon fill="#542954" points="790,68.679 790,61.608 768.269,83.34 646.609,205 653.677,205 771.804,86.875 	"/>
	<polygon fill="#542954" points="790,11.962 790,4.889 692.407,102.48 589.889,205 596.961,205 695.947,106.016 	"/>
	<polygon fill="#542954" points="790,40.239 790,33.169 706.549,116.62 618.168,205 625.24,205 710.084,120.154 	"/>
	<polygon fill="#542954" points="790,26.1 790,19.029 699.48,109.55 604.03,205 611.1,205 703.015,113.085 	"/>
	<polygon fill="#542954" points="420.536,0 413.311,0 289.62,123.691 208.312,205 215.538,205 335.734,84.805 	"/>
	<polygon fill="#542954" points="321.24,0 314.17,0 202.55,111.62 109.169,205 116.241,205 206.086,115.154 	"/>
	<polygon fill="#542954" points="278.819,0 271.75,0 181.34,90.41 66.749,205 73.819,205 184.874,93.945 	"/>
	<polygon fill="#542954" points="349.679,0 342.608,0 254.268,88.34 137.607,205 144.677,205 257.804,91.875 	"/>
	<polygon fill="#542954" points="363.819,0 356.75,0 261.34,95.41 151.749,205 158.819,205 264.874,98.945 	"/>
	<polygon fill="#542954" points="307.099,0 300.03,0 195.48,104.55 95.03,205 102.099,205 199.014,108.085 	"/>
	<polygon fill="#542954" points="292.96,0 285.889,0 188.409,97.48 80.889,205 87.96,205 191.945,101.016 	"/>
	<polygon fill="#542954" points="335.537,0 328.311,0 209.62,118.691 123.312,205 130.538,205 250.734,84.805 	"/>
	<polygon fill="#542954" points="462.96,0 455.889,0 353.408,102.48 250.889,205 257.96,205 356.945,106.016 	"/>
	<polygon fill="#542954" points="434.679,0 427.608,0 339.268,88.34 222.607,205 229.677,205 342.804,91.875 	"/>
	<polygon fill="#542954" points="377.961,0 370.889,0 268.409,102.48 165.889,205 172.96,205 271.945,106.016 	"/>
	<polygon fill="#542954" points="392.099,0 385.03,0 275.48,109.55 180.03,205 187.099,205 279.014,113.085 	"/>
	<polygon fill="#542954" points="561.1,0 554.03,0 449.48,104.55 349.03,205 356.1,205 453.015,108.085 	"/>
	<polygon fill="#542954" points="448.819,0 441.75,0 346.34,95.41 236.749,205 243.819,205 349.873,98.945 	"/>
	<polygon fill="#542954" points="137.099,0 130.03,0 20.48,109.55 10,120.029 10,127.1 24.014,113.085 	"/>
	<polygon fill="#542954" points="122.96,0 115.889,0 13.409,102.48 10,105.889 10,112.96 16.945,106.016 	"/>
	<polygon fill="#542954" points="151.24,0 144.171,0 27.55,116.62 10,134.17 10,141.24 31.085,120.154 	"/>
	<polygon fill="#542954" points="179.679,0 172.609,0 89.269,83.34 10,162.607 10,169.678 92.804,86.875 	"/>
	<polygon fill="#542954" points="165.538,0 158.311,0 34.62,123.691 10,148.313 10,155.537 85.734,79.805 	"/>
	<polygon fill="#542954" points="207.96,0 200.889,0 103.409,97.48 10,190.891 10,197.959 106.945,101.016 	"/>
	<polygon fill="#542954" points="236.24,0 229.171,0 117.55,111.62 24.169,205 31.24,205 121.085,115.154 	"/>
	<polygon fill="#542954" points="250.538,0 243.311,0 124.62,118.691 38.312,205 45.538,205 170.734,79.805 	"/>
	<polygon fill="#542954" points="222.099,0 215.03,0 110.48,104.55 10.03,205 17.099,205 114.014,108.085 	"/>
	<polygon fill="#542954" points="193.819,0 186.75,0 96.34,90.41 10,176.749 10,183.818 99.874,93.945 	"/>
	<polygon fill="#542954" points="264.679,0 257.609,0 174.269,83.34 52.608,205 59.677,205 177.804,86.875 	"/>
	<polygon fill="#542954" points="406.24,0 399.17,0 282.55,116.62 194.169,205 201.241,205 286.086,120.154 	"/>
	<polygon fill="#542954" points="477.1,0 470.03,0 360.48,109.55 265.03,205 272.1,205 364.015,113.085 	"/>
	<polygon fill="#542954" points="518.679,0 511.609,0 428.269,83.34 306.608,205 313.677,205 431.804,86.875 	"/>
	<polygon fill="#542954" points="491.24,0 484.171,0 367.551,116.62 279.17,205 286.241,205 371.086,120.154 	"/>
	<polygon fill="#542954" points="532.819,0 525.748,0 435.339,90.41 320.748,205 327.819,205 438.872,93.945 	"/>
	<polygon fill="#542954" points="546.961,0 539.889,0 442.407,97.48 334.889,205 341.961,205 445.947,101.016 	"/>
	<polygon fill="#542954" points="504.536,0 498.311,0 374.619,123.691 293.312,205 299.537,205 424.734,79.805 	"/>
</g>
</svg>
