<?xml version="1.0" encoding="utf-8"?>
<!-- Generator: Adobe Illustrator 15.0.2, SVG Export Plug-In . SVG Version: 6.00 Build 0)  -->
<!DOCTYPE svg PUBLIC "-//W3C//DTD SVG 1.1//EN" "http://www.w3.org/Graphics/SVG/1.1/DTD/svg11.dtd">
<svg version="1.1" id="Calque_1" xmlns="http://www.w3.org/2000/svg" xmlns:xlink="http://www.w3.org/1999/xlink" x="0px" y="0px"
	 width="22px" height="22px" viewBox="0 0 22 22" enable-background="new 0 0 22 22" xml:space="preserve">
<path fill="#FFFFFF" d="M22,18c0,2.2-1.8,4-4,4H4c-2.2,0-4-1.8-4-4V4c0-2.2,1.8-4,4-4h14c2.2,0,4,1.8,4,4V18z"/>
<path opacity="0.04" enable-background="new    " d="M22,18c0,2.2-1.8,4-4,4H4c-2.2,0-4-1.8-4-4V4c0-2.2,1.8-4,4-4h14
	c2.2,0,4,1.8,4,4V18z"/>
<path opacity="0.3" enable-background="new    " d="M0.037,18.1L0.012,7.96L0.006,5.425C0.029,4.591-0.088,3.72,0.185,2.883
	C0.68,1.215,2.322-0.021,4.062,0l10.077,0.025l2.521,0.006c0.829,0.028,1.692-0.086,2.521,0.191c1.643,0.503,2.85,2.149,2.82,3.877
	h-0.1c-0.172-1.678-1.403-3.068-2.881-3.375c-0.379-0.084-0.701-0.122-1.104-0.099l-1.261,0.058l-2.52,0.116
	C10.78,0.941,7.42,0.928,4.062,0.999C2.754,0.954,1.461,1.868,1.049,3.156c-0.052,0.159-0.092,0.322-0.12,0.487
	c-0.014,0.086-0.024,0.166-0.03,0.235c-0.008,0.063-0.011,0.223-0.013,0.28L0.867,5.425C0.863,6.271,0.831,7.115,0.786,7.96
	L0.55,13.029c-0.14,1.688-0.222,3.38-0.414,5.07H0.037L0.037,18.1z"/>
<path opacity="0.75" fill="#FFFFFE" enable-background="new    " d="M21.963,3.899l0.025,10.14l0.007,2.536
	c-0.024,0.834,0.094,1.704-0.181,2.542c-0.494,1.668-2.137,2.904-3.877,2.883L7.861,21.975l-2.519-0.006
	c-0.83-0.027-1.695,0.086-2.52-0.191C1.178,21.273-0.029,19.629,0,17.9h0.1c0.171,1.678,1.402,3.066,2.88,3.375
	c0.377,0.084,0.701,0.121,1.103,0.099l1.26-0.06l2.519-0.115c3.359-0.141,6.718-0.127,10.078-0.198
	c1.309,0.045,2.603-0.869,3.015-2.155c0.052-0.16,0.092-0.322,0.118-0.488c0.015-0.086,0.023-0.166,0.029-0.233
	c0.008-0.063,0.012-0.224,0.016-0.278l0.02-1.269c0.004-0.847,0.036-1.69,0.081-2.536l0.234-5.069c0.141-1.69,0.224-3.38,0.414-5.07
	h0.098L21.963,3.899L21.963,3.899z"/>
</svg>
