<?xml version="1.0" encoding="utf-8"?>
<!-- Generator: Adobe Illustrator 15.0.2, SVG Export Plug-In . SVG Version: 6.00 Build 0)  -->
<!DOCTYPE svg PUBLIC "-//W3C//DTD SVG 1.1//EN" "http://www.w3.org/Graphics/SVG/1.1/DTD/svg11.dtd">
<svg version="1.1" id="Calque_1" xmlns="http://www.w3.org/2000/svg" xmlns:xlink="http://www.w3.org/1999/xlink" x="0px" y="0px"
	 width="22px" height="22px" viewBox="0 0 22 22" enable-background="new 0 0 22 22" xml:space="preserve">
<path fill="#FAD3A0" d="M22,18c0,2.2-1.8,4-4,4H4c-2.2,0-4-1.8-4-4V4c0-2.2,1.8-4,4-4h14c2.2,0,4,1.8,4,4V18z"/>
<linearGradient id="SVGID_1_" gradientUnits="userSpaceOnUse" x1="550.2002" y1="818.8887" x2="550.2002" y2="840.9205" gradientTransform="matrix(1 0 0 1 -539.1992 -818.9199)">
	<stop  offset="0" style="stop-color:#FFFFFE;stop-opacity:0"/>
	<stop  offset="1" style="stop-color:#000000;stop-opacity:0.12"/>
</linearGradient>
<path fill="url(#SVGID_1_)" d="M22,18c0,2.2-1.8,4-4,4H4c-2.2,0-4-1.8-4-4V4c0-2.2,1.8-4,4-4h14c2.2,0,4,1.8,4,4V18z"/>
</svg>
