<?xml version="1.0" encoding="utf-8"?>
<!-- Generator: Adobe Illustrator 15.0.2, SVG Export Plug-In . SVG Version: 6.00 Build 0)  -->
<!DOCTYPE svg PUBLIC "-//W3C//DTD SVG 1.1//EN" "http://www.w3.org/Graphics/SVG/1.1/DTD/svg11.dtd">
<svg version="1.1" id="Calque_1" xmlns="http://www.w3.org/2000/svg" xmlns:xlink="http://www.w3.org/1999/xlink" x="0px" y="0px"
	 width="48px" height="36px" viewBox="0 0 48 36" enable-background="new 0 0 48 36" xml:space="preserve">
<path fill="#FFFFFF" d="M48,18c0-3.782-3.002-6.854-6.75-6.987V11H6.75v0.013C3.001,11.146,0,14.218,0,18
	c0,3.781,3.001,6.854,6.75,6.986V25h34.5v-0.014C44.998,24.854,48,21.781,48,18z"/>
<path opacity="0.04" fill="#DFFFEF" enable-background="new    " d="M48,18c0-3.782-3.002-6.854-6.75-6.987V11H6.75v0.013
	C3.001,11.146,0,14.218,0,18c0,3.781,3.001,6.854,6.75,6.986V25h34.5v-0.014C44.998,24.854,48,21.781,48,18z"/>
<linearGradient id="SVGID_1_" gradientUnits="userSpaceOnUse" x1="563.1992" y1="829.9434" x2="563.1992" y2="815.9434" gradientTransform="matrix(1 0 0 1 -539.1992 -804.9199)">
	<stop  offset="0" style="stop-color:#FFF5F5"/>
	<stop  offset="1" style="stop-color:#DFFFEF;stop-opacity:0.25"/>
</linearGradient>
<path opacity="0.5" fill="url(#SVGID_1_)" enable-background="new    " d="M40.848,12l0.367,0.014C44.459,12.128,47,14.758,47,18
	s-2.541,5.872-5.785,5.986L40.952,24H7.153l-0.368-0.014C3.541,23.872,1,21.242,1,18s2.541-5.872,5.785-5.986L7.048,12H40.848
	 M41.25,11H6.75v0.014C3.001,11.146,0,14.218,0,18c0,3.781,3.001,6.854,6.75,6.986V25h34.5v-0.014C44.998,24.854,48,21.781,48,18
	c0-3.782-3.002-6.854-6.75-6.986V11L41.25,11z"/>
</svg>
