<?xml version="1.0" encoding="utf-8"?>
<!-- Generator: Adobe Illustrator 15.0.2, SVG Export Plug-In . SVG Version: 6.00 Build 0)  -->
<!DOCTYPE svg PUBLIC "-//W3C//DTD SVG 1.1//EN" "http://www.w3.org/Graphics/SVG/1.1/DTD/svg11.dtd">
<svg version="1.1" id="Calque_1" xmlns="http://www.w3.org/2000/svg" xmlns:xlink="http://www.w3.org/1999/xlink" x="0px" y="0px"
	 width="36px" height="48px" viewBox="0 0 36 48" enable-background="new 0 0 36 48" xml:space="preserve">
<g>
	<g>
		<path fill="#E8C6B0" d="M15,7v34c0,1.657,1.343,3,3,3c1.656,0,3-1.343,3-3V7c0-1.656-1.344-3-3-3C16.343,4,15,5.344,15,7z"/>
	</g>
	<path opacity="0.5" fill="#FFFFFE" enable-background="new    " d="M15,7v34c0,1.657,1.344,3,3,3c-1.656,0-2-1.343-2-3V7
		c0-1.656,0.344-3,2-3C16.344,4,15,5.344,15,7z"/>
	<path opacity="0.1" enable-background="new    " d="M17,41V7c0-1.656,0.447-3,1-3c-1.656,0-2,1.344-2,3v34c0,1.657,0.344,3,2,3
		C17.447,44,17,42.657,17,41z"/>
	<path opacity="0.5" fill="#FFFFFE" enable-background="new    " d="M21,41V7c0-1.657-1.344-3-3-3c1.656,0,2,1.343,2,3v34
		c0,1.654-0.344,3-2,3C19.656,44,21,42.654,21,41z"/>
</g>
</svg>
