<?xml version="1.0" encoding="utf-8"?>
<!-- Generator: Adobe Illustrator 15.0.2, SVG Export Plug-In . SVG Version: 6.00 Build 0)  -->
<!DOCTYPE svg PUBLIC "-//W3C//DTD SVG 1.1//EN" "http://www.w3.org/Graphics/SVG/1.1/DTD/svg11.dtd">
<svg version="1.1" id="Calque_1" xmlns="http://www.w3.org/2000/svg" xmlns:xlink="http://www.w3.org/1999/xlink" x="0px" y="0px"
	 width="36px" height="36px" viewBox="0 0 36 36" enable-background="new 0 0 36 36" xml:space="preserve">
<path fill="#2D2D2D" d="M23.668,16.347c-0.966-0.861-1.953-1.706-2.974-2.516c-1.024-0.804-2.05-1.605-3.137-2.334
	c-0.543-0.365-1.065-0.754-1.625-1.101l-1.681-1.044c-1.159-0.647-2.311-1.311-3.589-1.827l-0.041-0.018
	c-0.042-0.016-0.095-0.006-0.133,0.029c-0.042,0.05-0.042,0.125,0.009,0.172c1.902,1.765,3.819,3.518,5.752,5.25L21.822,18
	l-5.572,5.036c-1.933,1.74-3.848,3.486-5.752,5.255c-0.038,0.032-0.051,0.087-0.031,0.135c0.024,0.062,0.093,0.088,0.154,0.062
	l0.041-0.014c1.274-0.52,2.426-1.178,3.585-1.832c1.128-0.686,2.246-1.384,3.305-2.146c1.092-0.726,2.117-1.523,3.142-2.329
	c1.018-0.814,2.005-1.655,2.974-2.517l1.87-1.646L23.668,16.347z"/>
</svg>
