<?xml version="1.0" encoding="utf-8"?>
<!-- Generator: Adobe Illustrator 15.0.2, SVG Export Plug-In . SVG Version: 6.00 Build 0)  -->
<!DOCTYPE svg PUBLIC "-//W3C//DTD SVG 1.1//EN" "http://www.w3.org/Graphics/SVG/1.1/DTD/svg11.dtd">
<svg version="1.1" id="Calque_1" xmlns="http://www.w3.org/2000/svg" xmlns:xlink="http://www.w3.org/1999/xlink" x="0px" y="0px"
	 width="36px" height="36px" viewBox="0 0 36 36" enable-background="new 0 0 36 36" xml:space="preserve">
<path fill="#2D2D2D" d="M12.33,19.651c0.966,0.861,1.953,1.706,2.974,2.516c1.024,0.805,2.05,1.605,3.137,2.334
	c0.543,0.365,1.065,0.754,1.625,1.101l1.682,1.045c1.159,0.647,2.311,1.311,3.589,1.826l0.04,0.019
	c0.042,0.016,0.096,0.006,0.133-0.029c0.042-0.051,0.042-0.126-0.009-0.173c-1.902-1.765-3.819-3.518-5.752-5.25l-5.572-5.04
	l5.572-5.036c1.933-1.74,3.848-3.486,5.752-5.255c0.037-0.032,0.051-0.087,0.03-0.135c-0.024-0.062-0.093-0.088-0.154-0.062
	l-0.04,0.014c-1.274,0.52-2.426,1.178-3.585,1.832c-1.129,0.686-2.246,1.384-3.305,2.146c-1.092,0.726-2.117,1.523-3.142,2.329
	c-1.018,0.814-2.005,1.655-2.974,2.517l-1.87,1.646L12.33,19.651z"/>
</svg>
