<?xml version="1.0" encoding="utf-8"?>
<!-- Generator: Adobe Illustrator 15.0.2, SVG Export Plug-In . SVG Version: 6.00 Build 0)  -->
<!DOCTYPE svg PUBLIC "-//W3C//DTD SVG 1.1//EN" "http://www.w3.org/Graphics/SVG/1.1/DTD/svg11.dtd">
<svg version="1.1" id="Calque_1" xmlns="http://www.w3.org/2000/svg" xmlns:xlink="http://www.w3.org/1999/xlink" x="0px" y="0px"
	 width="384px" height="45px" viewBox="0 0 384 45" enable-background="new 0 0 384 45" xml:space="preserve">
<rect x="0" fill="#FFFFFF" width="384" height="15"/>
<rect x="0" fill="#FFFFFF" width="16" height="15"/>
<rect x="80" fill="#FFFFFF" width="16" height="15"/>
<rect x="96" fill="#FFFFFF" width="16" height="15"/>
<rect x="176" fill="#FFFFFF" width="16" height="15"/>
<rect x="192" fill="#FFFFFF" width="16" height="15"/>
<rect x="272" fill="#FFFFFF" width="16" height="15"/>
<rect x="288" fill="#FFFFFF" width="16" height="15"/>
<rect x="368" fill="#FFFFFF" width="16" height="15"/>
<path fill="#EEEBE8" d="M80,5c0-1.1-0.9-2-2-2H50c-1.101,0-2,0.9-2,2v4c0,1.1,0.899,2,2,2h28c1.1,0,2-0.9,2-2V5z"/>
<path fill="#EEEBE8" d="M176,5c0-1.1-0.9-2-2-2h-28c-1.101,0-2,0.9-2,2v4c0,1.1,0.899,2,2,2h28c1.1,0,2-0.9,2-2V5z"/>
<path fill="#EEEBE8" d="M272,5c0-1.1-0.9-2-2-2h-28c-1.101,0-2,0.9-2,2v4c0,1.1,0.899,2,2,2h28c1.1,0,2-0.9,2-2V5z"/>
<path fill="#EEEBE8" d="M368,5c0-1.1-0.9-2-2-2h-28c-1.101,0-2,0.9-2,2v4c0,1.1,0.899,2,2,2h28c1.1,0,2-0.9,2-2V5z"/>
</svg>
