<?xml version="1.0" encoding="utf-8"?>
<!-- Generator: Adobe Illustrator 15.0.2, SVG Export Plug-In . SVG Version: 6.00 Build 0)  -->
<!DOCTYPE svg PUBLIC "-//W3C//DTD SVG 1.1//EN" "http://www.w3.org/Graphics/SVG/1.1/DTD/svg11.dtd">
<svg version="1.1" id="Calque_1" xmlns="http://www.w3.org/2000/svg" xmlns:xlink="http://www.w3.org/1999/xlink" x="0px" y="0px"
	 width="34px" height="34px" viewBox="0 0 34 34" enable-background="new 0 0 34 34" xml:space="preserve">
<rect x="0.5" fill="#F01B57" width="33" height="34"/>
<g>
	<path fill="#0A7039" d="M9.636,10.999l6.755,6.756c0.162,0.163,0.377,0.251,0.609,0.251s0.447-0.088,0.609-0.251l6.756-6.756H9.636
		z"/>
	<g>
		<path fill="#0A7039" d="M19.584,17.013l-1.344,1.345c-0.332,0.333-0.77,0.498-1.209,0.498c-0.44,0-0.878-0.165-1.212-0.498
			l-1.372-1.374L8.79,22.642c-0.037,0.037-0.074,0.069-0.111,0.1c0.156,0.159,0.374,0.258,0.613,0.258h15.42
			c0.239,0,0.456-0.1,0.614-0.258c-0.038-0.03-0.075-0.063-0.112-0.1L19.584,17.013z"/>
	</g>
	<g>
		<path fill="#0A7039" d="M8.817,11.359c-0.044-0.045-0.074-0.088-0.109-0.129c-0.171,0.158-0.277,0.381-0.277,0.63v9.934
			l5.411-5.413L8.817,11.359z"/>
		<path fill="#0A7039" d="M25.238,11.359l-5.055,5.051l5.386,5.384V11.86c0-0.234-0.093-0.447-0.247-0.602
			C25.293,11.292,25.273,11.324,25.238,11.359z"/>
	</g>
</g>
</svg>
