<?xml version="1.0" encoding="utf-8"?>
<!-- Generator: Adobe Illustrator 15.0.2, SVG Export Plug-In . SVG Version: 6.00 Build 0)  -->
<!DOCTYPE svg PUBLIC "-//W3C//DTD SVG 1.1//EN" "http://www.w3.org/Graphics/SVG/1.1/DTD/svg11.dtd">
<svg version="1.1" id="Calque_1" xmlns="http://www.w3.org/2000/svg" xmlns:xlink="http://www.w3.org/1999/xlink" x="0px" y="0px"
	 width="80px" height="24px" viewBox="0 0 80 24" enable-background="new 0 0 80 24" xml:space="preserve">
<path fill="#2D2D2D" d="M17.569,13.325c-0.962,0-1.829,0.405-2.44,1.052l-3.61-1.814c0.032-0.186,0.049-0.376,0.049-0.571
	c0-0.294-0.038-0.577-0.109-0.848l3.805-2.331c0.458,0.354,1.032,0.568,1.656,0.568c1.493,0,2.705-1.21,2.705-2.706
	c0-1.493-1.21-2.704-2.705-2.704c-1.495,0-2.704,1.21-2.704,2.704c0,0.174,0.018,0.341,0.047,0.505l-3.806,2.331
	C9.87,8.986,9.092,8.666,8.242,8.666c-1.836,0-3.323,1.489-3.323,3.325s1.487,3.322,3.323,3.322c0.952,0,1.809-0.396,2.414-1.037
	l3.612,1.816c-0.035,0.188-0.053,0.387-0.053,0.584c0,1.854,1.501,3.354,3.354,3.354c1.851,0,3.351-1.5,3.351-3.354
	C20.918,14.827,19.419,13.325,17.569,13.325z"/>
</svg>
