<?xml version="1.0" encoding="utf-8"?>
<!-- Generator: Adobe Illustrator 15.0.0, SVG Export Plug-In . SVG Version: 6.00 Build 0)  -->
<!DOCTYPE svg PUBLIC "-//W3C//DTD SVG 1.1//EN" "http://www.w3.org/Graphics/SVG/1.1/DTD/svg11.dtd">
<svg version="1.1" id="Calque_1" xmlns="http://www.w3.org/2000/svg" xmlns:xlink="http://www.w3.org/1999/xlink" x="0px" y="0px"
	 width="80px" height="24px" viewBox="0 0 80 24" enable-background="new 0 0 80 24" xml:space="preserve">
<path fill="#2D2D2D" d="M21.675,9.572l-5.239-5.24c-0.337-0.337-0.796-0.425-1.024-0.197L8.407,11.14
	c-0.072,0.072-0.113,0.168-0.124,0.276c-0.007,0.019-0.014,0.038-0.02,0.059l-2.241,8.054c-0.039,0.14-0.027,0.256,0.024,0.337
	c0.051,0.081,0.142,0.127,0.26,0.127c0.047,0,0.099-0.009,0.154-0.022l8.07-2.214c0.037-0.011,0.07-0.022,0.1-0.036
	c0.091-0.018,0.172-0.056,0.236-0.119l7.004-7.002C22.101,10.367,22.013,9.909,21.675,9.572z M9.116,18.783L7.165,17.07l1.383-4.968
	c0.018,0.021,0.038,0.041,0.057,0.061l5.24,5.239c0.022,0.021,0.045,0.045,0.069,0.063L9.116,18.783z"/>
</svg>
