<?xml version="1.0" encoding="utf-8"?>
<!-- Generator: Adobe Illustrator 15.0.2, SVG Export Plug-In . SVG Version: 6.00 Build 0)  -->
<!DOCTYPE svg PUBLIC "-//W3C//DTD SVG 1.1//EN" "http://www.w3.org/Graphics/SVG/1.1/DTD/svg11.dtd">
<svg version="1.1" id="Calque_1" xmlns="http://www.w3.org/2000/svg" xmlns:xlink="http://www.w3.org/1999/xlink" x="0px" y="0px"
	 width="205px" height="205px" viewBox="0 0 205 205" enable-background="new 0 0 205 205" xml:space="preserve">
<g>
	<g>
		<path fill="#FFFBFF" d="M101.909,37.294c-5.23,0.003-10.468,0.386-15.611,1.297c-5.137,0.913-10.167,2.381-14.92,4.397
			c-9.525,4.051-17.698,10.598-23.495,18.75c-5.86,8.133-9.5,17.703-11.612,27.639c-0.519,2.49-0.932,5.006-1.286,7.545
			c-0.349,2.528-0.574,5.086-0.748,7.654c-0.165,2.561-0.234,5.141-0.212,7.714c0.025,2.563,0.141,5.186,0.409,7.671l-1.55-1.307
			c11.5,0.448,23.007,0.7,34.511,0.605c11.501-0.04,23.009-0.335,34.51-0.755l17.262-0.604c5.743-0.168,11.505-0.339,17.246-0.43
			c11.505-0.193,23.009-0.364,34.519-0.487l-3.192,2.709c0.078-0.53,0.148-1.188,0.227-1.799c0.061-0.624,0.123-1.241,0.17-1.876
			c0.107-1.263,0.179-2.526,0.23-3.792c0.101-2.538,0.138-5.078,0.065-7.614c-0.128-5.08-0.634-10.138-1.515-15.108
			c-1.773-9.933-5.348-19.492-11.09-27.666c-2.881-4.066-6.31-7.78-10.272-10.943c-3.935-3.182-8.383-5.806-13.118-7.851
			c-4.747-2.019-9.771-3.485-14.901-4.406C112.379,37.714,107.141,37.319,101.909,37.294z M101.909,36.666
			c5.264-0.018,10.527,0.244,15.769,0.887c5.238,0.645,10.478,1.654,15.568,3.286c5.094,1.605,10.063,3.838,14.651,6.781
			c4.579,2.955,8.764,6.621,12.254,10.89c3.538,4.231,6.344,9.048,8.542,14.082c2.161,5.053,3.739,10.324,4.773,15.674
			c1.061,5.347,1.595,10.765,1.702,16.179c0.052,2.703,0.017,5.417-0.152,8.117c-0.087,1.352-0.195,2.704-0.337,4.057
			c-0.07,0.675-0.151,1.356-0.238,2.034c-0.083,0.702-0.175,1.33-0.306,2.102l-0.015,0.043c-0.263,1.574-1.635,2.679-3.181,2.661
			c-11.507-0.124-23.016-0.293-34.52-0.497c-5.75-0.084-11.507-0.251-17.254-0.419l-17.255-0.611
			c-11.501-0.42-23.007-0.718-34.51-0.745c-11.501-0.088-23.007,0.146-34.512,0.597c-0.748,0.028-1.397-0.491-1.532-1.208
			l-0.018-0.092c-0.516-2.712-0.843-5.32-1.091-7.996c-0.242-2.659-0.389-5.342-0.428-8.014c-0.053-2.681,0.048-5.364,0.228-8.054
			c0.174-2.686,0.502-5.372,0.957-8.035c0.879-5.34,2.325-10.623,4.43-15.67c2.112-5.039,4.877-9.855,8.358-14.114
			c3.456-4.273,7.625-7.946,12.178-10.917c4.579-2.947,9.533-5.184,14.623-6.795c5.095-1.635,10.317-2.649,15.55-3.298
			C91.385,36.946,96.653,36.666,101.909,36.666z"/>
	</g>
	<g>
		<path fill="#FFFBFF" d="M38.019,134.368l16.033-0.156l16.03-0.049l32.063-0.104l32.066,0.104l16.03,0.049l16.034,0.156
			c0.172,0.005,0.31,0.149,0.31,0.31c0,0.157-0.104,0.277-0.248,0.313l-0.051,0.017c-10.692,2.229-21.382,3.33-32.061,4.194
			c-10.688,0.778-21.378,1.145-32.064,1.155c-10.689,0.008-21.379-0.356-32.063-1.139c-10.689-0.85-21.379-1.969-32.064-4.204
			l-0.059-0.012c-0.167-0.042-0.276-0.204-0.238-0.374C37.75,134.471,37.876,134.373,38.019,134.368z"/>
	</g>
	<g>
		<path fill="#FFFBFF" d="M49.209,151.188l13.413-0.147l13.409-0.05l26.813-0.096l26.818,0.096l13.403,0.05l13.41,0.147
			c0.151,0,0.283,0.125,0.277,0.281c0,0.139-0.088,0.248-0.223,0.272l-0.062,0.012c-8.932,2.028-17.88,3.09-26.807,3.812
			c-8.936,0.777-17.883,1.07-26.818,1.088c-8.934-0.004-17.875-0.298-26.813-1.074c-8.941-0.717-17.878-1.783-26.818-3.816
			l-0.058-0.017c-0.153-0.036-0.246-0.185-0.213-0.334C48.964,151.276,49.084,151.188,49.209,151.188z"/>
	</g>
	<g>
		<path fill="#FFFBFF" d="M59.206,161.492c0.931,0.367,1.837,0.752,2.772,1.088c0.913,0.36,1.818,0.714,2.733,1.036
			c1.837,0.643,3.633,1.297,5.443,1.872c3.611,1.181,7.187,2.214,10.763,3.052c7.143,1.702,14.259,2.627,21.352,2.659
			c7.104,0.032,14.178-0.857,21.286-2.614c7.138-1.701,14.214-4.322,21.771-7.104l0.082-0.024c0.159-0.064,0.335,0.021,0.386,0.182
			c0.05,0.128,0.004,0.272-0.096,0.353c-3.12,2.343-6.382,4.509-9.78,6.432c-3.412,1.896-6.971,3.542-10.646,4.896
			c-7.342,2.713-15.172,4.17-23.021,4.173c-7.857-0.052-15.662-1.546-23.025-4.198c-7.358-2.655-14.347-6.373-20.431-11.32
			c-0.131-0.108-0.149-0.303-0.046-0.435c0.085-0.108,0.228-0.145,0.348-0.089L59.206,161.492z"/>
	</g>
	<g>
		<path fill="#FFFBFF" d="M59.061,120.229h-9.095c0-54.442,29.851-65.363,31.12-65.804l2.962,8.6l-1.483-4.298l1.524,4.284
			C83.07,63.384,59.061,72.713,59.061,120.229z"/>
	</g>
	<g>
		<path fill="#FFFBFF" d="M93.691,66.246c0,0,7.868,4.719,8.218,5.596c0.347,0.875,0.932-4.372,0.932-4.372l0.818,4.467
			c0,0,5.423,6.372,5.423,7.601c0,1.221,1.224-4.55,1.224-4.55s1.048,12.764,4.896,16.087c0,0,8.223-16.792-7.006-33.23
			c0,0,3.336-0.872,10.674,2.272l1.046-2.384l0.873,3.089c0,0,6.996,4.718,8.219,6.646c0,0-10.115-24.25-18.949-25.827
			c0,0,2.34-3.497,21.464,6.76c0,0-22.217-26.584-45.709-13.058c0,0-21.687-7.056-37.463,21.774c0,0,6.157-10.291,20.672-7.664
			c0,0-6.822,0.175-14.516,10.842c-3.206,4.44-3.323,19.41-3.323,19.41s4.433-7.693,7.813-8.915v-3.148l1.632,1.925
			C60.637,69.567,73.756,56.626,93.691,66.246z"/>
	</g>
	<g>
		<circle fill="#FFFBFF" cx="88.165" cy="64.323" r="5.595"/>
	</g>
</g>
</svg>
