<?xml version="1.0" encoding="utf-8"?>
<!-- Generator: Adobe Illustrator 15.0.2, SVG Export Plug-In . SVG Version: 6.00 Build 0)  -->
<!DOCTYPE svg PUBLIC "-//W3C//DTD SVG 1.1//EN" "http://www.w3.org/Graphics/SVG/1.1/DTD/svg11.dtd">
<svg version="1.1" id="Calque_1" xmlns="http://www.w3.org/2000/svg" xmlns:xlink="http://www.w3.org/1999/xlink" x="0px" y="0px"
	 width="248.562px" height="242px" viewBox="0.167 0 248.562 242" enable-background="new 0.167 0 248.562 242"
	 xml:space="preserve">
<g>
	<linearGradient id="SVGID_1_" gradientUnits="userSpaceOnUse" x1="124.4473" y1="242" x2="124.4473" y2="4.882813e-004">
		<stop  offset="0" style="stop-color:#614161"/>
		<stop  offset="1" style="stop-color:#542954"/>
	</linearGradient>
	<rect x="0.167" fill="url(#SVGID_1_)" width="248.562" height="242"/>
</g>
<g>
	<g opacity="0.1">
		<g>
			<polygon fill="#542954" points="-379.689,-175.426 -383.225,-178.961 -756.725,194.539 -1130.225,568.035 -1126.689,571.572 
				-753.189,198.074 			"/>
			<polygon fill="#542954" points="-386.76,-182.496 -390.295,-186.031 -763.795,187.469 -1137.295,560.969 -1133.76,564.504 
				-760.26,191.004 			"/>
			<polygon fill="#542954" points="-372.619,-168.355 -376.154,-171.891 -749.654,201.609 -1123.154,575.109 -1119.619,578.645 
				-746.119,205.145 			"/>
			<polygon fill="#542954" points="-358.479,-154.215 -362.014,-157.75 -735.514,215.75 -1109.014,589.25 -1105.479,592.781 
				-731.979,219.285 			"/>
			<polygon fill="#542954" points="-365.549,-161.285 -369.084,-164.82 -742.584,208.68 -1116.084,582.18 -1112.549,585.715 
				-739.049,212.215 			"/>
			<polygon fill="#542954" points="-354.943,-150.68 -728.443,222.82 -1101.943,596.32 -1098.408,599.855 -724.908,226.355 
				-351.408,-147.145 			"/>
		</g>
		<g>
			<polygon fill="#542954" points="-464.689,-175.426 -468.225,-178.961 -841.725,194.539 -1215.225,568.035 -1211.689,571.572 
				-838.189,198.074 			"/>
			<polygon fill="#542954" points="-471.76,-182.496 -475.295,-186.031 -848.795,187.469 -1222.295,560.969 -1218.76,564.504 
				-845.26,191.004 			"/>
			<polygon fill="#542954" points="-457.619,-168.355 -461.154,-171.891 -834.654,201.609 -1208.154,575.109 -1204.619,578.645 
				-831.119,205.145 			"/>
			<polygon fill="#542954" points="-443.479,-154.215 -447.014,-157.75 -820.514,215.75 -1194.014,589.25 -1190.479,592.781 
				-816.979,219.285 			"/>
			<polygon fill="#542954" points="-450.549,-161.285 -454.084,-164.82 -827.584,208.68 -1201.084,582.18 -1197.549,585.715 
				-824.049,212.215 			"/>
			<polygon fill="#542954" points="-439.943,-150.68 -813.443,222.82 -1186.943,596.32 -1183.408,599.855 -809.908,226.355 
				-436.408,-147.145 			"/>
		</g>
	</g>
	<g opacity="0.1">
		<g>
			<polygon fill="#542954" points="-214.689,-170.426 -218.224,-173.961 -591.725,199.539 -965.225,573.035 -961.689,576.572 
				-588.189,203.074 			"/>
			<polygon fill="#542954" points="-221.759,-177.496 -225.294,-181.031 -598.795,192.469 -972.295,565.969 -968.76,569.504 
				-595.26,196.004 			"/>
			<polygon fill="#542954" points="-207.619,-163.355 -211.154,-166.891 -584.654,206.609 -958.154,580.109 -954.619,583.645 
				-581.119,210.145 			"/>
			<polygon fill="#542954" points="-193.478,-149.215 -197.013,-152.75 -570.514,220.75 -944.014,594.25 -940.479,597.781 
				-566.979,224.285 			"/>
			<polygon fill="#542954" points="-200.548,-156.285 -204.083,-159.82 -577.584,213.68 -951.084,587.18 -947.549,590.715 
				-574.049,217.215 			"/>
			<polygon fill="#542954" points="-189.943,-145.68 -563.443,227.82 -936.943,601.32 -933.408,604.855 -559.908,231.355 
				-186.408,-142.145 			"/>
		</g>
		<g>
			<polygon fill="#542954" points="-299.689,-170.426 -303.225,-173.961 -676.725,199.539 -1050.225,573.035 -1046.689,576.572 
				-673.189,203.074 			"/>
			<polygon fill="#542954" points="-306.76,-177.496 -310.295,-181.031 -683.795,192.469 -1057.295,565.969 -1053.76,569.504 
				-680.26,196.004 			"/>
			<polygon fill="#542954" points="-292.619,-163.355 -296.154,-166.891 -669.654,206.609 -1043.154,580.109 -1039.619,583.645 
				-666.119,210.145 			"/>
			<polygon fill="#542954" points="-278.479,-149.215 -282.014,-152.75 -655.514,220.75 -1029.014,594.25 -1025.479,597.781 
				-651.979,224.285 			"/>
			<polygon fill="#542954" points="-285.549,-156.285 -289.084,-159.82 -662.584,213.68 -1036.084,587.18 -1032.549,590.715 
				-659.049,217.215 			"/>
			<polygon fill="#542954" points="-274.943,-145.68 -648.443,227.82 -1021.943,601.32 -1018.408,604.855 -644.908,231.355 
				-271.408,-142.145 			"/>
		</g>
	</g>
	<g opacity="0.1">
		<g>
			<polygon fill="#542954" points="-39.689,-175.426 -43.224,-178.961 -416.725,194.539 -790.225,568.035 -786.689,571.572 
				-413.189,198.074 			"/>
			<polygon fill="#542954" points="-46.759,-182.496 -50.294,-186.031 -423.795,187.469 -797.295,560.969 -793.76,564.504 
				-420.26,191.004 			"/>
			<polygon fill="#542954" points="-32.619,-168.355 -36.154,-171.891 -409.654,201.609 -783.154,575.109 -779.619,578.645 
				-406.119,205.145 			"/>
			<polygon fill="#542954" points="-18.478,-154.215 -22.013,-157.75 -395.514,215.75 -769.014,589.25 -765.479,592.781 
				-391.979,219.285 			"/>
			<polygon fill="#542954" points="-25.548,-161.285 -29.083,-164.82 -402.584,208.68 -776.084,582.18 -772.549,585.715 
				-399.049,212.215 			"/>
			<polygon fill="#542954" points="-14.943,-150.68 -388.443,222.82 -761.943,596.32 -758.408,599.855 -384.908,226.355 
				-11.408,-147.145 			"/>
		</g>
		<g>
			<polygon fill="#542954" points="-124.689,-175.426 -128.224,-178.961 -501.725,194.539 -875.225,568.035 -871.689,571.572 
				-498.189,198.074 			"/>
			<polygon fill="#542954" points="-131.759,-182.496 -135.294,-186.031 -508.795,187.469 -882.295,560.969 -878.76,564.504 
				-505.26,191.004 			"/>
			<polygon fill="#542954" points="-117.619,-168.355 -121.154,-171.891 -494.654,201.609 -868.154,575.109 -864.619,578.645 
				-491.119,205.145 			"/>
			<polygon fill="#542954" points="-103.478,-154.215 -107.013,-157.75 -480.514,215.75 -854.014,589.25 -850.479,592.781 
				-476.979,219.285 			"/>
			<polygon fill="#542954" points="-110.548,-161.285 -114.083,-164.82 -487.584,208.68 -861.084,582.18 -857.549,585.715 
				-484.049,212.215 			"/>
			<polygon fill="#542954" points="-99.943,-150.68 -473.443,222.82 -846.943,596.32 -843.408,599.855 -469.908,226.355 
				-96.408,-147.145 			"/>
		</g>
	</g>
	<g opacity="0.1">
		<g>
			<polygon fill="#542954" points="125.311,-170.426 121.776,-173.961 -251.725,199.539 -625.225,573.035 -621.689,576.572 
				-248.189,203.074 			"/>
			<polygon fill="#542954" points="118.241,-177.496 114.706,-181.031 -258.795,192.469 -632.295,565.969 -628.76,569.504 
				-255.26,196.004 			"/>
			<polygon fill="#542954" points="132.381,-163.355 128.846,-166.891 -244.654,206.609 -618.154,580.109 -614.619,583.645 
				-241.119,210.145 			"/>
			<polygon fill="#542954" points="146.522,-149.215 142.987,-152.75 -230.513,220.75 -604.014,594.25 -600.479,597.781 
				-226.978,224.285 			"/>
			<polygon fill="#542954" points="139.452,-156.285 135.917,-159.82 -237.583,213.68 -611.084,587.18 -607.549,590.715 
				-234.048,217.215 			"/>
			<polygon fill="#542954" points="150.057,-145.68 -223.443,227.82 -596.943,601.32 -593.408,604.855 -219.908,231.355 
				153.592,-142.145 			"/>
		</g>
		<g>
			<polygon fill="#542954" points="40.311,-170.426 36.776,-173.961 -336.725,199.539 -710.225,573.035 -706.689,576.572 
				-333.189,203.074 			"/>
			<polygon fill="#542954" points="33.241,-177.496 29.706,-181.031 -343.795,192.469 -717.295,565.969 -713.76,569.504 
				-340.26,196.004 			"/>
			<polygon fill="#542954" points="47.381,-163.355 43.846,-166.891 -329.654,206.609 -703.154,580.109 -699.619,583.645 
				-326.119,210.145 			"/>
			<polygon fill="#542954" points="61.522,-149.215 57.987,-152.75 -315.514,220.75 -689.014,594.25 -685.479,597.781 
				-311.979,224.285 			"/>
			<polygon fill="#542954" points="54.452,-156.285 50.917,-159.82 -322.584,213.68 -696.084,587.18 -692.549,590.715 
				-319.049,217.215 			"/>
			<polygon fill="#542954" points="65.057,-145.68 -308.443,227.82 -681.943,601.32 -678.408,604.855 -304.908,231.355 
				68.592,-142.145 			"/>
		</g>
	</g>
	<g opacity="0.1">
		<g>
			<polygon fill="#542954" points="299.311,-175.426 295.776,-178.961 -77.724,194.539 -451.225,568.035 -447.689,571.572 
				-74.189,198.074 			"/>
			<polygon fill="#542954" points="292.241,-182.496 288.706,-186.031 -84.794,187.469 -458.295,560.969 -454.76,564.504 
				-81.259,191.004 			"/>
			<polygon fill="#542954" points="306.381,-168.355 302.846,-171.891 -70.654,201.609 -444.154,575.109 -440.619,578.645 
				-67.119,205.145 			"/>
			<polygon fill="#542954" points="320.522,-154.215 316.987,-157.75 -56.513,215.75 -430.014,589.25 -426.479,592.781 
				-52.978,219.285 			"/>
			<polygon fill="#542954" points="313.452,-161.285 309.917,-164.82 -63.583,208.68 -437.084,582.18 -433.549,585.715 
				-60.048,212.215 			"/>
			<polygon fill="#542954" points="324.057,-150.68 -49.443,222.82 -422.943,596.32 -419.408,599.855 -45.908,226.355 
				327.592,-147.145 			"/>
		</g>
		<g>
			<polygon fill="#542954" points="214.311,-175.426 210.776,-178.961 -162.724,194.539 -536.225,568.035 -532.689,571.572 
				-159.189,198.074 			"/>
			<polygon fill="#542954" points="207.241,-182.496 203.706,-186.031 -169.794,187.469 -543.295,560.969 -539.76,564.504 
				-166.259,191.004 			"/>
			<polygon fill="#542954" points="221.381,-168.355 217.846,-171.891 -155.654,201.609 -529.154,575.109 -525.619,578.645 
				-152.119,205.145 			"/>
			<polygon fill="#542954" points="235.522,-154.215 231.987,-157.75 -141.513,215.75 -515.014,589.25 -511.479,592.781 
				-137.978,219.285 			"/>
			<polygon fill="#542954" points="228.452,-161.285 224.917,-164.82 -148.583,208.68 -522.084,582.18 -518.549,585.715 
				-145.048,212.215 			"/>
			<polygon fill="#542954" points="239.057,-150.68 -134.443,222.82 -507.943,596.32 -504.408,599.855 -130.908,226.355 
				242.592,-147.145 			"/>
		</g>
	</g>
	<g opacity="0.1">
		<g>
			<polygon fill="#542954" points="464.311,-170.426 460.776,-173.961 87.276,199.539 -286.225,573.035 -282.689,576.572 
				90.811,203.074 			"/>
			<polygon fill="#542954" points="457.241,-177.496 453.707,-181.031 80.206,192.469 -293.295,565.969 -289.76,569.504 
				83.741,196.004 			"/>
			<polygon fill="#542954" points="471.381,-163.355 467.846,-166.891 94.346,206.609 -279.154,580.109 -275.619,583.645 
				97.881,210.145 			"/>
			<polygon fill="#542954" points="485.522,-149.215 481.987,-152.75 108.487,220.75 -265.014,594.25 -261.479,597.781 
				112.022,224.285 			"/>
			<polygon fill="#542954" points="478.452,-156.285 474.917,-159.82 101.417,213.68 -272.084,587.18 -268.549,590.715 
				104.952,217.215 			"/>
			<polygon fill="#542954" points="489.057,-145.68 115.557,227.82 -257.943,601.32 -254.408,604.855 119.092,231.355 
				492.592,-142.145 			"/>
		</g>
		<g>
			<polygon fill="#542954" points="379.311,-170.426 375.776,-173.961 2.276,199.539 -371.225,573.035 -367.689,576.572 
				5.811,203.074 			"/>
			<polygon fill="#542954" points="372.241,-177.496 368.706,-181.031 -4.794,192.469 -378.295,565.969 -374.76,569.504 
				-1.259,196.004 			"/>
			<polygon fill="#542954" points="386.381,-163.355 382.846,-166.891 9.346,206.609 -364.154,580.109 -360.619,583.645 
				12.881,210.145 			"/>
			<polygon fill="#542954" points="400.522,-149.215 396.987,-152.75 23.487,220.75 -350.014,594.25 -346.479,597.781 
				27.022,224.285 			"/>
			<polygon fill="#542954" points="393.452,-156.285 389.917,-159.82 16.417,213.68 -357.084,587.18 -353.549,590.715 
				19.952,217.215 			"/>
			<polygon fill="#542954" points="404.057,-145.68 30.557,227.82 -342.943,601.32 -339.408,604.855 34.092,231.355 
				407.592,-142.145 			"/>
		</g>
	</g>
	<g opacity="0.1">
		<g>
			<polygon fill="#542954" points="639.311,-175.426 635.775,-178.961 262.276,194.539 -111.224,568.035 -107.689,571.572 
				265.811,198.074 			"/>
			<polygon fill="#542954" points="632.24,-182.496 628.707,-186.031 255.206,187.469 -118.294,560.969 -114.759,564.504 
				258.741,191.004 			"/>
			<polygon fill="#542954" points="646.381,-168.355 642.846,-171.891 269.346,201.609 -104.154,575.109 -100.619,578.645 
				272.881,205.145 			"/>
			<polygon fill="#542954" points="660.521,-154.215 656.986,-157.75 283.487,215.75 -90.013,589.25 -86.478,592.781 
				287.022,219.285 			"/>
			<polygon fill="#542954" points="653.451,-161.285 649.918,-164.82 276.417,208.68 -97.083,582.18 -93.548,585.715 
				279.952,212.215 			"/>
			<polygon fill="#542954" points="664.057,-150.68 290.557,222.82 -82.943,596.32 -79.408,599.855 294.092,226.355 
				667.592,-147.145 			"/>
		</g>
		<g>
			<polygon fill="#542954" points="554.311,-175.426 550.775,-178.961 177.276,194.539 -196.224,568.035 -192.689,571.572 
				180.811,198.074 			"/>
			<polygon fill="#542954" points="547.24,-182.496 543.707,-186.031 170.206,187.469 -203.294,560.969 -199.759,564.504 
				173.741,191.004 			"/>
			<polygon fill="#542954" points="561.381,-168.355 557.846,-171.891 184.346,201.609 -189.154,575.109 -185.619,578.645 
				187.881,205.145 			"/>
			<polygon fill="#542954" points="575.521,-154.215 571.986,-157.75 198.487,215.75 -175.013,589.25 -171.478,592.781 
				202.022,219.285 			"/>
			<polygon fill="#542954" points="568.451,-161.285 564.918,-164.82 191.417,208.68 -182.083,582.18 -178.548,585.715 
				194.952,212.215 			"/>
			<polygon fill="#542954" points="579.057,-150.68 205.557,222.82 -167.943,596.32 -164.408,599.855 209.092,226.355 
				582.592,-147.145 			"/>
		</g>
	</g>
	<g opacity="0.1">
		<g>
			<polygon fill="#542954" points="804.311,-170.426 800.775,-173.961 427.276,199.539 53.776,573.035 57.311,576.572 
				430.811,203.074 			"/>
			<polygon fill="#542954" points="797.24,-177.496 793.707,-181.031 420.207,192.469 46.706,565.969 50.241,569.504 
				423.741,196.004 			"/>
			<polygon fill="#542954" points="811.381,-163.355 807.846,-166.891 434.346,206.609 60.846,580.109 64.381,583.645 
				437.881,210.145 			"/>
			<polygon fill="#542954" points="825.521,-149.215 821.986,-152.75 448.487,220.75 74.987,594.25 78.522,597.781 452.022,224.285 
							"/>
			<polygon fill="#542954" points="818.451,-156.285 814.918,-159.82 441.417,213.68 67.917,587.18 71.452,590.715 444.952,217.215 
							"/>
			<polygon fill="#542954" points="829.057,-145.68 455.557,227.82 82.057,601.32 85.592,604.855 459.092,231.355 832.592,-142.145 
							"/>
		</g>
		<g>
			<polygon fill="#542954" points="719.311,-170.426 715.775,-173.961 342.276,199.539 -31.224,573.035 -27.689,576.572 
				345.811,203.074 			"/>
			<polygon fill="#542954" points="712.24,-177.496 708.707,-181.031 335.206,192.469 -38.294,565.969 -34.759,569.504 
				338.741,196.004 			"/>
			<polygon fill="#542954" points="726.381,-163.355 722.846,-166.891 349.346,206.609 -24.154,580.109 -20.619,583.645 
				352.881,210.145 			"/>
			<polygon fill="#542954" points="740.521,-149.215 736.986,-152.75 363.487,220.75 -10.013,594.25 -6.478,597.781 
				367.022,224.285 			"/>
			<polygon fill="#542954" points="733.451,-156.285 729.918,-159.82 356.417,213.68 -17.083,587.18 -13.548,590.715 
				359.952,217.215 			"/>
			<polygon fill="#542954" points="744.057,-145.68 370.557,227.82 -2.943,601.32 0.592,604.855 374.092,231.355 747.592,-142.145 
							"/>
		</g>
	</g>
</g>
</svg>
