<?xml version="1.0" encoding="utf-8"?>
<!-- Generator: Adobe Illustrator 15.0.0, SVG Export Plug-In . SVG Version: 6.00 Build 0)  -->
<!DOCTYPE svg PUBLIC "-//W3C//DTD SVG 1.1//EN" "http://www.w3.org/Graphics/SVG/1.1/DTD/svg11.dtd">
<svg version="1.1" id="Calque_1" xmlns="http://www.w3.org/2000/svg" xmlns:xlink="http://www.w3.org/1999/xlink" x="0px" y="0px"
	 width="980px" height="132px" viewBox="0 0 980 132" enable-background="new 0 0 980 132" xml:space="preserve">
<path fill="#542954" d="M976.966,55.501H3.035c-1.399,0-2.537-1.137-2.537-2.537V3.033c0-1.397,1.138-2.534,2.537-2.534h973.931
	c1.396,0,2.534,1.137,2.534,2.534v49.931C979.5,54.364,978.362,55.501,976.966,55.501L976.966,55.501z"/>
<linearGradient id="SVGID_1_" gradientUnits="userSpaceOnUse" x1="870.959" y1="-208.0996" x2="870.959" y2="-153.0986" gradientTransform="matrix(1 0 0 -1 -380.96 -152.5996)">
	<stop  offset="0" style="stop-color:#000000;stop-opacity:0.2"/>
	<stop  offset="1" style="stop-color:#000000;stop-opacity:0"/>
</linearGradient>
<path fill="url(#SVGID_1_)" d="M976.966,55.5H3.035c-1.399,0-2.537-1.137-2.537-2.537V3.033c0-1.397,1.138-2.534,2.537-2.534
	h973.931c1.396,0,2.534,1.137,2.534,2.534v49.93C979.5,54.364,978.362,55.5,976.966,55.5L976.966,55.5z"/>
<rect x="-9.362" y="1" opacity="0.5" fill="#FFFFFF" width="977.801" height="1.333"/>
<g>
	<path fill="#C0C0C0" d="M976.965,0C978.642,0,980,1.357,980,3.034v49.931c0,1.677-1.358,3.035-3.035,3.035H3.036
		C1.359,56,0,54.642,0,52.965V3.034C0,1.357,1.359,0,3.036,0H976.965 M976.965,1H3.036C1.913,1,1,1.913,1,3.034v49.931
		C1,54.087,1.913,55,3.036,55h973.929c1.122,0,2.035-0.913,2.035-2.035V3.034C979,1.913,978.087,1,976.965,1L976.965,1z"/>
</g>
</svg>
