<?xml version="1.0" encoding="utf-8"?>
<!-- Generator: Adobe Illustrator 15.0.2, SVG Export Plug-In . SVG Version: 6.00 Build 0)  -->
<!DOCTYPE svg PUBLIC "-//W3C//DTD SVG 1.1//EN" "http://www.w3.org/Graphics/SVG/1.1/DTD/svg11.dtd">
<svg version="1.1" id="Calque_1" xmlns="http://www.w3.org/2000/svg" xmlns:xlink="http://www.w3.org/1999/xlink" x="0px" y="0px"
	 width="2500px" height="476px" viewBox="0 -37.743 2500 476" enable-background="new 0 -37.743 2500 476" xml:space="preserve">
<circle display="none" fill="#FFB844" cx="713.166" cy="104.667" r="104.667"/>
<g display="none">
	<g display="inline">
		<g>
			<path fill="#F01B57" d="M669.391,335.721c-5.303,0-9.604-4.301-9.604-9.604v-87.37c0-5.31,4.303-9.604,9.604-9.604
				c5.307,0,9.604,4.299,9.604,9.604v87.37C678.992,331.42,674.694,335.721,669.391,335.721z"/>
		</g>
		<g>
			<path fill="#F01B57" d="M663.929,244.016c-17.172,0-20.036-9.746-21.275-24.619c-1.237-14.771,0.699-108.337,0.753-112.313
				c0.021-1.561,1.275-2.765,2.857-2.787c1.563,0.021,2.813,1.3,2.789,2.855c-0.016,0.974-0.557,97.175,0.658,111.681
				c1.229,14.688,3.584,15.815,15.815,15.815c1.563,0,1.226,4.981,1.226,6.545C666.752,242.752,665.489,244.016,663.929,244.016z"/>
		</g>
		<g>
			<path fill="#F01B57" d="M672.31,250.607c-1.104,0-2.146-0.646-2.604-1.729c-0.604-1.438,1.199-6.481,2.637-7.09
				c-0.692,0.295,11.924-9.539,11.296-8.731c2.059-2.646,4.036-17.681,3.646-30.095l-0.002-0.086l0.002-0.085L691.8,83.313
				c0.044-1.561,1.376-2.768,2.901-2.742c1.562,0.043,2.786,1.347,2.742,2.902l-3.39,119.396c0.208,6.635,0.526,29.346-3.702,34.788
				c-4.282,5.506-15.783,12.239-16.95,12.729C673.045,250.537,672.676,250.607,672.31,250.607z"/>
		</g>
		<g>
			<path fill="#F01B57" d="M673.908,238.744c-1.563,0-2.822-1.27-2.822-2.826v-34.271c0-1.562,1.264-2.825,2.822-2.825
				c4.443,0,4.707-8.063,4.708-8.146l1.13-122.539c0-1.561,0.137-2.824,1.694-2.824c1.562,0,1.692,1.267,1.692,2.824l1.131,122.587
				c-0.069,4.166-1.803,11.5-7.53,13.326v31.867C676.736,237.48,675.47,238.744,673.908,238.744z"/>
		</g>
		<g>
			<line fill="none" x1="672.875" y1="125.055" x2="672.875" y2="241.709"/>
			<path fill="#F01B57" d="M672.875,243.971c-1.248,0-2.263-1.014-2.263-2.26l1.129-116.653c0-1.25-0.114-2.262,1.134-2.262
				c1.244,0,1.129,1.012,1.129,2.262l1.129,116.653C675.133,242.957,674.119,243.971,672.875,243.971z"/>
		</g>
		<g>
			<line fill="none" x1="665.653" y1="50.063" x2="665.653" y2="243.828"/>
			<path fill="#F01B57" d="M665.653,247.219c-1.872,0-3.392-1.518-3.392-3.391l1.13-193.768c0-1.873,0.391-3.391,2.263-3.391
				c1.873,0,2.26,1.519,2.26,3.391l1.132,193.768C669.044,245.701,667.527,247.219,665.653,247.219z"/>
		</g>
		<g>
			<path fill="#F01B57" d="M664.541,235.777c-8.636,0-8.727-5.715-8.897-12.236v-47.924c0-0.938,0.761-1.693,1.695-1.693
				c0.938,0,1.692,0.759,1.692,1.693l1.129,47.879c0.006,0.041,0.325,7.766,5.512,7.766c0.938,0,0.563,1.891,0.563,2.826
				C666.237,235.02,665.479,235.777,664.541,235.777z"/>
		</g>
	</g>
	<g display="inline">
		<g>
			<path fill="#F01B57" d="M1453.166,352.887c-5.951,0-10.78-4.299-10.78-9.604V255.91c0-5.305,4.826-9.604,10.78-9.604
				c5.957,0,10.78,4.301,10.78,9.604v87.372C1463.948,348.588,1459.123,352.887,1453.166,352.887z"/>
		</g>
		<g>
			<path fill="#F01B57" d="M1447.032,261.184c-19.277,0-22.494-9.748-23.896-24.621c-1.393-14.771,0.788-108.335,0.851-112.313
				c0.021-1.563,1.438-2.765,3.212-2.789c1.752,0.021,3.15,1.299,3.132,2.857c-0.014,0.974-0.618,97.17,0.741,111.681
				c1.379,14.688,4.021,15.813,17.761,15.813c1.75,0,1.373,4.981,1.373,6.545C1450.202,259.922,1448.783,261.184,1447.032,261.184z"
				/>
		</g>
		<g>
			<path fill="#F01B57" d="M1456.445,267.777c-1.238,0-2.413-0.646-2.927-1.729c-0.684-1.438,1.348-6.481,2.957-7.09
				c-0.772,0.293,13.395-9.541,12.688-8.733c2.313-2.644,4.529-17.679,4.094-30.095l-0.008-0.084l0.008-0.086l5.07-119.48
				c0.049-1.56,1.544-2.767,3.264-2.742c1.75,0.047,3.13,1.347,3.082,2.902l-3.807,119.396c0.229,6.635,0.594,29.346-4.158,34.787
				c-4.808,5.506-17.721,12.237-19.029,12.729C1457.271,267.703,1456.854,267.777,1456.445,267.777z"/>
		</g>
		<g>
			<path fill="#F01B57" d="M1458.239,255.91c-1.753,0-3.173-1.268-3.173-2.822v-34.271c0-1.561,1.42-2.818,3.173-2.818
				c4.983,0,5.286-8.065,5.288-8.148l1.267-122.536c0-1.562,0.153-2.826,1.904-2.826c1.752,0,1.9,1.266,1.9,2.826l1.271,122.586
				c-0.082,4.167-2.021,11.5-8.459,13.327v31.865C1461.409,254.648,1459.99,255.91,1458.239,255.91z"/>
		</g>
		<g>
			<line fill="none" x1="1457.077" y1="142.223" x2="1457.077" y2="258.879"/>
			<path fill="#F01B57" d="M1457.077,261.139c-1.399,0-2.536-1.014-2.536-2.262l1.271-116.654c0-1.248-0.135-2.261,1.269-2.261
				c1.404,0,1.271,1.012,1.271,2.261l1.271,116.654C1459.615,260.125,1458.479,261.139,1457.077,261.139z"/>
		</g>
		<g>
			<line fill="none" x1="1448.972" y1="67.23" x2="1448.972" y2="260.996"/>
			<path fill="#F01B57" d="M1448.972,264.387c-2.104,0-3.806-1.518-3.806-3.389l1.269-193.769c0-1.872,0.438-3.389,2.537-3.389
				c2.104,0,2.537,1.518,2.537,3.389l1.27,193.769C1452.778,262.869,1451.073,264.387,1448.972,264.387z"/>
		</g>
		<g>
			<path fill="#F01B57" d="M1447.722,252.948c-9.689,0-9.793-5.716-9.986-12.239v-47.921c0-0.938,0.854-1.696,1.898-1.696
				c1.057,0,1.905,0.761,1.905,1.696l1.268,47.876c0.002,0.041,0.364,7.768,6.188,7.768c1.049,0,0.638,1.889,0.638,2.824
				C1449.627,252.188,1448.772,252.948,1447.722,252.948z"/>
		</g>
	</g>
	<g display="inline">
		<g>
			<path fill="#F01B57" d="M1867.183,371.948c-5.146,0-9.312-3.712-9.312-8.289v-75.405c0-4.578,4.166-8.287,9.312-8.287
				c5.141,0,9.306,3.709,9.306,8.287v75.405C1876.484,368.239,1872.319,371.948,1867.183,371.948z"/>
		</g>
		<g>
			<path fill="#F01B57" d="M1861.887,292.803c-16.645,0-19.414-8.412-20.619-21.25c-1.193-12.752,0.688-93.5,0.732-96.932
				c0.021-1.349,1.233-2.386,2.768-2.407c1.521,0.02,2.729,1.122,2.703,2.47c-0.01,0.837-0.536,83.862,0.645,96.38
				c1.188,12.684,3.471,13.648,15.321,13.648c1.517,0,1.188,4.305,1.188,5.646C1864.625,291.715,1863.396,292.803,1861.887,292.803z
				"/>
		</g>
		<g>
			<path fill="#F01B57" d="M1870.011,298.49c-1.064,0-2.084-0.563-2.521-1.489c-0.589-1.242,1.16-5.601,2.55-6.117
				c-0.67,0.248,11.557-8.235,10.948-7.543c1.989-2.276,3.905-15.254,3.524-25.969l-0.002-0.072l0.002-0.071l4.383-103.118
				c0.043-1.347,1.332-2.386,2.814-2.365c1.511,0.034,2.695,1.158,2.66,2.507l-3.286,103.042c0.198,5.727,0.51,25.328-3.587,30.021
				c-4.152,4.752-15.298,10.563-16.43,10.983C1870.723,298.432,1870.361,298.49,1870.011,298.49z"/>
		</g>
		<g>
			<path fill="#F01B57" d="M1871.557,288.252c-1.511,0-2.731-1.09-2.731-2.438v-29.578c0-1.346,1.228-2.438,2.731-2.438
				c4.312,0,4.563-6.961,4.563-7.028l1.099-105.754c0-1.347,0.129-2.438,1.646-2.438c1.51,0,1.645,1.091,1.645,2.438l1.091,105.793
				c-0.066,3.604-1.743,9.932-7.298,11.506v27.502C1874.296,287.162,1873.07,288.252,1871.557,288.252z"/>
		</g>
		<g>
			<line fill="none" x1="1870.556" y1="190.135" x2="1870.556" y2="290.813"/>
			<path fill="#F01B57" d="M1870.556,292.762c-1.211,0-2.188-0.873-2.188-1.949l1.1-100.679c0-1.075-0.114-1.949,1.095-1.949
				c1.213,0,1.099,0.873,1.099,1.949l1.098,100.679C1872.748,291.889,1871.763,292.762,1870.556,292.762z"/>
		</g>
		<g>
			<line fill="none" x1="1863.559" y1="125.414" x2="1863.559" y2="292.641"/>
			<path fill="#F01B57" d="M1863.559,295.566c-1.813,0-3.28-1.313-3.28-2.926l1.091-167.229c0-1.617,0.376-2.928,2.188-2.928
				s2.188,1.312,2.188,2.928l1.1,167.229C1866.841,294.256,1865.366,295.566,1863.559,295.566z"/>
		</g>
		<g>
			<path fill="#F01B57" d="M1862.479,285.693c-8.366,0-8.452-4.934-8.619-10.563v-41.356c0-0.81,0.73-1.463,1.638-1.463
				c0.908,0,1.646,0.653,1.646,1.463l1.099,41.317c0.002,0.033,0.313,6.703,5.337,6.703c0.907,0,0.548,1.631,0.548,2.438
				C1864.125,285.04,1863.386,285.693,1862.479,285.693z"/>
		</g>
	</g>
	<g display="inline">
		<g>
			<path fill="#F01B57" d="M1956.948,407.906c8.229,0,14.896-5.94,14.896-13.271V273.92c0-7.328-6.668-13.271-14.896-13.271
				c-8.228,0-14.896,5.939-14.896,13.271v120.717C1942.05,401.965,1948.722,407.906,1956.948,407.906z"/>
		</g>
		<g>
			<path fill="#F01B57" d="M1961.034,277.303c0-2.154-0.521-9.039,1.899-9.039c18.979,0,22.637-1.557,24.539-21.854
				c1.881-20.039,1.041-152.95,1.021-154.292c-0.032-2.155,1.9-3.927,4.32-3.951c2.457,0.033,4.401,1.695,4.438,3.852
				c0.074,5.491,3.088,134.76,1.171,155.17c-1.934,20.549-6.372,34.021-33.013,34.021
				C1963,281.209,1961.034,279.459,1961.034,277.303z"/>
		</g>
		<g>
			<path fill="#F01B57" d="M1952.416,290.313c1.714,0,3.336-0.896,4.041-2.391c0.939-1.984-1.859-8.959-4.088-9.793
				c1.072,0.398-18.498-13.188-17.523-12.07c-3.188-3.649-6.26-24.424-5.649-41.574l0.007-0.113l-0.007-0.115l-7.012-165.071
				c-0.066-2.154-2.136-3.823-4.502-3.791c-2.421,0.063-4.321,1.858-4.259,4.013l5.257,164.958
				c-0.313,9.164-0.814,40.546,5.741,48.063c6.646,7.604,24.483,16.91,26.299,17.59
				C1951.272,290.213,1951.854,290.313,1952.416,290.313z"/>
		</g>
		<g>
			<path fill="#F01B57" d="M1949.941,273.922c2.411,0,4.38-1.75,4.38-3.902v-47.35c0-2.156-1.966-3.902-4.38-3.902
				c-6.896,0-7.305-11.143-7.309-11.251l-1.754-169.301c0-2.157-0.21-3.903-2.632-3.903c-2.418,0-2.63,1.747-2.63,3.903
				l-1.751,169.366c0.112,5.757,2.794,15.888,11.688,18.405v44.027C1945.559,272.172,1947.519,273.922,1949.941,273.922z"/>
		</g>
		<g>
			<line fill="none" x1="1951.547" y1="116.848" x2="1951.547" y2="278.018"/>
			<path fill="#F01B57" d="M1951.547,281.141c1.938,0,3.505-1.396,3.505-3.123l-1.756-161.167c0-1.724,0.188-3.122-1.749-3.122
				c-1.938,0-1.754,1.397-1.754,3.122l-1.757,161.167C1948.037,279.742,1949.61,281.141,1951.547,281.141z"/>
		</g>
		<g>
			<line fill="none" x1="1962.742" y1="13.241" x2="1962.742" y2="280.945"/>
			<path fill="#F01B57" d="M1962.742,285.629c2.905,0,5.265-2.096,5.265-4.688l-1.755-267.706c0-2.586-0.604-4.685-3.511-4.685
				c-2.898,0-3.505,2.098-3.505,4.685l-1.751,267.708C1957.487,283.533,1959.842,285.629,1962.742,285.629z"/>
		</g>
		<g>
			<path fill="#F01B57" d="M1964.471,269.824c13.395,0,13.531-7.896,13.802-16.916v-66.207c0-1.294-1.177-2.344-2.625-2.344
				s-2.632,1.05-2.632,2.344l-1.754,66.146c0,0.055-0.504,10.729-8.542,10.729c-1.449,0-0.877,2.607-0.877,3.9
				C1961.841,268.775,1963.019,269.824,1964.471,269.824z"/>
		</g>
	</g>
	<g display="inline">
		<g>
			<path fill="#F01B57" d="M140.263,405.991c7.34,0,13.291-5.948,13.291-13.291V271.777c0-7.34-5.951-13.293-13.291-13.293
				s-13.292,5.951-13.292,13.293v120.927C126.971,400.043,132.922,405.991,140.263,405.991z"/>
		</g>
		<g>
			<path fill="#F01B57" d="M143.915,275.168c0-2.16-0.465-9.063,1.69-9.063c16.934,0,20.193-1.563,21.896-21.893
				c1.678-20.074,0.93-153.219,0.911-154.563c-0.027-2.157,1.697-3.931,3.856-3.958c2.192,0.033,3.933,1.701,3.959,3.859
				c0.072,5.501,2.755,134.994,1.045,155.443c-1.721,20.584-5.682,34.068-29.447,34.068
				C145.664,279.076,143.915,277.324,143.915,275.168z"/>
		</g>
		<g>
			<path fill="#F01B57" d="M136.222,288.198c1.526,0,2.976-0.896,3.604-2.394c0.839-1.988-1.657-8.975-3.647-9.813
				c0.96,0.399-16.502-13.205-15.634-12.095c-2.844-3.653-5.584-24.467-5.042-41.646l0.003-0.119l-0.002-0.113L109.249,56.66
				c-0.063-2.159-1.905-3.83-4.021-3.8c-2.16,0.063-3.855,1.861-3.797,4.021l4.688,165.243c-0.287,9.185-0.731,40.612,5.126,48.146
				c5.928,7.619,21.845,16.941,23.459,17.621C135.2,288.1,135.717,288.198,136.222,288.198z"/>
		</g>
		<g>
			<path fill="#F01B57" d="M134.007,271.779c2.159,0,3.91-1.744,3.91-3.904v-47.438c0-2.16-1.75-3.908-3.91-3.908
				c-6.149,0-6.514-11.157-6.517-11.271L125.927,35.66c0-2.158-0.186-3.908-2.345-3.908s-2.347,1.75-2.347,3.908l-1.563,169.661
				c0.099,5.771,2.494,15.917,10.425,18.445v44.104C130.099,270.029,131.849,271.779,134.007,271.779z"/>
		</g>
		<g>
			<line fill="none" x1="135.442" y1="114.43" x2="135.442" y2="275.883"/>
			<path fill="#F01B57" d="M135.442,279.01c1.729,0,3.128-1.4,3.128-3.127l-1.563-161.45c0-1.728,0.164-3.127-1.564-3.127
				c-1.727,0-1.563,1.399-1.563,3.127l-1.564,161.45C132.316,277.611,133.715,279.01,135.442,279.01z"/>
		</g>
		<g>
			<line fill="none" x1="145.435" y1="10.641" x2="145.435" y2="278.814"/>
			<path fill="#F01B57" d="M145.435,283.504c2.591,0,4.692-2.102,4.692-4.689l-1.563-268.17c0-2.592-0.538-4.688-3.128-4.688
				s-3.126,2.101-3.126,4.688l-1.563,268.168C140.744,281.406,142.844,283.504,145.435,283.504z"/>
		</g>
		<g>
			<path fill="#F01B57" d="M146.975,267.672c11.949,0,12.074-7.904,12.314-16.939l0.001-66.324c0-1.296-1.054-2.344-2.349-2.344
				c-1.296,0-2.346,1.049-2.346,2.344l-1.563,66.265c-0.003,0.063-0.449,10.75-7.624,10.75c-1.296,0-0.782,2.615-0.782,3.91
				C144.63,266.623,145.678,267.672,146.975,267.672z"/>
		</g>
	</g>
	<g display="inline">
		<g>
			<path fill="#F01B57" d="M1046.743,321.288c3.771,0,6.822-3.058,6.822-6.819v-62.053c0-3.771-3.058-6.822-6.822-6.822
				c-3.767,0-6.818,3.057-6.818,6.822v62.053C1039.924,318.236,1042.979,321.288,1046.743,321.288z"/>
		</g>
		<g>
			<path fill="#F01B57" d="M1048.618,254.156c0-1.106-0.237-4.646,0.869-4.646c8.688,0,10.362-0.799,11.232-11.232
				c0.858-10.303,0.479-78.625,0.471-79.313c-0.019-1.107,0.872-2.02,1.979-2.029c1.125,0.021,2.02,0.871,2.028,1.979
				c0.037,2.823,1.415,69.271,0.535,79.765c-0.882,10.563-2.916,17.483-15.108,17.483
				C1049.518,256.16,1048.618,255.264,1048.618,254.156z"/>
		</g>
		<g>
			<path fill="#F01B57" d="M1044.672,260.846c0.78,0,1.524-0.461,1.851-1.229c0.431-1.021-0.854-4.605-1.87-5.037
				c0.489,0.209-8.471-6.775-8.021-6.201c-1.459-1.879-2.866-12.555-2.591-21.375l0.002-0.063v-0.063l-3.211-84.854
				c-0.03-1.105-0.979-1.966-2.063-1.947c-1.105,0.027-1.979,0.955-1.947,2.063l2.404,84.792c-0.146,4.713-0.375,20.84,2.631,24.705
				c3.042,3.905,11.208,8.69,12.037,9.039C1044.149,260.793,1044.411,260.846,1044.672,260.846z"/>
		</g>
		<g>
			<path fill="#F01B57" d="M1043.535,252.418c1.107,0,2.01-0.896,2.01-2.006v-24.338c0-1.111-0.897-2.012-2.01-2.012
				c-3.153,0-3.342-5.729-3.345-5.785l-0.805-87.024c0-1.105-0.099-2.005-1.202-2.005c-1.104,0-1.203,0.896-1.203,2.005
				l-0.805,87.062c0.055,2.961,1.276,8.168,5.352,9.469v22.634C1041.53,251.52,1042.428,252.418,1043.535,252.418z"/>
		</g>
		<g>
			<line fill="none" x1="1044.272" y1="171.675" x2="1044.272" y2="254.521"/>
			<path fill="#F01B57" d="M1044.272,256.129c0.886,0,1.604-0.717,1.604-1.605l-0.802-82.848c0-0.886,0.083-1.604-0.804-1.604
				c-0.886,0-0.803,0.722-0.803,1.604l-0.803,82.848C1042.668,255.412,1043.387,256.129,1044.272,256.129z"/>
		</g>
		<g>
			<line fill="none" x1="1049.401" y1="118.416" x2="1049.401" y2="256.027"/>
			<path fill="#F01B57" d="M1049.401,258.436c1.328,0,2.406-1.076,2.406-2.408l-0.802-137.605c0-1.329-0.274-2.407-1.604-2.407
				s-1.604,1.078-1.604,2.407l-0.805,137.605C1046.99,257.359,1048.07,258.436,1049.401,258.436z"/>
		</g>
		<g>
			<path fill="#F01B57" d="M1050.188,250.313c6.134,0,6.194-4.061,6.316-8.689v-34.035c0-0.666-0.539-1.204-1.203-1.204
				c-0.665,0-1.205,0.539-1.205,1.204l-0.802,34.001c-0.001,0.026-0.229,5.521-3.912,5.521c-0.664,0-0.398,1.341-0.398,2.007
				C1048.986,249.773,1049.524,250.313,1050.188,250.313z"/>
		</g>
	</g>
	<g display="inline">
		<g>
			<path fill="#F01B57" d="M1145.291,364.793c4.521,0,8.179-3.66,8.179-8.182v-74.408c0-4.521-3.656-8.186-8.179-8.186
				c-4.519,0-8.183,3.662-8.183,8.186v74.408C1137.112,361.133,1140.775,364.793,1145.291,364.793z"/>
		</g>
		<g>
			<path fill="#F01B57" d="M1147.534,284.287c0-1.328-0.284-5.574,1.043-5.574c10.419,0,12.427-0.957,13.475-13.471
				c1.032-12.354,0.571-94.282,0.563-95.107c-0.02-1.329,1.047-2.419,2.375-2.435c1.353,0.021,2.42,1.046,2.438,2.371
				c0.041,3.387,1.69,83.068,0.643,95.652c-1.061,12.666-3.498,20.967-18.123,20.967
				C1148.615,286.693,1147.534,285.619,1147.534,284.287z"/>
		</g>
		<g>
			<path fill="#F01B57" d="M1142.805,292.307c0.938,0,1.83-0.555,2.214-1.473c0.521-1.229-1.021-5.523-2.237-6.041
				c0.592,0.25-10.154-8.125-9.621-7.439c-1.75-2.252-3.438-15.057-3.104-25.629l0.008-0.067l-0.008-0.069l-3.848-101.752
				c-0.035-1.328-1.176-2.357-2.474-2.338c-1.33,0.033-2.378,1.146-2.339,2.474l2.886,101.678c-0.179,5.65-0.452,24.992,3.15,29.627
				c3.646,4.688,13.438,10.43,14.438,10.846C1142.177,292.246,1142.493,292.307,1142.805,292.307z"/>
		</g>
		<g>
			<path fill="#F01B57" d="M1141.443,282.203c1.329,0,2.401-1.076,2.401-2.406v-29.188c0-1.332-1.072-2.404-2.401-2.404
				c-3.784,0-4.014-6.865-4.018-6.938l-0.961-104.36c0-1.327-0.112-2.402-1.44-2.402s-1.443,1.077-1.443,2.402l-0.962,104.401
				c0.063,3.549,1.536,9.795,6.417,11.353V279.8C1139.035,281.127,1140.114,282.203,1141.443,282.203z"/>
		</g>
		<g>
			<line fill="none" x1="1142.323" y1="185.38" x2="1142.323" y2="284.727"/>
			<path fill="#F01B57" d="M1142.323,286.652c1.063,0,1.922-0.857,1.922-1.924l-0.963-99.351c0-1.063,0.104-1.923-0.962-1.923
				c-1.063,0-0.964,0.859-0.964,1.923l-0.965,99.351C1140.401,285.791,1141.261,286.652,1142.323,286.652z"/>
		</g>
		<g>
			<line fill="none" x1="1148.472" y1="121.512" x2="1148.472" y2="286.533"/>
			<path fill="#F01B57" d="M1148.472,289.418c1.598,0,2.89-1.291,2.89-2.885l-0.96-165.021c0-1.593-0.332-2.887-1.93-2.887
				c-1.593,0-1.921,1.293-1.921,2.887l-0.965,165.021C1145.584,288.125,1146.878,289.418,1148.472,289.418z"/>
		</g>
		<g>
			<path fill="#F01B57" d="M1149.421,279.678c7.354,0,7.429-4.867,7.573-10.428v-40.813c0-0.799-0.645-1.44-1.439-1.44
				s-1.441,0.646-1.441,1.44l-0.96,40.772c-0.004,0.035-0.277,6.615-4.689,6.615c-0.799,0-0.479,1.606-0.479,2.401
				C1147.978,279.031,1148.623,279.678,1149.421,279.678z"/>
		</g>
	</g>
</g>
<g>
	<g>
		
			<linearGradient id="SVGID_1_" gradientUnits="userSpaceOnUse" x1="1635.1995" y1="859.1768" x2="1635.1995" y2="383.1768" gradientTransform="matrix(1 0 0 1 -385.1992 -420.9199)">
			<stop  offset="0" style="stop-color:#614161"/>
			<stop  offset="1" style="stop-color:#542954"/>
		</linearGradient>
		<rect x="0" y="-37.743" fill="url(#SVGID_1_)" width="2500" height="476"/>
	</g>
</g>
<g>
	<g opacity="0.1">
		<g>
			<polygon fill="#542954" points="1915.144,-174.59 1911.608,-178.125 1538.108,195.375 1164.608,568.87 1168.144,572.407 
				1541.644,198.91 			"/>
			<polygon fill="#542954" points="1908.072,-181.66 1904.536,-185.196 1531.036,188.304 1157.536,561.804 1161.072,565.339 
				1534.572,191.84 			"/>
			<polygon fill="#542954" points="1922.213,-167.52 1918.678,-171.055 1545.178,202.445 1171.678,575.945 1175.213,579.479 
				1548.713,205.98 			"/>
			<polygon fill="#542954" points="1936.354,-153.379 1932.818,-156.914 1559.318,216.585 1185.818,590.085 1189.354,593.616 
				1562.854,220.12 			"/>
			<polygon fill="#542954" points="1929.282,-160.449 1925.748,-163.985 1552.248,209.515 1178.748,583.015 1182.282,586.55 
				1555.782,213.05 			"/>
			<polygon fill="#542954" points="1939.89,-149.844 1566.389,223.654 1192.889,597.155 1196.424,600.691 1569.924,227.191 
				1943.424,-146.309 			"/>
		</g>
		<g>
			<polygon fill="#542954" points="1830.144,-174.59 1826.608,-178.125 1453.108,195.375 1079.608,568.87 1083.144,572.407 
				1456.644,198.91 			"/>
			<polygon fill="#542954" points="1823.073,-181.66 1819.536,-185.196 1446.036,188.304 1072.536,561.804 1076.072,565.339 
				1449.572,191.84 			"/>
			<polygon fill="#542954" points="1837.213,-167.52 1833.678,-171.055 1460.178,202.445 1086.678,575.945 1090.213,579.479 
				1463.713,205.98 			"/>
			<polygon fill="#542954" points="1851.354,-153.379 1847.818,-156.914 1474.318,216.585 1100.818,590.085 1104.354,593.616 
				1477.854,220.12 			"/>
			<polygon fill="#542954" points="1844.282,-160.449 1840.748,-163.985 1467.248,209.515 1093.748,583.015 1097.282,586.55 
				1470.782,213.05 			"/>
			<polygon fill="#542954" points="1854.889,-149.844 1481.389,223.654 1107.889,597.155 1111.424,600.691 1484.924,227.191 
				1858.424,-146.309 			"/>
		</g>
	</g>
	<g opacity="0.1">
		<g>
			<polygon fill="#542954" points="2080.144,-169.59 2076.608,-173.125 1703.108,200.375 1329.608,573.87 1333.144,577.407 
				1706.644,203.91 			"/>
			<polygon fill="#542954" points="2073.073,-176.66 2069.537,-180.196 1696.036,193.304 1322.536,566.804 1326.072,570.339 
				1699.572,196.84 			"/>
			<polygon fill="#542954" points="2087.213,-162.52 2083.678,-166.055 1710.178,207.445 1336.678,580.945 1340.213,584.479 
				1713.713,210.98 			"/>
			<polygon fill="#542954" points="2101.354,-148.379 2097.819,-151.914 1724.318,221.585 1350.818,595.085 1354.354,598.616 
				1727.854,225.12 			"/>
			<polygon fill="#542954" points="2094.282,-155.449 2090.748,-158.985 1717.248,214.516 1343.748,588.015 1347.282,591.55 
				1720.782,218.05 			"/>
			<polygon fill="#542954" points="2104.888,-144.844 1731.389,228.654 1357.889,602.155 1361.424,605.691 1734.924,232.191 
				2108.423,-141.309 			"/>
		</g>
		<g>
			<polygon fill="#542954" points="1995.144,-169.59 1991.608,-173.125 1618.108,200.375 1244.608,573.87 1248.144,577.407 
				1621.644,203.91 			"/>
			<polygon fill="#542954" points="1988.072,-176.66 1984.536,-180.196 1611.036,193.304 1237.536,566.804 1241.072,570.339 
				1614.572,196.84 			"/>
			<polygon fill="#542954" points="2002.213,-162.52 1998.678,-166.055 1625.178,207.445 1251.678,580.945 1255.213,584.479 
				1628.713,210.98 			"/>
			<polygon fill="#542954" points="2016.354,-148.379 2012.818,-151.914 1639.318,221.585 1265.818,595.085 1269.354,598.616 
				1642.854,225.12 			"/>
			<polygon fill="#542954" points="2009.282,-155.449 2005.748,-158.985 1632.248,214.516 1258.748,588.015 1262.282,591.55 
				1635.782,218.05 			"/>
			<polygon fill="#542954" points="2019.89,-144.844 1646.39,228.654 1272.889,602.155 1276.424,605.691 1649.924,232.191 
				2023.424,-141.309 			"/>
		</g>
	</g>
	<g opacity="0.1">
		<g>
			<polygon fill="#542954" points="2255.142,-174.59 2251.608,-178.125 1878.108,195.375 1504.608,568.87 1508.144,572.407 
				1881.644,198.91 			"/>
			<polygon fill="#542954" points="2248.073,-181.66 2244.537,-185.196 1871.036,188.304 1497.536,561.804 1501.072,565.339 
				1874.573,191.84 			"/>
			<polygon fill="#542954" points="2262.211,-167.52 2258.677,-171.055 1885.178,202.445 1511.678,575.945 1515.213,579.479 
				1888.713,205.98 			"/>
			<polygon fill="#542954" points="2276.353,-153.379 2272.819,-156.914 1899.318,216.585 1525.818,590.085 1529.354,593.616 
				1902.854,220.12 			"/>
			<polygon fill="#542954" points="2269.282,-160.449 2265.75,-163.985 1892.248,209.515 1518.748,583.015 1522.282,586.55 
				1895.782,213.05 			"/>
			<polygon fill="#542954" points="2279.888,-149.844 1906.39,223.654 1532.889,597.155 1536.424,600.691 1909.924,227.191 
				2283.423,-146.309 			"/>
		</g>
		<g>
			<polygon fill="#542954" points="2170.143,-174.59 2166.608,-178.125 1793.108,195.375 1419.608,568.87 1423.144,572.407 
				1796.644,198.91 			"/>
			<polygon fill="#542954" points="2163.073,-181.66 2159.537,-185.196 1786.036,188.304 1412.536,561.804 1416.072,565.339 
				1789.573,191.84 			"/>
			<polygon fill="#542954" points="2177.211,-167.52 2173.677,-171.055 1800.178,202.445 1426.678,575.945 1430.213,579.479 
				1803.713,205.98 			"/>
			<polygon fill="#542954" points="2191.354,-153.379 2187.819,-156.914 1814.318,216.585 1440.818,590.085 1444.354,593.616 
				1817.854,220.12 			"/>
			<polygon fill="#542954" points="2184.282,-160.449 2180.75,-163.985 1807.248,209.515 1433.748,583.015 1437.282,586.55 
				1810.782,213.05 			"/>
			<polygon fill="#542954" points="2194.888,-149.844 1821.389,223.654 1447.889,597.155 1451.424,600.691 1824.924,227.191 
				2198.423,-146.309 			"/>
		</g>
	</g>
	<g opacity="0.1">
		<g>
			<polygon fill="#542954" points="2420.142,-169.59 2416.608,-173.125 2043.108,200.375 1669.608,573.87 1673.144,577.407 
				2046.644,203.91 			"/>
			<polygon fill="#542954" points="2413.073,-176.66 2409.537,-180.196 2036.036,193.304 1662.536,566.804 1666.072,570.339 
				2039.572,196.84 			"/>
			<polygon fill="#542954" points="2427.211,-162.52 2423.677,-166.055 2050.178,207.445 1676.678,580.945 1680.213,584.479 
				2053.713,210.98 			"/>
			<polygon fill="#542954" points="2441.353,-148.379 2437.819,-151.914 2064.319,221.585 1690.818,595.085 1694.354,598.616 
				2067.855,225.12 			"/>
			<polygon fill="#542954" points="2434.282,-155.449 2430.75,-158.985 2057.248,214.516 1683.748,588.015 1687.282,591.55 
				2060.782,218.05 			"/>
			<polygon fill="#542954" points="2444.888,-144.844 2071.39,228.654 1697.889,602.155 1701.424,605.691 2074.924,232.191 
				2448.423,-141.309 			"/>
		</g>
		<g>
			<polygon fill="#542954" points="2335.142,-169.59 2331.608,-173.125 1958.108,200.375 1584.608,573.87 1588.144,577.407 
				1961.644,203.91 			"/>
			<polygon fill="#542954" points="2328.073,-176.66 2324.537,-180.196 1951.036,193.304 1577.536,566.804 1581.072,570.339 
				1954.572,196.84 			"/>
			<polygon fill="#542954" points="2342.211,-162.52 2338.677,-166.055 1965.178,207.445 1591.678,580.945 1595.213,584.479 
				1968.713,210.98 			"/>
			<polygon fill="#542954" points="2356.353,-148.379 2352.819,-151.914 1979.318,221.585 1605.818,595.085 1609.354,598.616 
				1982.854,225.12 			"/>
			<polygon fill="#542954" points="2349.282,-155.449 2345.75,-158.985 1972.248,214.516 1598.748,588.015 1602.282,591.55 
				1975.782,218.05 			"/>
			<polygon fill="#542954" points="2359.888,-144.844 1986.39,228.654 1612.889,602.155 1616.424,605.691 1989.924,232.191 
				2363.423,-141.309 			"/>
		</g>
	</g>
	<g opacity="0.1">
		<g>
			<polygon fill="#542954" points="2594.142,-174.59 2590.608,-178.125 2217.108,195.375 1843.608,568.87 1847.144,572.407 
				2220.643,198.91 			"/>
			<polygon fill="#542954" points="2587.073,-181.66 2583.537,-185.196 2210.037,188.304 1836.536,561.804 1840.073,565.339 
				2213.573,191.84 			"/>
			<polygon fill="#542954" points="2601.211,-167.52 2597.677,-171.055 2224.177,202.445 1850.678,575.945 1854.213,579.479 
				2227.711,205.98 			"/>
			<polygon fill="#542954" points="2615.353,-153.379 2611.819,-156.914 2238.319,216.585 1864.818,590.085 1868.354,593.616 
				2241.853,220.12 			"/>
			<polygon fill="#542954" points="2608.282,-160.449 2604.75,-163.985 2231.25,209.515 1857.748,583.015 1861.282,586.55 
				2234.782,213.05 			"/>
			<polygon fill="#542954" points="2618.888,-149.844 2245.388,223.654 1871.889,597.155 1875.424,600.691 2248.923,227.191 
				2622.423,-146.309 			"/>
		</g>
		<g>
			<polygon fill="#542954" points="2509.142,-174.59 2505.608,-178.125 2132.108,195.375 1758.608,568.87 1762.144,572.407 
				2135.643,198.91 			"/>
			<polygon fill="#542954" points="2502.073,-181.66 2498.537,-185.196 2125.037,188.304 1751.536,561.804 1755.073,565.339 
				2128.573,191.84 			"/>
			<polygon fill="#542954" points="2516.211,-167.52 2512.677,-171.055 2139.177,202.445 1765.678,575.945 1769.213,579.479 
				2142.711,205.98 			"/>
			<polygon fill="#542954" points="2530.353,-153.379 2526.819,-156.914 2153.319,216.585 1779.818,590.085 1783.354,593.616 
				2156.854,220.12 			"/>
			<polygon fill="#542954" points="2523.282,-160.449 2519.75,-163.985 2146.25,209.515 1772.748,583.015 1776.282,586.55 
				2149.782,213.05 			"/>
			<polygon fill="#542954" points="2533.888,-149.844 2160.388,223.654 1786.889,597.155 1790.424,600.691 2163.923,227.191 
				2537.423,-146.309 			"/>
		</g>
	</g>
	<g opacity="0.1">
		<g>
			<polygon fill="#542954" points="2759.142,-169.59 2755.608,-173.125 2382.108,200.375 2008.608,573.87 2012.144,577.407 
				2385.642,203.91 			"/>
			<polygon fill="#542954" points="2752.073,-176.66 2748.539,-180.196 2375.037,193.304 2001.536,566.804 2005.072,570.339 
				2378.573,196.84 			"/>
			<polygon fill="#542954" points="2766.211,-162.52 2762.677,-166.055 2389.177,207.445 2015.678,580.945 2019.213,584.479 
				2392.711,210.98 			"/>
			<polygon fill="#542954" points="2780.353,-148.379 2776.819,-151.914 2403.319,221.585 2029.818,595.085 2033.354,598.616 
				2406.853,225.12 			"/>
			<polygon fill="#542954" points="2773.282,-155.449 2769.75,-158.985 2396.25,214.516 2022.748,588.015 2026.282,591.55 
				2399.782,218.05 			"/>
			<polygon fill="#542954" points="2783.888,-144.844 2410.388,228.654 2036.89,602.155 2040.424,605.691 2413.923,232.191 
				2787.423,-141.309 			"/>
		</g>
		<g>
			<polygon fill="#542954" points="2674.142,-169.59 2670.608,-173.125 2297.108,200.375 1923.608,573.87 1927.144,577.407 
				2300.642,203.91 			"/>
			<polygon fill="#542954" points="2667.073,-176.66 2663.537,-180.196 2290.037,193.304 1916.536,566.804 1920.072,570.339 
				2293.573,196.84 			"/>
			<polygon fill="#542954" points="2681.211,-162.52 2677.677,-166.055 2304.177,207.445 1930.678,580.945 1934.213,584.479 
				2307.711,210.98 			"/>
			<polygon fill="#542954" points="2695.353,-148.379 2691.819,-151.914 2318.319,221.585 1944.818,595.085 1948.354,598.616 
				2321.853,225.12 			"/>
			<polygon fill="#542954" points="2688.282,-155.449 2684.75,-158.985 2311.25,214.516 1937.748,588.015 1941.282,591.55 
				2314.782,218.05 			"/>
			<polygon fill="#542954" points="2698.888,-144.844 2325.388,228.654 1951.89,602.155 1955.424,605.691 2328.923,232.191 
				2702.423,-141.309 			"/>
		</g>
	</g>
	<g opacity="0.1">
		<g>
			<polygon fill="#542954" points="2934.142,-174.59 2930.608,-178.125 2557.108,195.375 2183.608,568.87 2187.143,572.407 
				2560.642,198.91 			"/>
			<polygon fill="#542954" points="2927.073,-181.66 2923.539,-185.196 2550.037,188.304 2176.537,561.804 2180.073,565.339 
				2553.573,191.84 			"/>
			<polygon fill="#542954" points="2941.211,-167.52 2937.677,-171.055 2564.177,202.445 2190.677,575.945 2194.211,579.479 
				2567.711,205.98 			"/>
			<polygon fill="#542954" points="2955.353,-153.379 2951.819,-156.914 2578.319,216.585 2204.819,590.085 2208.354,593.616 
				2581.853,220.12 			"/>
			<polygon fill="#542954" points="2948.282,-160.449 2944.75,-163.985 2571.25,209.515 2197.75,583.015 2201.282,586.55 
				2574.782,213.05 			"/>
			<polygon fill="#542954" points="2958.888,-149.844 2585.388,223.654 2211.888,597.155 2215.423,600.691 2588.923,227.191 
				2962.423,-146.309 			"/>
		</g>
		<g>
			<polygon fill="#542954" points="2849.142,-174.59 2845.608,-178.125 2472.108,195.375 2098.608,568.87 2102.143,572.407 
				2475.642,198.91 			"/>
			<polygon fill="#542954" points="2842.073,-181.66 2838.539,-185.196 2465.037,188.304 2091.537,561.804 2095.073,565.339 
				2468.573,191.84 			"/>
			<polygon fill="#542954" points="2856.211,-167.52 2852.677,-171.055 2479.177,202.445 2105.677,575.945 2109.211,579.479 
				2482.711,205.98 			"/>
			<polygon fill="#542954" points="2870.353,-153.379 2866.819,-156.914 2493.319,216.585 2119.819,590.085 2123.354,593.616 
				2496.853,220.12 			"/>
			<polygon fill="#542954" points="2863.282,-160.449 2859.75,-163.985 2486.25,209.515 2112.75,583.015 2116.282,586.55 
				2489.782,213.05 			"/>
			<polygon fill="#542954" points="2873.888,-149.844 2500.388,223.654 2126.888,597.155 2130.423,600.691 2503.923,227.191 
				2877.423,-146.309 			"/>
		</g>
	</g>
	<g opacity="0.1">
		<g>
			<polygon fill="#542954" points="3099.142,-169.59 3095.608,-173.125 2722.108,200.375 2348.608,573.87 2352.142,577.407 
				2725.642,203.91 			"/>
			<polygon fill="#542954" points="3092.073,-176.66 3088.539,-180.196 2715.039,193.304 2341.537,566.804 2345.073,570.339 
				2718.573,196.84 			"/>
			<polygon fill="#542954" points="3106.211,-162.52 3102.677,-166.055 2729.177,207.445 2355.677,580.945 2359.211,584.479 
				2732.711,210.98 			"/>
			<polygon fill="#542954" points="3120.353,-148.379 3116.819,-151.914 2743.319,221.585 2369.819,595.085 2373.353,598.616 
				2746.853,225.12 			"/>
			<polygon fill="#542954" points="3113.282,-155.449 3109.75,-158.985 2736.25,214.516 2362.75,588.015 2366.282,591.55 
				2739.782,218.05 			"/>
			<polygon fill="#542954" points="3123.888,-144.844 2750.388,228.654 2376.888,602.155 2380.423,605.691 2753.923,232.191 
				3127.423,-141.309 			"/>
		</g>
		<g>
			<polygon fill="#542954" points="3014.142,-169.59 3010.608,-173.125 2637.108,200.375 2263.608,573.87 2267.142,577.407 
				2640.642,203.91 			"/>
			<polygon fill="#542954" points="3007.073,-176.66 3003.539,-180.196 2630.037,193.304 2256.537,566.804 2260.073,570.339 
				2633.573,196.84 			"/>
			<polygon fill="#542954" points="3021.211,-162.52 3017.677,-166.055 2644.177,207.445 2270.677,580.945 2274.211,584.479 
				2647.711,210.98 			"/>
			<polygon fill="#542954" points="3035.353,-148.379 3031.819,-151.914 2658.319,221.585 2284.819,595.085 2288.353,598.616 
				2661.853,225.12 			"/>
			<polygon fill="#542954" points="3028.282,-155.449 3024.75,-158.985 2651.25,214.516 2277.75,588.015 2281.282,591.55 
				2654.782,218.05 			"/>
			<polygon fill="#542954" points="3038.888,-144.844 2665.388,228.654 2291.888,602.155 2295.423,605.691 2668.923,232.191 
				3042.423,-141.309 			"/>
		</g>
	</g>
</g>
<g>
	<g opacity="0.1">
		<g>
			<polygon fill="#542954" points="556.514,-174.59 552.978,-178.125 179.478,195.375 -194.022,568.87 -190.486,572.407 
				183.014,198.91 			"/>
			<polygon fill="#542954" points="549.442,-181.66 545.906,-185.196 172.407,188.304 -201.094,561.804 -197.558,565.339 
				175.942,191.84 			"/>
			<polygon fill="#542954" points="563.582,-167.52 560.048,-171.055 186.548,202.445 -186.952,575.945 -183.417,579.479 
				190.083,205.98 			"/>
			<polygon fill="#542954" points="577.724,-153.379 574.188,-156.914 200.688,216.585 -172.812,590.085 -169.276,593.616 
				204.224,220.12 			"/>
			<polygon fill="#542954" points="570.654,-160.449 567.117,-163.985 193.618,209.515 -179.882,583.015 -176.346,586.55 
				197.154,213.05 			"/>
			<polygon fill="#542954" points="581.26,-149.844 207.759,223.654 -165.741,597.155 -162.206,600.691 211.294,227.191 
				584.794,-146.309 			"/>
		</g>
		<g>
			<polygon fill="#542954" points="471.514,-174.59 467.978,-178.125 94.478,195.375 -279.022,568.87 -275.486,572.407 
				98.014,198.91 			"/>
			<polygon fill="#542954" points="464.443,-181.66 460.906,-185.196 87.407,188.304 -286.093,561.804 -282.558,565.339 
				90.942,191.84 			"/>
			<polygon fill="#542954" points="478.582,-167.52 475.048,-171.055 101.548,202.445 -271.952,575.945 -268.417,579.479 
				105.083,205.98 			"/>
			<polygon fill="#542954" points="492.724,-153.379 489.188,-156.914 115.688,216.585 -257.812,590.085 -254.276,593.616 
				119.224,220.12 			"/>
			<polygon fill="#542954" points="485.654,-160.449 482.117,-163.985 108.618,209.515 -264.882,583.015 -261.346,586.55 
				112.154,213.05 			"/>
			<polygon fill="#542954" points="496.259,-149.844 122.759,223.654 -250.741,597.155 -247.206,600.691 126.294,227.191 
				499.794,-146.309 			"/>
		</g>
	</g>
	<g opacity="0.1">
		<g>
			<polygon fill="#542954" points="721.514,-169.59 717.978,-173.125 344.478,200.375 -29.022,573.87 -25.486,577.407 
				348.014,203.91 			"/>
			<polygon fill="#542954" points="714.443,-176.66 710.906,-180.196 337.406,193.304 -36.093,566.804 -32.558,570.339 
				340.942,196.84 			"/>
			<polygon fill="#542954" points="728.582,-162.52 725.048,-166.055 351.548,207.445 -21.952,580.945 -18.417,584.479 
				355.082,210.98 			"/>
			<polygon fill="#542954" points="742.724,-148.379 739.189,-151.914 365.688,221.585 -7.812,595.085 -4.276,598.616 
				369.224,225.12 			"/>
			<polygon fill="#542954" points="735.654,-155.449 732.118,-158.985 358.617,214.516 -14.882,588.015 -11.346,591.55 
				362.154,218.05 			"/>
			<polygon fill="#542954" points="746.258,-144.844 372.759,228.654 -0.741,602.155 2.794,605.691 376.294,232.191 
				749.793,-141.309 			"/>
		</g>
		<g>
			<polygon fill="#542954" points="636.514,-169.59 632.978,-173.125 259.478,200.375 -114.022,573.87 -110.486,577.407 
				263.014,203.91 			"/>
			<polygon fill="#542954" points="629.442,-176.66 625.906,-180.196 252.407,193.304 -121.094,566.804 -117.558,570.339 
				255.942,196.84 			"/>
			<polygon fill="#542954" points="643.582,-162.52 640.048,-166.055 266.548,207.445 -106.952,580.945 -103.417,584.479 
				270.083,210.98 			"/>
			<polygon fill="#542954" points="657.724,-148.379 654.188,-151.914 280.688,221.585 -92.812,595.085 -89.276,598.616 
				284.224,225.12 			"/>
			<polygon fill="#542954" points="650.654,-155.449 647.117,-158.985 273.618,214.516 -99.882,588.015 -96.346,591.55 
				277.154,218.05 			"/>
			<polygon fill="#542954" points="661.26,-144.844 287.76,228.654 -85.741,602.155 -82.206,605.691 291.294,232.191 
				664.794,-141.309 			"/>
		</g>
	</g>
	<g opacity="0.1">
		<g>
			<polygon fill="#542954" points="896.512,-174.59 892.978,-178.125 519.478,195.375 145.978,568.87 149.514,572.407 
				523.014,198.91 			"/>
			<polygon fill="#542954" points="889.443,-181.66 885.906,-185.196 512.406,188.304 138.907,561.804 142.442,565.339 
				515.943,191.84 			"/>
			<polygon fill="#542954" points="903.581,-167.52 900.047,-171.055 526.548,202.445 153.048,575.945 156.583,579.479 
				530.082,205.98 			"/>
			<polygon fill="#542954" points="917.723,-153.379 914.189,-156.914 540.688,216.585 167.188,590.085 170.724,593.616 
				544.224,220.12 			"/>
			<polygon fill="#542954" points="910.654,-160.449 907.119,-163.985 533.617,209.515 160.118,583.015 163.654,586.55 
				537.154,213.05 			"/>
			<polygon fill="#542954" points="921.258,-149.844 547.76,223.654 174.259,597.155 177.794,600.691 551.294,227.191 
				924.793,-146.309 			"/>
		</g>
		<g>
			<polygon fill="#542954" points="811.513,-174.59 807.978,-178.125 434.478,195.375 60.978,568.87 64.514,572.407 438.014,198.91 
							"/>
			<polygon fill="#542954" points="804.443,-181.66 800.906,-185.196 427.406,188.304 53.907,561.804 57.442,565.339 
				430.943,191.84 			"/>
			<polygon fill="#542954" points="818.581,-167.52 815.047,-171.055 441.548,202.445 68.048,575.945 71.583,579.479 
				445.082,205.98 			"/>
			<polygon fill="#542954" points="832.724,-153.379 829.189,-156.914 455.688,216.585 82.188,590.085 85.724,593.616 
				459.224,220.12 			"/>
			<polygon fill="#542954" points="825.654,-160.449 822.119,-163.985 448.617,209.515 75.118,583.015 78.654,586.55 
				452.154,213.05 			"/>
			<polygon fill="#542954" points="836.258,-149.844 462.759,223.654 89.259,597.155 92.794,600.691 466.294,227.191 
				839.793,-146.309 			"/>
		</g>
	</g>
	<g opacity="0.1">
		<g>
			<polygon fill="#542954" points="1061.512,-169.59 1057.978,-173.125 684.478,200.375 310.978,573.87 314.514,577.407 
				688.014,203.91 			"/>
			<polygon fill="#542954" points="1054.443,-176.66 1050.906,-180.196 677.406,193.304 303.906,566.804 307.442,570.339 
				680.942,196.84 			"/>
			<polygon fill="#542954" points="1068.582,-162.52 1065.047,-166.055 691.548,207.445 318.048,580.945 321.582,584.479 
				695.082,210.98 			"/>
			<polygon fill="#542954" points="1082.723,-148.379 1079.189,-151.914 705.689,221.585 332.188,595.085 335.724,598.616 
				709.225,225.12 			"/>
			<polygon fill="#542954" points="1075.654,-155.449 1072.119,-158.985 698.617,214.516 325.117,588.015 328.654,591.55 
				702.154,218.05 			"/>
			<polygon fill="#542954" points="1086.258,-144.844 712.76,228.654 339.259,602.155 342.794,605.691 716.294,232.191 
				1089.793,-141.309 			"/>
		</g>
		<g>
			<polygon fill="#542954" points="976.512,-169.59 972.978,-173.125 599.478,200.375 225.978,573.87 229.514,577.407 
				603.014,203.91 			"/>
			<polygon fill="#542954" points="969.443,-176.66 965.906,-180.196 592.406,193.304 218.907,566.804 222.442,570.339 
				595.942,196.84 			"/>
			<polygon fill="#542954" points="983.581,-162.52 980.047,-166.055 606.548,207.445 233.048,580.945 236.583,584.479 
				610.082,210.98 			"/>
			<polygon fill="#542954" points="997.723,-148.379 994.189,-151.914 620.688,221.585 247.188,595.085 250.724,598.616 
				624.224,225.12 			"/>
			<polygon fill="#542954" points="990.654,-155.449 987.119,-158.985 613.617,214.516 240.118,588.015 243.654,591.55 
				617.154,218.05 			"/>
			<polygon fill="#542954" points="1001.258,-144.844 627.76,228.654 254.259,602.155 257.794,605.691 631.294,232.191 
				1004.793,-141.309 			"/>
		</g>
	</g>
	<g opacity="0.1">
		<g>
			<polygon fill="#542954" points="1235.512,-174.59 1231.978,-178.125 858.478,195.375 484.978,568.87 488.514,572.407 
				862.013,198.91 			"/>
			<polygon fill="#542954" points="1228.443,-181.66 1224.906,-185.196 851.406,188.304 477.906,561.804 481.443,565.339 
				854.943,191.84 			"/>
			<polygon fill="#542954" points="1242.582,-167.52 1239.047,-171.055 865.547,202.445 492.048,575.945 495.582,579.479 
				869.081,205.98 			"/>
			<polygon fill="#542954" points="1256.723,-153.379 1253.189,-156.914 879.689,216.585 506.188,590.085 509.724,593.616 
				883.223,220.12 			"/>
			<polygon fill="#542954" points="1249.654,-160.449 1246.119,-163.985 872.619,209.515 499.117,583.015 502.654,586.55 
				876.154,213.05 			"/>
			<polygon fill="#542954" points="1260.258,-149.844 886.758,223.654 513.259,597.155 516.794,600.691 890.293,227.191 
				1263.793,-146.309 			"/>
		</g>
		<g>
			<polygon fill="#542954" points="1150.512,-174.59 1146.978,-178.125 773.478,195.375 399.978,568.87 403.514,572.407 
				777.013,198.91 			"/>
			<polygon fill="#542954" points="1143.443,-181.66 1139.906,-185.196 766.406,188.304 392.906,561.804 396.443,565.339 
				769.943,191.84 			"/>
			<polygon fill="#542954" points="1157.582,-167.52 1154.047,-171.055 780.547,202.445 407.048,575.945 410.582,579.479 
				784.081,205.98 			"/>
			<polygon fill="#542954" points="1171.723,-153.379 1168.189,-156.914 794.689,216.585 421.188,590.085 424.724,593.616 
				798.224,220.12 			"/>
			<polygon fill="#542954" points="1164.654,-160.449 1161.119,-163.985 787.619,209.515 414.117,583.015 417.654,586.55 
				791.154,213.05 			"/>
			<polygon fill="#542954" points="1175.258,-149.844 801.758,223.654 428.259,597.155 431.794,600.691 805.293,227.191 
				1178.793,-146.309 			"/>
		</g>
	</g>
	<g opacity="0.1">
		<g>
			<polygon fill="#542954" points="1400.512,-169.59 1396.978,-173.125 1023.478,200.375 649.978,573.87 653.514,577.407 
				1027.012,203.91 			"/>
			<polygon fill="#542954" points="1393.443,-176.66 1389.908,-180.196 1016.406,193.304 642.906,566.804 646.442,570.339 
				1019.943,196.84 			"/>
			<polygon fill="#542954" points="1407.582,-162.52 1404.047,-166.055 1030.547,207.445 657.048,580.945 660.582,584.479 
				1034.082,210.98 			"/>
			<polygon fill="#542954" points="1421.723,-148.379 1418.189,-151.914 1044.689,221.585 671.188,595.085 674.724,598.616 
				1048.223,225.12 			"/>
			<polygon fill="#542954" points="1414.654,-155.449 1411.119,-158.985 1037.619,214.516 664.117,588.015 667.654,591.55 
				1041.154,218.05 			"/>
			<polygon fill="#542954" points="1425.258,-144.844 1051.758,228.654 678.26,602.155 681.794,605.691 1055.293,232.191 
				1428.793,-141.309 			"/>
		</g>
		<g>
			<polygon fill="#542954" points="1315.512,-169.59 1311.978,-173.125 938.478,200.375 564.978,573.87 568.514,577.407 
				942.012,203.91 			"/>
			<polygon fill="#542954" points="1308.443,-176.66 1304.906,-180.196 931.406,193.304 557.906,566.804 561.442,570.339 
				934.943,196.84 			"/>
			<polygon fill="#542954" points="1322.582,-162.52 1319.047,-166.055 945.547,207.445 572.048,580.945 575.582,584.479 
				949.081,210.98 			"/>
			<polygon fill="#542954" points="1336.723,-148.379 1333.189,-151.914 959.689,221.585 586.188,595.085 589.724,598.616 
				963.223,225.12 			"/>
			<polygon fill="#542954" points="1329.654,-155.449 1326.119,-158.985 952.619,214.516 579.117,588.015 582.654,591.55 
				956.154,218.05 			"/>
			<polygon fill="#542954" points="1340.258,-144.844 966.758,228.654 593.26,602.155 596.794,605.691 970.293,232.191 
				1343.793,-141.309 			"/>
		</g>
	</g>
	<g opacity="0.1">
		<g>
			<polygon fill="#542954" points="1575.512,-174.59 1571.978,-178.125 1198.478,195.375 824.978,568.87 828.513,572.407 
				1202.012,198.91 			"/>
			<polygon fill="#542954" points="1568.443,-181.66 1564.908,-185.196 1191.406,188.304 817.906,561.804 821.443,565.339 
				1194.943,191.84 			"/>
			<polygon fill="#542954" points="1582.582,-167.52 1579.047,-171.055 1205.547,202.445 832.047,575.945 835.581,579.479 
				1209.082,205.98 			"/>
			<polygon fill="#542954" points="1596.723,-153.379 1593.189,-156.914 1219.689,216.585 846.189,590.085 849.724,593.616 
				1223.223,220.12 			"/>
			<polygon fill="#542954" points="1589.654,-160.449 1586.119,-163.985 1212.619,209.515 839.119,583.015 842.654,586.55 
				1216.154,213.05 			"/>
			<polygon fill="#542954" points="1600.258,-149.844 1226.758,223.654 853.258,597.155 856.793,600.691 1230.293,227.191 
				1603.793,-146.309 			"/>
		</g>
		<g>
			<polygon fill="#542954" points="1490.512,-174.59 1486.978,-178.125 1113.478,195.375 739.978,568.87 743.513,572.407 
				1117.012,198.91 			"/>
			<polygon fill="#542954" points="1483.443,-181.66 1479.908,-185.196 1106.406,188.304 732.906,561.804 736.443,565.339 
				1109.943,191.84 			"/>
			<polygon fill="#542954" points="1497.582,-167.52 1494.047,-171.055 1120.547,202.445 747.047,575.945 750.581,579.479 
				1124.082,205.98 			"/>
			<polygon fill="#542954" points="1511.723,-153.379 1508.189,-156.914 1134.689,216.585 761.189,590.085 764.724,593.616 
				1138.223,220.12 			"/>
			<polygon fill="#542954" points="1504.654,-160.449 1501.119,-163.985 1127.619,209.515 754.119,583.015 757.654,586.55 
				1131.154,213.05 			"/>
			<polygon fill="#542954" points="1515.258,-149.844 1141.758,223.654 768.258,597.155 771.793,600.691 1145.293,227.191 
				1518.793,-146.309 			"/>
		</g>
	</g>
	<g opacity="0.1">
		<g>
			<polygon fill="#542954" points="1740.512,-169.59 1736.978,-173.125 1363.478,200.375 989.978,573.87 993.512,577.407 
				1367.012,203.91 			"/>
			<polygon fill="#542954" points="1733.443,-176.66 1729.908,-180.196 1356.408,193.304 982.906,566.804 986.443,570.339 
				1359.943,196.84 			"/>
			<polygon fill="#542954" points="1747.582,-162.52 1744.047,-166.055 1370.547,207.445 997.047,580.945 1000.581,584.479 
				1374.082,210.98 			"/>
			<polygon fill="#542954" points="1761.723,-148.379 1758.189,-151.914 1384.689,221.585 1011.189,595.085 1014.723,598.616 
				1388.223,225.12 			"/>
			<polygon fill="#542954" points="1754.654,-155.449 1751.119,-158.985 1377.619,214.516 1004.119,588.015 1007.654,591.55 
				1381.154,218.05 			"/>
			<polygon fill="#542954" points="1765.258,-144.844 1391.758,228.654 1018.258,602.155 1021.793,605.691 1395.293,232.191 
				1768.793,-141.309 			"/>
		</g>
		<g>
			<polygon fill="#542954" points="1655.512,-169.59 1651.978,-173.125 1278.478,200.375 904.978,573.87 908.512,577.407 
				1282.012,203.91 			"/>
			<polygon fill="#542954" points="1648.443,-176.66 1644.908,-180.196 1271.406,193.304 897.906,566.804 901.443,570.339 
				1274.943,196.84 			"/>
			<polygon fill="#542954" points="1662.582,-162.52 1659.047,-166.055 1285.547,207.445 912.047,580.945 915.581,584.479 
				1289.082,210.98 			"/>
			<polygon fill="#542954" points="1676.723,-148.379 1673.189,-151.914 1299.689,221.585 926.189,595.085 929.723,598.616 
				1303.223,225.12 			"/>
			<polygon fill="#542954" points="1669.654,-155.449 1666.119,-158.985 1292.619,214.516 919.119,588.015 922.654,591.55 
				1296.154,218.05 			"/>
			<polygon fill="#542954" points="1680.258,-144.844 1306.758,228.654 933.258,602.155 936.793,605.691 1310.293,232.191 
				1683.793,-141.309 			"/>
		</g>
	</g>
</g>
<g>
	<g opacity="0.1">
		<g>
			<polygon fill="#542954" points="-803.254,-174.59 -806.79,-178.125 -1180.29,195.375 -1553.79,568.87 -1550.254,572.407 
				-1176.754,198.91 			"/>
			<polygon fill="#542954" points="-810.326,-181.66 -813.861,-185.196 -1187.361,188.304 -1560.861,561.804 -1557.326,565.339 
				-1183.826,191.84 			"/>
			<polygon fill="#542954" points="-796.185,-167.52 -799.72,-171.055 -1173.22,202.445 -1546.72,575.945 -1543.185,579.479 
				-1169.685,205.98 			"/>
			<polygon fill="#542954" points="-782.044,-153.379 -785.58,-156.914 -1159.08,216.585 -1532.58,590.085 -1529.044,593.616 
				-1155.544,220.12 			"/>
			<polygon fill="#542954" points="-789.115,-160.449 -792.65,-163.985 -1166.15,209.515 -1539.65,583.015 -1536.115,586.55 
				-1162.615,213.05 			"/>
			<polygon fill="#542954" points="-778.508,-149.844 -1152.01,223.654 -1525.51,597.155 -1521.974,600.691 -1148.474,227.191 
				-774.974,-146.309 			"/>
		</g>
		<g>
			<polygon fill="#542954" points="-888.254,-174.59 -891.79,-178.125 -1265.29,195.375 -1638.79,568.87 -1635.254,572.407 
				-1261.754,198.91 			"/>
			<polygon fill="#542954" points="-895.325,-181.66 -898.861,-185.196 -1272.361,188.304 -1645.861,561.804 -1642.326,565.339 
				-1268.826,191.84 			"/>
			<polygon fill="#542954" points="-881.185,-167.52 -884.72,-171.055 -1258.22,202.445 -1631.72,575.945 -1628.185,579.479 
				-1254.685,205.98 			"/>
			<polygon fill="#542954" points="-867.044,-153.379 -870.58,-156.914 -1244.08,216.585 -1617.58,590.085 -1614.044,593.616 
				-1240.544,220.12 			"/>
			<polygon fill="#542954" points="-874.115,-160.449 -877.65,-163.985 -1251.15,209.515 -1624.65,583.015 -1621.115,586.55 
				-1247.615,213.05 			"/>
			<polygon fill="#542954" points="-863.51,-149.844 -1237.01,223.654 -1610.51,597.155 -1606.974,600.691 -1233.474,227.191 
				-859.974,-146.309 			"/>
		</g>
	</g>
	<g opacity="0.1">
		<g>
			<polygon fill="#542954" points="-638.254,-169.59 -641.79,-173.125 -1015.29,200.375 -1388.79,573.87 -1385.254,577.407 
				-1011.754,203.91 			"/>
			<polygon fill="#542954" points="-645.325,-176.66 -648.861,-180.196 -1022.361,193.304 -1395.861,566.804 -1392.326,570.339 
				-1018.826,196.84 			"/>
			<polygon fill="#542954" points="-631.185,-162.52 -634.72,-166.055 -1008.22,207.445 -1381.72,580.945 -1378.185,584.479 
				-1004.685,210.98 			"/>
			<polygon fill="#542954" points="-617.044,-148.379 -620.579,-151.914 -994.08,221.585 -1367.58,595.085 -1364.044,598.616 
				-990.544,225.12 			"/>
			<polygon fill="#542954" points="-624.115,-155.449 -627.649,-158.985 -1001.15,214.516 -1374.65,588.015 -1371.115,591.55 
				-997.615,218.05 			"/>
			<polygon fill="#542954" points="-613.51,-144.844 -987.01,228.654 -1360.51,602.155 -1356.974,605.691 -983.474,232.191 
				-609.975,-141.309 			"/>
		</g>
		<g>
			<polygon fill="#542954" points="-723.254,-169.59 -726.79,-173.125 -1100.29,200.375 -1473.79,573.87 -1470.254,577.407 
				-1096.754,203.91 			"/>
			<polygon fill="#542954" points="-730.326,-176.66 -733.861,-180.196 -1107.361,193.304 -1480.861,566.804 -1477.326,570.339 
				-1103.826,196.84 			"/>
			<polygon fill="#542954" points="-716.185,-162.52 -719.72,-166.055 -1093.22,207.445 -1466.72,580.945 -1463.185,584.479 
				-1089.685,210.98 			"/>
			<polygon fill="#542954" points="-702.044,-148.379 -705.58,-151.914 -1079.08,221.585 -1452.58,595.085 -1449.044,598.616 
				-1075.544,225.12 			"/>
			<polygon fill="#542954" points="-709.115,-155.449 -712.65,-158.985 -1086.15,214.516 -1459.65,588.015 -1456.115,591.55 
				-1082.615,218.05 			"/>
			<polygon fill="#542954" points="-698.508,-144.844 -1072.009,228.654 -1445.51,602.155 -1441.974,605.691 -1068.474,232.191 
				-694.974,-141.309 			"/>
		</g>
	</g>
	<g opacity="0.1">
		<g>
			<polygon fill="#542954" points="-463.256,-174.59 -466.79,-178.125 -840.29,195.375 -1213.79,568.87 -1210.254,572.407 
				-836.754,198.91 			"/>
			<polygon fill="#542954" points="-470.325,-181.66 -473.861,-185.196 -847.361,188.304 -1220.861,561.804 -1217.326,565.339 
				-843.825,191.84 			"/>
			<polygon fill="#542954" points="-456.186,-167.52 -459.721,-171.055 -833.22,202.445 -1206.72,575.945 -1203.185,579.479 
				-829.685,205.98 			"/>
			<polygon fill="#542954" points="-442.045,-153.379 -445.579,-156.914 -819.08,216.585 -1192.58,590.085 -1189.044,593.616 
				-815.544,220.12 			"/>
			<polygon fill="#542954" points="-449.115,-160.449 -452.648,-163.985 -826.15,209.515 -1199.65,583.015 -1196.115,586.55 
				-822.615,213.05 			"/>
			<polygon fill="#542954" points="-438.51,-149.844 -812.008,223.654 -1185.51,597.155 -1181.974,600.691 -808.474,227.191 
				-434.975,-146.309 			"/>
		</g>
		<g>
			<polygon fill="#542954" points="-548.255,-174.59 -551.79,-178.125 -925.29,195.375 -1298.79,568.87 -1295.254,572.407 
				-921.754,198.91 			"/>
			<polygon fill="#542954" points="-555.325,-181.66 -558.861,-185.196 -932.361,188.304 -1305.861,561.804 -1302.326,565.339 
				-928.825,191.84 			"/>
			<polygon fill="#542954" points="-541.186,-167.52 -544.721,-171.055 -918.22,202.445 -1291.72,575.945 -1288.185,579.479 
				-914.685,205.98 			"/>
			<polygon fill="#542954" points="-527.044,-153.379 -530.579,-156.914 -904.08,216.585 -1277.58,590.085 -1274.044,593.616 
				-900.544,220.12 			"/>
			<polygon fill="#542954" points="-534.115,-160.449 -537.648,-163.985 -911.15,209.515 -1284.65,583.015 -1281.115,586.55 
				-907.615,213.05 			"/>
			<polygon fill="#542954" points="-523.51,-149.844 -897.01,223.654 -1270.51,597.155 -1266.974,600.691 -893.474,227.191 
				-519.975,-146.309 			"/>
		</g>
	</g>
	<g opacity="0.1">
		<g>
			<polygon fill="#542954" points="-298.256,-169.59 -301.79,-173.125 -675.29,200.375 -1048.79,573.87 -1045.254,577.407 
				-671.754,203.91 			"/>
			<polygon fill="#542954" points="-305.325,-176.66 -308.861,-180.196 -682.361,193.304 -1055.861,566.804 -1052.326,570.339 
				-678.826,196.84 			"/>
			<polygon fill="#542954" points="-291.186,-162.52 -294.721,-166.055 -668.22,207.445 -1041.72,580.945 -1038.185,584.479 
				-664.685,210.98 			"/>
			<polygon fill="#542954" points="-277.045,-148.379 -280.579,-151.914 -654.079,221.585 -1027.58,595.085 -1024.044,598.616 
				-650.543,225.12 			"/>
			<polygon fill="#542954" points="-284.115,-155.449 -287.648,-158.985 -661.15,214.516 -1034.65,588.015 -1031.115,591.55 
				-657.615,218.05 			"/>
			<polygon fill="#542954" points="-273.51,-144.844 -647.008,228.654 -1020.51,602.155 -1016.974,605.691 -643.474,232.191 
				-269.975,-141.309 			"/>
		</g>
		<g>
			<polygon fill="#542954" points="-383.256,-169.59 -386.79,-173.125 -760.29,200.375 -1133.79,573.87 -1130.254,577.407 
				-756.754,203.91 			"/>
			<polygon fill="#542954" points="-390.325,-176.66 -393.861,-180.196 -767.361,193.304 -1140.861,566.804 -1137.326,570.339 
				-763.826,196.84 			"/>
			<polygon fill="#542954" points="-376.186,-162.52 -379.721,-166.055 -753.22,207.445 -1126.72,580.945 -1123.185,584.479 
				-749.685,210.98 			"/>
			<polygon fill="#542954" points="-362.045,-148.379 -365.579,-151.914 -739.08,221.585 -1112.58,595.085 -1109.044,598.616 
				-735.544,225.12 			"/>
			<polygon fill="#542954" points="-369.115,-155.449 -372.648,-158.985 -746.15,214.516 -1119.65,588.015 -1116.115,591.55 
				-742.615,218.05 			"/>
			<polygon fill="#542954" points="-358.51,-144.844 -732.008,228.654 -1105.51,602.155 -1101.974,605.691 -728.474,232.191 
				-354.975,-141.309 			"/>
		</g>
	</g>
	<g opacity="0.1">
		<g>
			<polygon fill="#542954" points="-124.256,-174.59 -127.79,-178.125 -501.29,195.375 -874.79,568.87 -871.254,572.407 
				-497.755,198.91 			"/>
			<polygon fill="#542954" points="-131.325,-181.66 -134.861,-185.196 -508.361,188.304 -881.861,561.804 -878.325,565.339 
				-504.825,191.84 			"/>
			<polygon fill="#542954" points="-117.186,-167.52 -120.721,-171.055 -494.221,202.445 -867.72,575.945 -864.185,579.479 
				-490.686,205.98 			"/>
			<polygon fill="#542954" points="-103.045,-153.379 -106.579,-156.914 -480.079,216.585 -853.58,590.085 -850.044,593.616 
				-476.545,220.12 			"/>
			<polygon fill="#542954" points="-110.115,-160.449 -113.648,-163.985 -487.148,209.515 -860.65,583.015 -857.115,586.55 
				-483.615,213.05 			"/>
			<polygon fill="#542954" points="-99.51,-149.844 -473.01,223.654 -846.51,597.155 -842.974,600.691 -469.475,227.191 
				-95.975,-146.309 			"/>
		</g>
		<g>
			<polygon fill="#542954" points="-209.256,-174.59 -212.79,-178.125 -586.29,195.375 -959.79,568.87 -956.254,572.407 
				-582.755,198.91 			"/>
			<polygon fill="#542954" points="-216.325,-181.66 -219.861,-185.196 -593.361,188.304 -966.861,561.804 -963.325,565.339 
				-589.825,191.84 			"/>
			<polygon fill="#542954" points="-202.186,-167.52 -205.721,-171.055 -579.221,202.445 -952.72,575.945 -949.185,579.479 
				-575.686,205.98 			"/>
			<polygon fill="#542954" points="-188.045,-153.379 -191.579,-156.914 -565.079,216.585 -938.58,590.085 -935.044,593.616 
				-561.544,220.12 			"/>
			<polygon fill="#542954" points="-195.115,-160.449 -198.648,-163.985 -572.148,209.515 -945.65,583.015 -942.115,586.55 
				-568.615,213.05 			"/>
			<polygon fill="#542954" points="-184.51,-149.844 -558.01,223.654 -931.51,597.155 -927.974,600.691 -554.475,227.191 
				-180.975,-146.309 			"/>
		</g>
	</g>
	<g opacity="0.1">
		<g>
			<polygon fill="#542954" points="40.744,-169.59 37.21,-173.125 -336.29,200.375 -709.79,573.87 -706.254,577.407 
				-332.756,203.91 			"/>
			<polygon fill="#542954" points="33.675,-176.66 30.141,-180.196 -343.361,193.304 -716.861,566.804 -713.326,570.339 
				-339.825,196.84 			"/>
			<polygon fill="#542954" points="47.814,-162.52 44.279,-166.055 -329.221,207.445 -702.72,580.945 -699.185,584.479 
				-325.686,210.98 			"/>
			<polygon fill="#542954" points="61.955,-148.379 58.421,-151.914 -315.079,221.585 -688.58,595.085 -685.044,598.616 
				-311.545,225.12 			"/>
			<polygon fill="#542954" points="54.885,-155.449 51.352,-158.985 -322.148,214.516 -695.65,588.015 -692.115,591.55 
				-318.615,218.05 			"/>
			<polygon fill="#542954" points="65.49,-144.844 -308.01,228.654 -681.508,602.155 -677.974,605.691 -304.475,232.191 
				69.025,-141.309 			"/>
		</g>
		<g>
			<polygon fill="#542954" points="-44.256,-169.59 -47.79,-173.125 -421.29,200.375 -794.79,573.87 -791.254,577.407 
				-417.756,203.91 			"/>
			<polygon fill="#542954" points="-51.325,-176.66 -54.861,-180.196 -428.361,193.304 -801.861,566.804 -798.326,570.339 
				-424.825,196.84 			"/>
			<polygon fill="#542954" points="-37.186,-162.52 -40.721,-166.055 -414.221,207.445 -787.72,580.945 -784.185,584.479 
				-410.686,210.98 			"/>
			<polygon fill="#542954" points="-23.045,-148.379 -26.579,-151.914 -400.079,221.585 -773.58,595.085 -770.044,598.616 
				-396.545,225.12 			"/>
			<polygon fill="#542954" points="-30.115,-155.449 -33.648,-158.985 -407.148,214.516 -780.65,588.015 -777.115,591.55 
				-403.615,218.05 			"/>
			<polygon fill="#542954" points="-19.51,-144.844 -393.01,228.654 -766.508,602.155 -762.974,605.691 -389.475,232.191 
				-15.975,-141.309 			"/>
		</g>
	</g>
	<g opacity="0.1">
		<g>
			<polygon fill="#542954" points="215.744,-174.59 212.21,-178.125 -161.29,195.375 -534.79,568.87 -531.255,572.407 
				-157.756,198.91 			"/>
			<polygon fill="#542954" points="208.675,-181.66 205.141,-185.196 -168.361,188.304 -541.861,561.804 -538.325,565.339 
				-164.825,191.84 			"/>
			<polygon fill="#542954" points="222.814,-167.52 219.279,-171.055 -154.221,202.445 -527.721,575.945 -524.186,579.479 
				-150.686,205.98 			"/>
			<polygon fill="#542954" points="236.955,-153.379 233.421,-156.914 -140.079,216.585 -513.579,590.085 -510.044,593.616 
				-136.545,220.12 			"/>
			<polygon fill="#542954" points="229.885,-160.449 226.352,-163.985 -147.148,209.515 -520.648,583.015 -517.115,586.55 
				-143.615,213.05 			"/>
			<polygon fill="#542954" points="240.49,-149.844 -133.01,223.654 -506.51,597.155 -502.975,600.691 -129.475,227.191 
				244.025,-146.309 			"/>
		</g>
		<g>
			<polygon fill="#542954" points="130.744,-174.59 127.21,-178.125 -246.29,195.375 -619.79,568.87 -616.255,572.407 
				-242.756,198.91 			"/>
			<polygon fill="#542954" points="123.675,-181.66 120.141,-185.196 -253.361,188.304 -626.861,561.804 -623.325,565.339 
				-249.825,191.84 			"/>
			<polygon fill="#542954" points="137.814,-167.52 134.279,-171.055 -239.221,202.445 -612.721,575.945 -609.186,579.479 
				-235.686,205.98 			"/>
			<polygon fill="#542954" points="151.955,-153.379 148.421,-156.914 -225.079,216.585 -598.579,590.085 -595.044,593.616 
				-221.545,220.12 			"/>
			<polygon fill="#542954" points="144.885,-160.449 141.352,-163.985 -232.148,209.515 -605.648,583.015 -602.115,586.55 
				-228.615,213.05 			"/>
			<polygon fill="#542954" points="155.49,-149.844 -218.01,223.654 -591.51,597.155 -587.975,600.691 -214.475,227.191 
				159.025,-146.309 			"/>
		</g>
	</g>
	<g opacity="0.1">
		<g>
			<polygon fill="#542954" points="380.743,-169.59 377.21,-173.125 3.71,200.375 -369.79,573.87 -366.256,577.407 7.244,203.91 			
				"/>
			<polygon fill="#542954" points="373.675,-176.66 370.141,-180.196 -3.359,193.304 -376.861,566.804 -373.325,570.339 
				0.175,196.84 			"/>
			<polygon fill="#542954" points="387.814,-162.52 384.279,-166.055 10.779,207.445 -362.721,580.945 -359.186,584.479 
				14.314,210.98 			"/>
			<polygon fill="#542954" points="401.954,-148.379 398.421,-151.914 24.921,221.585 -348.579,595.085 -345.045,598.616 
				28.455,225.12 			"/>
			<polygon fill="#542954" points="394.885,-155.449 391.352,-158.985 17.852,214.516 -355.648,588.015 -352.115,591.55 
				21.385,218.05 			"/>
			<polygon fill="#542954" points="405.49,-144.844 31.99,228.654 -341.51,602.155 -337.975,605.691 35.525,232.191 
				409.025,-141.309 			"/>
		</g>
		<g>
			<polygon fill="#542954" points="295.744,-169.59 292.21,-173.125 -81.29,200.375 -454.79,573.87 -451.256,577.407 
				-77.756,203.91 			"/>
			<polygon fill="#542954" points="288.675,-176.66 285.141,-180.196 -88.361,193.304 -461.861,566.804 -458.325,570.339 
				-84.825,196.84 			"/>
			<polygon fill="#542954" points="302.814,-162.52 299.279,-166.055 -74.221,207.445 -447.721,580.945 -444.186,584.479 
				-70.686,210.98 			"/>
			<polygon fill="#542954" points="316.954,-148.379 313.421,-151.914 -60.079,221.585 -433.579,595.085 -430.045,598.616 
				-56.545,225.12 			"/>
			<polygon fill="#542954" points="309.885,-155.449 306.352,-158.985 -67.148,214.516 -440.648,588.015 -437.115,591.55 
				-63.615,218.05 			"/>
			<polygon fill="#542954" points="320.49,-144.844 -53.01,228.654 -426.51,602.155 -422.975,605.691 -49.475,232.191 
				324.025,-141.309 			"/>
		</g>
	</g>
</g>
</svg>
