<?xml version="1.0" encoding="utf-8"?>
<!-- Generator: Adobe Illustrator 15.0.2, SVG Export Plug-In . SVG Version: 6.00 Build 0)  -->
<!DOCTYPE svg PUBLIC "-//W3C//DTD SVG 1.1//EN" "http://www.w3.org/Graphics/SVG/1.1/DTD/svg11.dtd">
<svg version="1.1" id="Calque_1" xmlns="http://www.w3.org/2000/svg" xmlns:xlink="http://www.w3.org/1999/xlink" x="0px" y="0px"
	 width="320px" height="24px" viewBox="0 0 320 24" enable-background="new 0 0 320 24" xml:space="preserve">
<g id="Effet_NoPatch" display="none">
</g>
<g>
	<rect x="0" fill="#2AEDFF" width="80" height="24"/>
	
		<linearGradient id="SVGID_1_" gradientUnits="userSpaceOnUse" x1="1035.5208" y1="-879.1592" x2="1035.5208" y2="-857.1592" gradientTransform="matrix(1 0 0 -1 -995.5195 -856.1592)">
		<stop  offset="0" style="stop-color:#E8C6B0"/>
		<stop  offset="1" style="stop-color:#EEEBE8"/>
	</linearGradient>
	<rect x="1" y="1" fill="url(#SVGID_1_)" width="78" height="22"/>
	<path opacity="0.9" fill="#FFFFFE" enable-background="new    " d="M78,2v20H2V2H78 M79,1H1v22h78V1L79,1z"/>
</g>
<g>
	<rect x="160" fill="#2AEDFF" width="80" height="24"/>
	<rect x="161" y="1" fill="#D3117E" width="78" height="22"/>
	<linearGradient id="SVGID_2_" gradientUnits="userSpaceOnUse" x1="200.0002" y1="1.0625" x2="200.0002" y2="23.0177">
		<stop  offset="0" style="stop-color:#FFFFFE;stop-opacity:0.15"/>
		<stop  offset="1" style="stop-color:#FFFFFE;stop-opacity:0"/>
	</linearGradient>
	<rect x="161" y="1" fill="url(#SVGID_2_)" width="78" height="22"/>
	<path opacity="0.9" fill="#FFFFFE" enable-background="new    " d="M238,2v20h-76V2H238 M239,1h-78v22h78V1L239,1z"/>
</g>
<g opacity="0.3">
	<rect x="240" fill="#2AEDFF" width="80" height="24"/>
	
		<linearGradient id="SVGID_3_" gradientUnits="userSpaceOnUse" x1="1275.5208" y1="-879.1592" x2="1275.5208" y2="-857.1592" gradientTransform="matrix(1 0 0 -1 -995.5195 -856.1592)">
		<stop  offset="0" style="stop-color:#E8C6B0"/>
		<stop  offset="1" style="stop-color:#EEEBE8"/>
	</linearGradient>
	<rect x="241" y="1" fill="url(#SVGID_3_)" width="78" height="22"/>
	<path opacity="0.9" fill="#FFFFFE" enable-background="new    " d="M318,2v20h-76V2H318 M319,1h-78v22h78V1L319,1z"/>
</g>
<rect x="80" fill="#2AEDFF" width="80" height="24"/>
<rect x="81" y="1" fill="#E8C6B0" width="78" height="22"/>
<path opacity="0.9" fill="#FFFFFE" enable-background="new    " d="M158,2v20H82V2H158 M159,1H81v22h78V1L159,1z"/>
</svg>
