<?xml version="1.0" encoding="utf-8"?>
<!-- Generator: Adobe Illustrator 15.0.2, SVG Export Plug-In . SVG Version: 6.00 Build 0)  -->
<!DOCTYPE svg PUBLIC "-//W3C//DTD SVG 1.1//EN" "http://www.w3.org/Graphics/SVG/1.1/DTD/svg11.dtd">
<svg version="1.1" id="Calque_1" xmlns="http://www.w3.org/2000/svg" xmlns:xlink="http://www.w3.org/1999/xlink" x="0px" y="0px"
	 width="36px" height="48px" viewBox="0 0 36 48" enable-background="new 0 0 36 48" xml:space="preserve">
<path fill="#FFFFFF" d="M18,0c-3.782,0-6.854,3.002-6.987,6.75H11v34.5h0.013C11.146,44.999,14.218,48,18,48
	c3.781,0,6.854-3.001,6.986-6.75H25V6.75h-0.014C24.854,3.002,21.781,0,18,0z"/>
<path opacity="0.04" fill="#DFFFEF" enable-background="new    " d="M18,0c-3.782,0-6.854,3.002-6.987,6.75H11v34.5h0.013
	C11.146,44.999,14.218,48,18,48c3.781,0,6.854-3.001,6.986-6.75H25V6.75h-0.014C24.854,3.002,21.781,0,18,0z"/>
<linearGradient id="SVGID_1_" gradientUnits="userSpaceOnUse" x1="-377.9595" y1="-235.5786" x2="-377.9595" y2="-249.5786" gradientTransform="matrix(1.192488e-008 -1 -1 -1.192488e-008 -224.6005 -353.9601)">
	<stop  offset="0" style="stop-color:#FFF5F5"/>
	<stop  offset="1" style="stop-color:#DFFFEF;stop-opacity:0.25"/>
</linearGradient>
<path opacity="0.5" fill="url(#SVGID_1_)" enable-background="new    " d="M12,7.152l0.014-0.367C12.128,3.541,14.758,1,18,1
	s5.872,2.541,5.986,5.785L24,7.048v33.8l-0.014,0.367C23.872,44.459,21.242,47,18,47s-5.872-2.541-5.986-5.785L12,40.952V7.152
	 M11,6.75v34.5h0.014C11.146,44.999,14.218,48,18,48c3.781,0,6.854-3.001,6.986-6.75H25V6.75h-0.014C24.854,3.002,21.781,0,18,0
	c-3.782,0-6.854,3.002-6.986,6.75H11L11,6.75z"/>
</svg>
