<?xml version="1.0" encoding="utf-8"?>
<!-- Generator: Adobe Illustrator 15.0.2, SVG Export Plug-In . SVG Version: 6.00 Build 0)  -->
<!DOCTYPE svg PUBLIC "-//W3C//DTD SVG 1.1//EN" "http://www.w3.org/Graphics/SVG/1.1/DTD/svg11.dtd">
<svg version="1.1" id="Calque_1" xmlns="http://www.w3.org/2000/svg" xmlns:xlink="http://www.w3.org/1999/xlink" x="0px" y="0px"
	 width="48px" height="36px" viewBox="0 0 48 36" enable-background="new 0 0 48 36" xml:space="preserve">
<path fill="#FFFFFF" d="M48,21c0,2.2-1.813,4-4.025,4H4.026C1.812,25,0,23.2,0,21v-6c0-2.2,1.812-4,4.026-4h39.947
	C46.188,11,48,12.8,48,15V21z"/>
<path opacity="0.04" fill="#DFFFEF" enable-background="new    " d="M48,21c0,2.2-1.813,4-4.025,4H4.026C1.812,25,0,23.2,0,21v-6
	c0-2.2,1.812-4,4.026-4h39.947C46.188,11,48,12.8,48,15V21z"/>
<g opacity="0.5" enable-background="new    ">
	
		<linearGradient id="SVGID_1_" gradientUnits="userSpaceOnUse" x1="293.6006" y1="-380.96" x2="293.6006" y2="-367.055" gradientTransform="matrix(1 0 0 -1 -269.5996 -355.96)">
		<stop  offset="0" style="stop-color:#FFF5F5"/>
		<stop  offset="1" style="stop-color:#DFFFEF;stop-opacity:0.3"/>
	</linearGradient>
	<path fill="url(#SVGID_1_)" d="M43.975,12C45.643,12,47,13.346,47,15v6c0,1.654-1.357,3-3.025,3H4.026C2.357,24,1,22.654,1,21v-6
		c0-1.654,1.357-3,3.026-3H43.975 M43.975,11H4.026C1.812,11,0,12.8,0,15v6c0,2.2,1.812,4,4.026,4h39.947C46.188,25,48,23.2,48,21
		v-6C48,12.8,46.188,11,43.975,11L43.975,11z"/>
</g>
</svg>
